{
.appVersion = "3414";
.formatVersion = 3;
DisplayStrings = (
IHamburg
);
axes = (
{
name = Weight;
tag = wght;
},
{
name = Width;
tag = wdth;
}
);
classes = (
{
automatic = 1;
code = "A Aacute Acircumflex Adieresis Agrave Aring Atilde B C D E Eacute Ecircumflex Edieresis Egrave F G H I J K L M N Ntilde O Oacute Ocircumflex Odieresis Ograve Otilde P Q R S T U Uacute Ucircumflex Udieresis Ugrave V W X Y Z";
name = Uppercase;
}
);
date = "2025-02-16 11:19:15 +0000";
familyName = OHamburgC;
featurePrefixes = (
{
automatic = 1;
code = "languagesystem DFLT dflt;
";
name = Languagesystems;
},
{
code = "";
name = Prefix;
}
);
features = (
{
automatic = 1;
code = "feature c2sc;
feature smcp;
feature case;
";
tag = aalt;
},
{
automatic = 1;
code = "lookup ccmp_DFLT_1 {
	lookupflag 0;
	sub brevecomb acutecomb by brevecomb_acutecomb;
	sub brevecomb gravecomb by brevecomb_gravecomb;
	sub brevecomb hookabovecomb by brevecomb_hookabovecomb;
	sub brevecomb tildecomb by brevecomb_tildecomb;
	sub circumflexcomb acutecomb by circumflexcomb_acutecomb;
	sub circumflexcomb gravecomb by circumflexcomb_gravecomb;
	sub circumflexcomb hookabovecomb by circumflexcomb_hookabovecomb;
	sub circumflexcomb tildecomb by circumflexcomb_tildecomb;
} ccmp_DFLT_1;

lookup ccmp_Other_1 {
	lookupflag 0;
	@Markscomb = [tonos dieresiscomb dotaccentcomb gravecomb acutecomb hungarumlautcomb caroncomb.alt circumflexcomb caroncomb brevecomb ringcomb tildecomb macroncomb hookabovecomb commaturnedabovecomb commaaccentcomb cedillacomb ogonekcomb];
	@MarkscombCase = [tonos.case dieresiscomb.case dotaccentcomb.case gravecomb.case acutecomb.case hungarumlautcomb.case caroncomb.alt.case circumflexcomb.case caroncomb.case brevecomb.case ringcomb.case tildecomb.case macroncomb.case hookabovecomb.case commaturnedabovecomb.case commaaccentcomb.case cedillacomb.case ogonekcomb.case];
	sub @Markscomb @Markscomb' by @MarkscombCase;
	sub @Uppercase @Markscomb' by @MarkscombCase;
} ccmp_Other_1;

lookup ccmp_Other_2 {

glyphs = (
{
glyphname = A;
lastChange = "2025-04-25 19:48:45 +0000";
layers = (
{
anchors = (
{
name = bottom;
pos = (301,0);
},
{
name = ogonek;
pos = (578,10);
},
{
name = top;
pos = (482,616);
}
);
color = 4;
layerId = m003;
shapes = (
{
closed = 1;
nodes = (
(628,0,l),
(634,22,l),
(569,36,o),
(555,61,o),
(544,132,cs),
(522,303,o),
(500,477,o),
(478,648,c),
(418,576,l),
(419,550,l),
(469,136,ls),
(481,39,o),
(463,40,o),
(382,22,c),
(376,0,l)
);
},
{
closed = 1;
nodes = (
(214,0,l),
(220,22,l),
(148,28,o),
(128,54,o),
(174,127,cs),
(448,564,l),
(418,576,l),
(307,404,o),
(185,195,o),
(92,80,cs),
(64,46,o),
(13,22,o),
(-32,22,c),
(-38,0,l)
);
},
{
closed = 1;
nodes = (
(482,258,l),
(478,298,l),
(255,298,l),
(228,258,l)
);
}
);
width = 698;
},
{
anchors = (
{
name = bottom;
pos = (303,0);
},
{
name = ogonek;
pos = (580,10);
},
{
name = top;
pos = (513,616);
}
);
color = 4;
layerId = m005;
shapes = (
{
closed = 1;
nodes = (
(630,0,l),
(636,22,l),
(571,36,o),
(557,61,o),
(546,132,cs),
(524,303,o),
(502,477,o),
(480,648,c),
(420,576,l),
(421,550,l),
(471,136,ls),
(483,39,o),
(465,40,o),
(384,22,c),
(378,0,l)
);
},
{
closed = 1;
nodes = (
(216,0,l),
(222,22,l),
(150,28,o),
(130,54,o),
(176,127,cs),
(450,564,l),
(420,576,l),
(309,404,o),
(187,195,o),
(94,80,cs),
(66,46,o),
(15,22,o),
(-30,22,c),
(-36,0,l)
);
},
{
closed = 1;
nodes = (
(484,258,l),
(480,298,l),
(257,298,l),
(230,258,l)
);
}
);
width = 702;
},
{
anchors = (
{
name = bottom;
pos = (305,0);
},
{
name = ogonek;
pos = (582,10);
},
{
name = top;
pos = (515,616);
}
);
color = 4;
layerId = m006;
shapes = (
{
closed = 1;
nodes = (
(632,0,l),
(638,22,l),
(573,36,o),
(559,61,o),
(548,132,cs),
(526,303,o),
(504,477,o),
(482,648,c),
(422,576,l),
(423,550,l),
(473,136,ls),
(485,39,o),
(467,40,o),
(386,22,c),
(380,0,l)
);
},
{
closed = 1;
nodes = (
(218,0,l),
(224,22,l),
(152,28,o),
(132,54,o),
(178,127,cs),
(452,564,l),
(422,576,l),
(311,404,o),
(189,195,o),
(96,80,cs),
(68,46,o),
(17,22,o),
(-28,22,c),
(-34,0,l)
);
},
{
closed = 1;
nodes = (
(486,258,l),
(482,298,l),
(259,298,l),
(232,258,l)
);
}
);
width = 706;
},
{
anchors = (
{
name = bottom;
pos = (305,0);
},
{
name = ogonek;
pos = (582,10);
},
{
name = top;
pos = (489,616);
}
);
color = 4;
layerId = m004;
shapes = (
{
closed = 1;
nodes = (
(632,0,l),
(638,22,l),
(573,36,o),
(559,61,o),
(548,132,cs),
(526,303,o),
(504,477,o),
(482,648,c),
(422,576,l),
(423,550,l),
(473,136,ls),
(485,39,o),
(467,40,o),
(386,22,c),
(380,0,l)
);
},
{
closed = 1;
nodes = (
(218,0,l),
(224,22,l),
(152,28,o),
(132,54,o),
(178,127,cs),
(452,564,l),
(422,576,l),
(311,404,o),
(189,195,o),
(96,80,cs),
(68,46,o),
(17,22,o),
(-28,22,c),
(-34,0,l)
);
},
{
closed = 1;
nodes = (
(486,258,l),
(482,298,l),
(259,298,l),
(232,258,l)
);
}
);
width = 706;
}
);
unicode = 65;
},
{
glyphname = B;
lastChange = "2025-04-25 19:48:45 +0000";
layers = (
{
anchors = (
{
name = bottom;
pos = (224,0);
},
{
name = center;
pos = (125,154);
},
{
name = top;
pos = (434,616);
}
);
color = 2;
guides = (
{
angle = 270;
pos = (-28,13);
}
);
layerId = m003;
shapes = (
{
closed = 1;
nodes = (
(-31,0,l),
(240,0,l),
(249,37,l),
(201,37,o),
(166,41,o),
(158,47,cs),
(148,55,o),
(145,73,o),
(149,88,cs),
(166,152,o),
(222,358,o),
(280,577,c),
(310,578,o),
(349,579,o),
(374,579,c),
(384,616,l),
(133,616,l),
(127,594,l),
(159,591,o),
(183,581,o),
(191,575,cs),
(198,570,o),
(203,549,o),
(197,525,cs),
(174,431,o),
(151,338,o),
(141,302,cs),
(101,160,o),
(76,71,o),
(81,88,cs),
(75,67,o),
(65,47,o),
(54,40,cs),
(44,33,o),
(18,28,o),
(-25,22,c)
);
},
{
closed = 1;
nodes = (
(223,308,o),
(250,308,o),
(250,308,cs),
(412,319,o),
(523,383,o),
(532,476,cs),
(539,552,o),
(484,616,o),
(384,616,c),
(374,579,l),
(437,579,o),
(466,523,o),
(457,457,cs),
(447,381,o),
(368,338,o),
(251,338,cs),
(191,338,l),
(184,308,l)
);
},
{
closed = 1;
nodes = (
(382,0,o),
(505,82,o),
(502,201,cs),
(500,269,o),
(451,322,o),
(355,328,cs),
(173,340,l),
(164,304,l),
(206,304,o),
(235,304,o),
(235,304,cs),
(358,309,o),
(425,259,o),
(424,181,cs),
(423,97,o),
(343,37,o),
(249,37,c),
(240,0,l)
);
}
);
width = 557;
},
{
anchors = (
{
name = bottom;
pos = (238,0);
},
{
name = center;
pos = (139,154);
},
{
name = top;
pos = (448,616);
}
);
color = 2;
guides = (
{
angle = 270;
pos = (-14,13);
}
);
layerId = m005;
shapes = (
{
closed = 1;
nodes = (
(-17,0,l),
(254,0,l),
(263,37,l),
(215,37,o),
(180,41,o),
(172,47,cs),
(162,55,o),
(159,73,o),
(163,88,cs),
(180,152,o),
(236,358,o),
(294,577,c),
(324,578,o),
(363,579,o),
(388,579,c),
(398,616,l),
(147,616,l),
(141,594,l),
(173,591,o),
(197,581,o),
(205,575,cs),
(212,570,o),
(217,549,o),
(211,525,cs),
(188,431,o),
(165,338,o),
(155,302,cs),
(115,160,o),
(90,71,o),
(95,88,cs),
(89,67,o),
(79,47,o),
(68,40,cs),
(58,33,o),
(32,28,o),
(-11,22,c)
);
},
{
closed = 1;
nodes = (
(237,308,o),
(264,308,o),
(264,308,cs),
(426,319,o),
(537,383,o),
(546,476,cs),
(553,552,o),
(498,616,o),
(398,616,c),
(388,579,l),
(451,579,o),
(480,523,o),
(471,457,cs),
(461,381,o),
(382,338,o),
(265,338,cs),
(205,338,l),
(198,308,l)
);
},
{
closed = 1;
nodes = (
(396,0,o),
(519,82,o),
(516,201,cs),
(514,269,o),
(465,322,o),
(369,328,cs),
(187,340,l),
(178,304,l),
(220,304,o),
(249,304,o),
(249,304,cs),
(372,309,o),
(439,259,o),
(438,181,cs),
(437,97,o),
(357,37,o),
(263,37,c),
(254,0,l)
);
}
);
width = 577;
},
{
anchors = (
{
name = bottom;
pos = (237,0);
},
{
name = center;
pos = (138,154);
},
{
name = top;
pos = (447,616);
}
);
color = 2;
guides = (
{
angle = 270;
pos = (-15,13);
}
);
layerId = m006;
shapes = (
{
closed = 1;
nodes = (
(-18,0,l),
(253,0,l),
(262,37,l),
(214,37,o),
(179,41,o),
(171,47,cs),
(161,55,o),
(158,73,o),
(162,88,cs),
(179,152,o),
(235,358,o),
(293,577,c),
(323,578,o),
(362,579,o),
(387,579,c),
(397,616,l),
(146,616,l),
(140,594,l),
(172,591,o),
(196,581,o),
(204,575,cs),
(211,570,o),
(216,549,o),
(210,525,cs),
(187,431,o),
(164,338,o),
(154,302,cs),
(114,160,o),
(89,71,o),
(94,88,cs),
(88,67,o),
(78,47,o),
(67,40,cs),
(57,33,o),
(31,28,o),
(-12,22,c)
);
},
{
closed = 1;
nodes = (
(236,308,o),
(263,308,o),
(263,308,cs),
(425,319,o),
(536,383,o),
(545,476,cs),
(552,552,o),
(497,616,o),
(397,616,c),
(387,579,l),
(450,579,o),
(479,523,o),
(470,457,cs),
(460,381,o),
(381,338,o),
(264,338,cs),
(204,338,l),
(197,308,l)
);
},
{
closed = 1;
nodes = (
(395,0,o),
(518,82,o),
(515,201,cs),
(513,269,o),
(464,322,o),
(368,328,cs),
(186,340,l),
(177,304,l),
(219,304,o),
(248,304,o),
(248,304,cs),
(371,309,o),
(438,259,o),
(437,181,cs),
(436,97,o),
(356,37,o),
(262,37,c),
(253,0,l)
);
}
);
width = 577;
},
{
anchors = (
{
name = bottom;
pos = (237,0);
},
{
name = center;
pos = (138,154);
},
{
name = top;
pos = (447,616);
}
);
color = 2;
guides = (
{
angle = 270;
pos = (-15,13);
}
);
layerId = m004;
shapes = (
{
closed = 1;
nodes = (
(-18,0,l),
(253,0,l),
(262,37,l),
(214,37,o),
(179,41,o),
(171,47,cs),
(161,55,o),
(158,73,o),
(162,88,cs),
(179,152,o),
(235,358,o),
(293,577,c),
(323,578,o),
(362,579,o),
(387,579,c),
(397,616,l),
(146,616,l),
(140,594,l),
(172,591,o),
(196,581,o),
(204,575,cs),
(211,570,o),
(216,549,o),
(210,525,cs),
(187,431,o),
(164,338,o),
(154,302,cs),
(114,160,o),
(89,71,o),
(94,88,cs),
(88,67,o),
(78,47,o),
(67,40,cs),
(57,33,o),
(31,28,o),
(-12,22,c)
);
},
{
closed = 1;
nodes = (
(236,308,o),
(263,308,o),
(263,308,cs),
(425,319,o),
(536,383,o),
(545,476,cs),
(552,552,o),
(497,616,o),
(397,616,c),
(387,579,l),
(450,579,o),
(479,523,o),
(470,457,cs),
(460,381,o),
(381,338,o),
(264,338,cs),
(204,338,l),
(197,308,l)
);
},
{
closed = 1;
nodes = (
(395,0,o),
(518,82,o),
(515,201,cs),
(513,269,o),
(464,322,o),
(368,328,cs),
(186,340,l),
(177,304,l),
(219,304,o),
(248,304,o),
(248,304,cs),
(371,309,o),
(438,259,o),
(437,181,cs),
(436,97,o),
(356,37,o),
(262,37,c),
(253,0,l)
);
}
);
width = 577;
}
);
metricLeft = H;
unicode = 66;
},
{
glyphname = C;
lastChange = "2025-04-25 19:48:45 +0000";
layers = (
{
anchors = (
{
name = bottom;
pos = (285,0);
},
{
name = top;
pos = (495,616);
}
);
background = {
shapes = (
{
closed = 1;
nodes = (
(526,-8,o),
(676,123,o),
(706,308,cs),
(740,507,o),
(637,648,o),
(457,648,cs),
(275,648,o),
(125,518,o),
(94,334,cs),
(61,134,o),
(164,-8,o),
(343,-8,cs)
);
},
{
closed = 1;
nodes = (
(249,30,o),
(163,139,o),
(171,275,cs),
(182,462,o),
(300,610,o),
(437,610,cs),
(551,610,o),
(635,502,o),
(626,366,cs),
(616,179,o),
(500,30,o),
(364,30,cs)
);
}
);
};
backgroundImage = {
imagePath = "../../Desktop/Bildschirmfoto 2024-12-24 um 08.52.09.png";
pos = (650,-952);
scale = (-1.4,1.4);
slant = (2,0);
};
color = 4;
layerId = m003;
shapes = (
{
closed = 1;
nodes = (
(417,-8,o),
(512,11,o),
(573,38,c),
(582,53,o),
(611,121,o),
(644,201,c),
(612,200,l),
(566,100,o),
(463,30,o),
(364,30,cs),
(242,30,o),
(162,132,o),
(171,275,cs),
(183,471,o),
(293,610,o),
(437,610,cs),
(543,610,o),
(612,531,o),
(605,420,c),
(632,420,l),
(655,503,o),
(673,566,o),
(675,571,c),
(617,616,o),
(527,648,o),
(457,648,cs),
(275,648,o),
(125,518,o),
(94,334,cs),
(60,134,o),
(163,-8,o),
(343,-8,cs)
);
}
);
width = 700;
},
{
anchors = (
{
name = bottom;
pos = (408,0);
},
{
name = top;
pos = (407,616);
}
);
associatedMasterId = m003;
background = {
shapes = (
{
closed = 1;
nodes = (
(418,588,l),
(514,588,o),
(584,528,o),
(589,444,c),
(620,444,l),
(622,495,o),
(629,558,o),
(636,595,c),
(586,614,o),
(492,627,o),
(410,627,c)
);
}
);
};
backgroundImage = {
imagePath = "../../Desktop/Bildschirmfoto 2024-12-24 um 08.52.09.png";
pos = (714,-952);
scale = (-1.4,1.4);
};
color = 4;
layerId = "A8205263-60D0-4B63-B521-8F6B441CF343";
name = "11. Jan. 25, 13:19";
shapes = (
{
closed = 1;
nodes = (
(479,-11,o),
(572,9,o),
(628,38,c),
(646,106,o),
(662,174,o),
(666,201,c),
(630,200,l),
(606,102,o),
(520,33,o),
(422,33,cs),
(268,33,o),
(156,158,o),
(156,335,cs),
(156,482,o),
(265,586,o),
(414,586,cs),
(506,586,o),
(582,522,o),
(597,432,c),
(637,432,l),
(634,599,l),
(584,573,l),
(551,605,o),
(477,627,o),
(404,627,cs),
(197,627,o),
(54,496,o),
(54,312,cs),
(54,123,o),
(197,-11,o),
(404,-11,cs)
);
}
);
width = 720;
},
{
anchors = (
{
name = bottom;
pos = (301,0);
},
{
name = top;
pos = (511,616);
}
);
background = {
shapes = (
{
closed = 1;
nodes = (
(370,588,l),
(466,588,o),
(536,528,o),
(541,444,c),
(572,444,l),
(574,495,o),
(581,558,o),
(588,595,c),
(538,614,o),
(444,627,o),
(362,627,c)
);
},
{
closed = 1;
nodes = (
(381,-8,cs),
(554,-8,o),
(695,108,o),
(721,272,cs),
(761,481,o),
(646,628,o),
(443,628,cs),
(270,628,o),
(129,512,o),
(103,348,cs),
(63,139,o),
(178,-8,o)
);
},
{
closed = 1;
nodes = (
(258,32,o),
(161,173,o),
(181,372,cs),
(191,499,o),
(291,588,o),
(423,588,cs),
(571,588,o),
(662,447,o),
(642,248,cs),
(632,121,o),
(538,32,o),
(414,32,cs)
);
}
);
};
backgroundImage = {
imagePath = "../../Desktop/Bildschirmfoto 2024-12-24 um 08.52.09.png";
pos = (666,-952);
scale = (-1.4,1.4);
};
color = 4;
layerId = m005;
shapes = (
{
closed = 1;
nodes = (
(441,-8,o),
(528,11,o),
(589,38,c),
(602,62,o),
(631,130,o),
(660,201,c),
(628,200,l),
(583,102,o),
(494,32,o),
(414,32,cs),
(258,32,o),
(161,173,o),
(181,372,cs),
(194,499,o),
(294,588,o),
(423,588,cs),
(546,588,o),
(628,510,o),
(621,400,c),
(648,400,l),
(668,472,o),
(686,535,o),
(691,551,c),
(633,596,o),
(530,628,o),
(443,628,cs),
(275,628,o),
(134,512,o),
(103,348,cs),
(63,139,o),
(178,-8,o),
(381,-8,cs)
);
}
);
width = 723;
},
{
anchors = (
{
name = bottom;
pos = (408,0);
},
{
name = top;
pos = (407,616);
}
);
associatedMasterId = m005;
background = {
shapes = (
{
closed = 1;
nodes = (
(418,588,l),
(514,588,o),
(584,528,o),
(589,444,c),
(620,444,l),
(622,495,o),
(629,558,o),
(636,595,c),
(586,614,o),
(492,627,o),
(410,627,c)
);
}
);
};
backgroundImage = {
imagePath = "../../Desktop/Bildschirmfoto 2024-12-24 um 08.52.09.png";
pos = (714,-952);
scale = (-1.4,1.4);
};
color = 4;
layerId = "7B8EC43E-E829-4C73-A073-7A2C9761AD98";
name = "11. Jan. 25, 13:19";
shapes = (
{
closed = 1;
nodes = (
(479,-11,o),
(572,9,o),
(628,38,c),
(646,106,o),
(662,174,o),
(666,201,c),
(630,200,l),
(606,102,o),
(520,33,o),
(422,33,cs),
(268,33,o),
(156,158,o),
(156,335,cs),
(156,482,o),
(265,586,o),
(414,586,cs),
(506,586,o),
(582,522,o),
(597,432,c),
(637,432,l),
(634,599,l),
(584,573,l),
(551,605,o),
(477,627,o),
(404,627,cs),
(197,627,o),
(54,496,o),
(54,312,cs),
(54,123,o),
(197,-11,o),
(404,-11,cs)
);
}
);
width = 720;
},
{
anchors = (
{
name = bottom;
pos = (283,0);
},
{
name = top;
pos = (493,616);
}
);
background = {
shapes = (
{
closed = 1;
nodes = (
(352,588,l),
(448,588,o),
(518,528,o),
(523,444,c),
(554,444,l),
(556,495,o),
(563,558,o),
(570,595,c),
(520,614,o),
(426,627,o),
(344,627,c)
);
},
{
closed = 1;
nodes = (
(363,-8,cs),
(536,-8,o),
(677,108,o),
(703,272,cs),
(743,481,o),
(628,628,o),
(425,628,cs),
(252,628,o),
(111,512,o),
(85,348,cs),
(45,139,o),
(160,-8,o)
);
},
{
closed = 1;
nodes = (
(240,32,o),
(143,173,o),
(163,372,cs),
(173,499,o),
(273,588,o),
(405,588,cs),
(553,588,o),
(644,447,o),
(624,248,cs),
(614,121,o),
(520,32,o),
(396,32,cs)
);
}
);
};
backgroundImage = {
imagePath = "../../Desktop/Bildschirmfoto 2024-12-24 um 08.52.09.png";
pos = (648,-952);
scale = (-1.4,1.4);
};
color = 4;
layerId = m006;
shapes = (
{
closed = 1;
nodes = (
(423,-8,o),
(510,11,o),
(571,38,c),
(584,62,o),
(613,130,o),
(642,201,c),
(610,200,l),
(565,102,o),
(476,32,o),
(396,32,cs),
(240,32,o),
(143,173,o),
(163,372,cs),
(176,499,o),
(276,588,o),
(405,588,cs),
(528,588,o),
(610,510,o),
(603,400,c),
(630,400,l),
(650,472,o),
(668,535,o),
(673,551,c),
(615,596,o),
(512,628,o),
(425,628,cs),
(257,628,o),
(116,512,o),
(85,348,cs),
(45,139,o),
(160,-8,o),
(363,-8,cs)
);
}
);
width = 702;
},
{
anchors = (
{
name = bottom;
pos = (408,0);
},
{
name = top;
pos = (407,616);
}
);
associatedMasterId = m006;
background = {
shapes = (
{
closed = 1;
nodes = (
(418,588,l),
(514,588,o),
(584,528,o),
(589,444,c),
(620,444,l),
(622,495,o),
(629,558,o),
(636,595,c),
(586,614,o),
(492,627,o),
(410,627,c)
);
}
);
};
backgroundImage = {
imagePath = "../../Desktop/Bildschirmfoto 2024-12-24 um 08.52.09.png";
pos = (714,-952);
scale = (-1.4,1.4);
};
color = 4;
layerId = "9D4A0B2B-280C-459B-B0CC-D87FC70FE8CF";
name = "11. Jan. 25, 13:19";
shapes = (
{
closed = 1;
nodes = (
(479,-11,o),
(572,9,o),
(628,38,c),
(646,106,o),
(662,174,o),
(666,201,c),
(630,200,l),
(606,102,o),
(520,33,o),
(422,33,cs),
(268,33,o),
(156,158,o),
(156,335,cs),
(156,482,o),
(265,586,o),
(414,586,cs),
(506,586,o),
(582,522,o),
(597,432,c),
(637,432,l),
(634,599,l),
(584,573,l),
(551,605,o),
(477,627,o),
(404,627,cs),
(197,627,o),
(54,496,o),
(54,312,cs),
(54,123,o),
(197,-11,o),
(404,-11,cs)
);
}
);
width = 720;
},
{
anchors = (
{
name = bottom;
pos = (283,0);
},
{
name = top;
pos = (493,616);
}
);
background = {
shapes = (
{
closed = 1;
nodes = (
(352,588,l),
(448,588,o),
(518,528,o),
(523,444,c),
(554,444,l),
(556,495,o),
(563,558,o),
(570,595,c),
(520,614,o),
(426,627,o),
(344,627,c)
);
},
{
closed = 1;
nodes = (
(363,-8,cs),
(536,-8,o),
(677,108,o),
(703,272,cs),
(743,481,o),
(628,628,o),
(425,628,cs),
(252,628,o),
(111,512,o),
(85,348,cs),
(45,139,o),
(160,-8,o)
);
},
{
closed = 1;
nodes = (
(240,32,o),
(143,173,o),
(163,372,cs),
(173,499,o),
(273,588,o),
(405,588,cs),
(553,588,o),
(644,447,o),
(624,248,cs),
(614,121,o),
(520,32,o),
(396,32,cs)
);
}
);
};
backgroundImage = {
imagePath = "../../Desktop/Bildschirmfoto 2024-12-24 um 08.52.09.png";
pos = (648,-952);
scale = (-1.4,1.4);
};
color = 4;
layerId = m004;
shapes = (
{
closed = 1;
nodes = (
(423,-8,o),
(510,11,o),
(571,38,c),
(584,62,o),
(613,130,o),
(642,201,c),
(610,200,l),
(565,102,o),
(476,32,o),
(396,32,cs),
(240,32,o),
(143,173,o),
(163,372,cs),
(176,499,o),
(276,588,o),
(405,588,cs),
(528,588,o),
(610,510,o),
(603,400,c),
(630,400,l),
(650,472,o),
(668,535,o),
(673,551,c),
(615,596,o),
(512,628,o),
(425,628,cs),
(257,628,o),
(116,512,o),
(85,348,cs),
(45,139,o),
(160,-8,o),
(363,-8,cs)
);
}
);
width = 702;
},
{
anchors = (
{
name = bottom;
pos = (408,0);
},
{
name = top;
pos = (407,616);
}
);
associatedMasterId = m004;
background = {
shapes = (
{
closed = 1;
nodes = (
(418,588,l),
(514,588,o),
(584,528,o),
(589,444,c),
(620,444,l),
(622,495,o),
(629,558,o),
(636,595,c),
(586,614,o),
(492,627,o),
(410,627,c)
);
}
);
};
backgroundImage = {
imagePath = "../../Desktop/Bildschirmfoto 2024-12-24 um 08.52.09.png";
pos = (714,-952);
scale = (-1.4,1.4);
};
color = 4;
layerId = "48FEF181-2BA0-4797-BA6A-B399A2CC7205";
name = "11. Jan. 25, 13:19";
shapes = (
{
closed = 1;
nodes = (
(479,-11,o),
(572,9,o),
(628,38,c),
(646,106,o),
(662,174,o),
(666,201,c),
(630,200,l),
(606,102,o),
(520,33,o),
(422,33,cs),
(268,33,o),
(156,158,o),
(156,335,cs),
(156,482,o),
(265,586,o),
(414,586,cs),
(506,586,o),
(582,522,o),
(597,432,c),
(637,432,l),
(634,599,l),
(584,573,l),
(551,605,o),
(477,627,o),
(404,627,cs),
(197,627,o),
(54,496,o),
(54,312,cs),
(54,123,o),
(197,-11,o),
(404,-11,cs)
);
}
);
width = 720;
}
);
metricLeft = O;
metricRight = H;
unicode = 67;
},
{
glyphname = D;
lastChange = "2025-04-25 19:53:07 +0000";
layers = (
{
anchors = (
{
name = bottom;
pos = (285,0);
},
{
name = center;
pos = (208,308);
},
{
name = top;
pos = (495,616);
}
);
background = {
anchors = (
{
name = bottom;
pos = (220,0);
},
{
name = center;
pos = (285,308);
},
{
name = ogonek;
pos = (480,10);
},
{
name = top;
pos = (450,617);
},
{
name = topleft;
pos = (39,616);
},
{
name = topright;
pos = (741,616);
}
);
shapes = (
{
closed = 1;
nodes = (
(503,-8,o),
(653,123,o),
(683,308,cs),
(717,507,o),
(614,648,o),
(434,648,cs),
(252,648,o),
(102,518,o),
(71,334,cs),
(38,134,o),
(141,-8,o),
(320,-8,cs)
);
},
{
closed = 1;
nodes = (
(226,30,o),
(140,139,o),
(148,275,cs),
(159,462,o),
(277,610,o),
(414,610,cs),
(528,610,o),
(612,502,o),
(603,366,cs),
(593,179,o),
(477,30,o),
(341,30,cs)
);
}
);
};
backgroundImage = {
imagePath = "../../Desktop/Bildschirmfoto 2024-12-24 um 13.06.05.png";
pos = (711,-1011);
scale = (-1.4,1.4);
slant = (2,0);
};
color = 2;
layerId = m003;
shapes = (
{
closed = 1;
nodes = (
(-31,0,l),
(-8,0,o),
(54,0,o),
(96,0,cs),
(96,0,o),
(177,1,o),
(314,-3,c),
(329,36,l),
(238,36,o),
(168,43,o),
(160,53,cs),
(154,60,o),
(153,75,o),
(157,89,cs),
(184,187,o),
(260,478,o),
(287,576,c),
(365,578,o),
(408,580,o),
(389,580,c),
(407,619,l),
(334,617,o),
(263,616,o),
(263,616,c),
(217,616,o),
(164,616,o),
(133,616,c),
(126,592,l),
(162,585,o),
(191,578,o),
(195,574,cs),
(202,569,o),
(203,549,o),
(197,527,cs),
(139,307,o),
(117,217,o),
(143,312,cs),
(152,347,o),
(126,255,o),
(82,89,cs),
(76,69,o),
(65,49,o),
(55,41,cs),
(47,36,o),
(14,28,o),
(-24,23,c)
);
},
{
closed = 1;
nodes = (
(314,-3,l),
(499,-2,o),
(652,127,o),
(683,308,cs),
(714,490,o),
(600,619,o),
(407,619,c),
(389,580,l),
(523,580,o),
(611,491,o),
(603,366,cs),
(590,173,o),
(477,36,o),
(329,36,c)
);
}
);
width = 720;
},
{
anchors = (
{
name = bottom;
pos = (299,0);
},
{
name = center;
pos = (222,308);
},
{
name = top;
pos = (509,616);
}
);
background = {
anchors = (
{
name = bottom;
pos = (324,0);
},
{
name = center;
pos = (389,308);
},
{
name = ogonek;
pos = (584,10);
},
{
name = top;
pos = (492,617);
},
{
name = topleft;
pos = (143,616);
},
{
name = topright;
pos = (845,616);
}
);
shapes = (
{
closed = 1;
nodes = (
(337,-8,cs),
(510,-8,o),
(651,108,o),
(677,272,cs),
(717,481,o),
(602,628,o),
(399,628,cs),
(226,628,o),
(85,512,o),
(59,348,cs),
(19,139,o),
(134,-8,o)
);
},
{
closed = 1;
nodes = (
(214,32,o),
(117,173,o),
(137,372,cs),
(147,499,o),
(247,588,o),
(379,588,cs),
(527,588,o),
(618,447,o),
(598,248,cs),
(588,121,o),
(494,32,o),
(370,32,cs)
);
}
);
};
backgroundImage = {
imagePath = "../../Desktop/Bildschirmfoto 2024-12-24 um 13.06.05.png";
pos = (725,-1011);
scale = (-1.4,1.4);
};
color = 2;
layerId = m005;
shapes = (
{
closed = 1;
nodes = (
(-17,0,l),
(6,0,o),
(68,0,o),
(110,0,cs),
(110,0,o),
(171,1,o),
(308,-3,c),
(323,36,l),
(244,36,o),
(182,43,o),
(174,53,cs),
(168,60,o),
(167,75,o),
(171,89,cs),
(198,187,o),
(274,478,o),
(301,576,c),
(368,578,o),
(402,580,o),
(383,580,c),
(401,619,l),
(328,617,o),
(277,616,o),
(277,616,c),
(231,616,o),
(178,616,o),
(147,616,c),
(140,592,l),
(176,585,o),
(205,578,o),
(209,574,cs),
(216,569,o),
(217,549,o),
(211,527,cs),
(153,307,o),
(131,217,o),
(157,312,cs),
(166,347,o),
(140,255,o),
(96,89,cs),
(90,69,o),
(79,49,o),
(69,41,cs),
(61,36,o),
(28,28,o),
(-10,23,c)
);
},
{
closed = 1;
nodes = (
(308,-3,l),
(491,-2,o),
(644,120,o),
(677,292,cs),
(714,484,o),
(599,619,o),
(401,619,c),
(383,580,l),
(528,580,o),
(617,451,o),
(598,268,cs),
(584,132,o),
(470,36,o),
(323,36,c)
);
}
);
width = 717;
},
{
anchors = (
{
name = bottom;
pos = (298,0);
},
{
name = center;
pos = (221,308);
},
{
name = top;
pos = (508,616);
}
);
background = {
anchors = (
{
name = bottom;
pos = (323,0);
},
{
name = center;
pos = (388,308);
},
{
name = ogonek;
pos = (583,10);
},
{
name = top;
pos = (491,617);
},
{
name = topleft;
pos = (142,616);
},
{
name = topright;
pos = (844,616);
}
);
shapes = (
{
closed = 1;
nodes = (
(336,-8,cs),
(509,-8,o),
(650,108,o),
(676,272,cs),
(716,481,o),
(601,628,o),
(398,628,cs),
(225,628,o),
(84,512,o),
(58,348,cs),
(18,139,o),
(133,-8,o)
);
},
{
closed = 1;
nodes = (
(213,32,o),
(116,173,o),
(136,372,cs),
(146,499,o),
(246,588,o),
(378,588,cs),
(526,588,o),
(617,447,o),
(597,248,cs),
(587,121,o),
(493,32,o),
(369,32,cs)
);
}
);
};
backgroundImage = {
imagePath = "../../Desktop/Bildschirmfoto 2024-12-24 um 13.06.05.png";
pos = (724,-1011);
scale = (-1.4,1.4);
};
color = 2;
layerId = m006;
shapes = (
{
closed = 1;
nodes = (
(-18,0,l),
(5,0,o),
(67,0,o),
(109,0,cs),
(109,0,o),
(170,1,o),
(307,-3,c),
(322,36,l),
(243,36,o),
(181,43,o),
(173,53,cs),
(167,60,o),
(166,75,o),
(170,89,cs),
(197,187,o),
(273,478,o),
(300,576,c),
(367,578,o),
(401,580,o),
(382,580,c),
(400,619,l),
(327,617,o),
(276,616,o),
(276,616,c),
(230,616,o),
(177,616,o),
(146,616,c),
(139,592,l),
(175,585,o),
(204,578,o),
(208,574,cs),
(215,569,o),
(216,549,o),
(210,527,cs),
(152,307,o),
(130,217,o),
(156,312,cs),
(165,347,o),
(139,255,o),
(95,89,cs),
(89,69,o),
(78,49,o),
(68,41,cs),
(60,36,o),
(27,28,o),
(-11,23,c)
);
},
{
closed = 1;
nodes = (
(307,-3,l),
(490,-2,o),
(643,120,o),
(676,292,cs),
(713,484,o),
(598,619,o),
(400,619,c),
(382,580,l),
(527,580,o),
(616,451,o),
(597,268,cs),
(583,132,o),
(469,36,o),
(322,36,c)
);
}
);
width = 713;
},
{
anchors = (
{
name = bottom;
pos = (298,0);
},
{
name = center;
pos = (221,308);
},
{
name = top;
pos = (508,616);
}
);
background = {
anchors = (
{
name = bottom;
pos = (323,0);
},
{
name = center;
pos = (388,308);
},
{
name = ogonek;
pos = (583,10);
},
{
name = top;
pos = (491,617);
},
{
name = topleft;
pos = (142,616);
},
{
name = topright;
pos = (844,616);
}
);
shapes = (
{
closed = 1;
nodes = (
(336,-8,cs),
(509,-8,o),
(650,108,o),
(676,272,cs),
(716,481,o),
(601,628,o),
(398,628,cs),
(225,628,o),
(84,512,o),
(58,348,cs),
(18,139,o),
(133,-8,o)
);
},
{
closed = 1;
nodes = (
(213,32,o),
(116,173,o),
(136,372,cs),
(146,499,o),
(246,588,o),
(378,588,cs),
(526,588,o),
(617,447,o),
(597,248,cs),
(587,121,o),
(493,32,o),
(369,32,cs)
);
}
);
};
backgroundImage = {
imagePath = "../../Desktop/Bildschirmfoto 2024-12-24 um 13.06.05.png";
pos = (724,-1011);
scale = (-1.4,1.4);
};
color = 2;
layerId = m004;
shapes = (
{
closed = 1;
nodes = (
(-18,0,l),
(5,0,o),
(67,0,o),
(109,0,cs),
(109,0,o),
(170,1,o),
(307,-3,c),
(322,36,l),
(243,36,o),
(181,43,o),
(173,53,cs),
(167,60,o),
(166,75,o),
(170,89,cs),
(197,187,o),
(273,478,o),
(300,576,c),
(367,578,o),
(401,580,o),
(382,580,c),
(400,619,l),
(327,617,o),
(276,616,o),
(276,616,c),
(230,616,o),
(177,616,o),
(146,616,c),
(139,592,l),
(175,585,o),
(204,578,o),
(208,574,cs),
(215,569,o),
(216,549,o),
(210,527,cs),
(152,307,o),
(130,217,o),
(156,312,cs),
(165,347,o),
(139,255,o),
(95,89,cs),
(89,69,o),
(78,49,o),
(68,41,cs),
(60,36,o),
(27,28,o),
(-11,23,c)
);
},
{
closed = 1;
nodes = (
(307,-3,l),
(490,-2,o),
(643,120,o),
(676,292,cs),
(713,484,o),
(598,619,o),
(400,619,c),
(382,580,l),
(527,580,o),
(616,451,o),
(597,268,cs),
(583,132,o),
(469,36,o),
(322,36,c)
);
}
);
width = 713;
}
);
metricLeft = H;
metricRight = O;
unicode = 68;
},
{
glyphname = E;
lastChange = "2025-04-25 19:48:45 +0000";
layers = (
{
anchors = (
{
name = bottom;
pos = (212,0);
},
{
name = ogonek;
pos = (445,10);
},
{
name = top;
pos = (422,616);
},
{
name = topleft;
pos = (154,616);
}
);
color = 2;
guides = (
{
angle = 77.035;
lockAngle = 1;
pos = (48,-67);
}
);
layerId = m003;
shapes = (
{
closed = 1;
nodes = (
(-3,-1,o),
(45,0,o),
(90,0,c),
(233,0,o),
(381,-1,o),
(457,-3,c),
(482,44,o),
(509,110,o),
(523,157,c),
(494,157,l),
(465,90,o),
(414,43,o),
(369,40,cs),
(337,38,o),
(283,37,o),
(226,37,cs),
(192,37,o),
(167,42,o),
(159,52,cs),
(151,62,o),
(153,76,o),
(157,96,cs),
(202,265,o),
(242,416,o),
(286,576,c),
(323,578,o),
(362,578,o),
(384,578,cs),
(412,578,o),
(445,578,o),
(477,576,cs),
(502,574,o),
(517,544,o),
(512,499,c),
(538,499,l),
(550,536,o),
(567,586,o),
(584,619,c),
(518,617,o),
(385,616,o),
(264,616,c),
(215,616,o),
(163,617,o),
(135,618,c),
(127,589,l),
(160,584,o),
(183,581,o),
(195,567,cs),
(201,558,o),
(204,544,o),
(197,521,c),
(83,91,l),
(76,67,o),
(68,52,o),
(55,42,cs),
(38,29,o),
(14,26,o),
(-24,23,c),
(-30,-2,l)
);
},
{
closed = 1;
nodes = (
(391,206,l),
(403,272,o),
(428,364,o),
(450,430,c),
(428,430,l),
(426,424,o),
(417,410,o),
(408,396,c),
(382,360,o),
(353,336,o),
(293,336,cs),
(173,336,l),
(161,296,l),
(281,296,ls),
(348,296,o),
(365,274,o),
(368,242,cs),
(370,206,l)
);
}
);
width = 575;
},
{
anchors = (
{
name = bottom;
pos = (226,0);
},
{
name = ogonek;
pos = (459,10);
},
{
name = top;
pos = (436,616);
},
{
name = topleft;
pos = (168,616);
}
);
color = 2;
guides = (
{
angle = 77.035;
lockAngle = 1;
pos = (62,-67);
}
);
layerId = m005;
shapes = (
{
closed = 1;
nodes = (
(11,-1,o),
(59,0,o),
(104,0,c),
(247,0,o),
(395,-1,o),
(471,-3,c),
(496,44,o),
(523,110,o),
(537,157,c),
(508,157,l),
(479,90,o),
(428,43,o),
(383,40,cs),
(351,38,o),
(297,37,o),
(240,37,cs),
(206,37,o),
(181,42,o),
(173,52,cs),
(165,62,o),
(167,76,o),
(171,96,cs),
(216,265,o),
(256,416,o),
(300,576,c),
(337,578,o),
(376,578,o),
(398,578,cs),
(426,578,o),
(459,578,o),
(491,576,cs),
(516,574,o),
(531,544,o),
(526,499,c),
(552,499,l),
(564,536,o),
(581,586,o),
(598,619,c),
(532,617,o),
(399,616,o),
(278,616,c),
(229,616,o),
(177,617,o),
(149,618,c),
(141,589,l),
(174,584,o),
(197,581,o),
(209,567,cs),
(215,558,o),
(218,544,o),
(211,521,c),
(97,91,l),
(90,67,o),
(82,52,o),
(69,42,cs),
(52,29,o),
(28,26,o),
(-10,23,c),
(-16,-2,l)
);
},
{
closed = 1;
nodes = (
(405,206,l),
(417,272,o),
(442,364,o),
(464,430,c),
(442,430,l),
(440,424,o),
(431,410,o),
(422,396,c),
(396,360,o),
(367,336,o),
(307,336,cs),
(187,336,l),
(175,296,l),
(295,296,ls),
(362,296,o),
(379,274,o),
(382,242,cs),
(384,206,l)
);
}
);
width = 594;
},
{
anchors = (
{
name = bottom;
pos = (225,0);
},
{
name = ogonek;
pos = (458,10);
},
{
name = top;
pos = (435,616);
},
{
name = topleft;
pos = (167,616);
}
);
color = 2;
guides = (
{
angle = 77.035;
lockAngle = 1;
pos = (61,-67);
}
);
layerId = m006;
shapes = (
{
closed = 1;
nodes = (
(10,-1,o),
(58,0,o),
(103,0,c),
(246,0,o),
(394,-1,o),
(470,-3,c),
(495,44,o),
(522,110,o),
(536,157,c),
(507,157,l),
(478,90,o),
(427,43,o),
(382,40,cs),
(350,38,o),
(296,37,o),
(239,37,cs),
(205,37,o),
(180,42,o),
(172,52,cs),
(164,62,o),
(166,76,o),
(170,96,cs),
(215,265,o),
(255,416,o),
(299,576,c),
(336,578,o),
(375,578,o),
(397,578,cs),
(425,578,o),
(458,578,o),
(490,576,cs),
(515,574,o),
(530,544,o),
(525,499,c),
(551,499,l),
(563,536,o),
(580,586,o),
(597,619,c),
(531,617,o),
(398,616,o),
(277,616,c),
(228,616,o),
(176,617,o),
(148,618,c),
(140,589,l),
(173,584,o),
(196,581,o),
(208,567,cs),
(214,558,o),
(217,544,o),
(210,521,c),
(96,91,l),
(89,67,o),
(81,52,o),
(68,42,cs),
(51,29,o),
(27,26,o),
(-11,23,c),
(-17,-2,l)
);
},
{
closed = 1;
nodes = (
(404,206,l),
(416,272,o),
(441,364,o),
(463,430,c),
(441,430,l),
(439,424,o),
(430,410,o),
(421,396,c),
(395,360,o),
(366,336,o),
(306,336,cs),
(186,336,l),
(174,296,l),
(294,296,ls),
(361,296,o),
(378,274,o),
(381,242,cs),
(383,206,l)
);
}
);
width = 593;
},
{
anchors = (
{
name = bottom;
pos = (225,0);
},
{
name = ogonek;
pos = (458,10);
},
{
name = top;
pos = (435,616);
},
{
name = topleft;
pos = (167,616);
}
);
color = 2;
guides = (
{
angle = 77.035;
lockAngle = 1;
pos = (61,-67);
}
);
layerId = m004;
shapes = (
{
closed = 1;
nodes = (
(10,-1,o),
(58,0,o),
(103,0,c),
(246,0,o),
(394,-1,o),
(470,-3,c),
(495,44,o),
(522,110,o),
(536,157,c),
(507,157,l),
(478,90,o),
(427,43,o),
(382,40,cs),
(350,38,o),
(296,37,o),
(239,37,cs),
(205,37,o),
(180,42,o),
(172,52,cs),
(164,62,o),
(166,76,o),
(170,96,cs),
(215,265,o),
(255,416,o),
(299,576,c),
(336,578,o),
(375,578,o),
(397,578,cs),
(425,578,o),
(458,578,o),
(490,576,cs),
(515,574,o),
(530,544,o),
(525,499,c),
(551,499,l),
(563,536,o),
(580,586,o),
(597,619,c),
(531,617,o),
(398,616,o),
(277,616,c),
(228,616,o),
(176,617,o),
(148,618,c),
(140,589,l),
(173,584,o),
(196,581,o),
(208,567,cs),
(214,558,o),
(217,544,o),
(210,521,c),
(96,91,l),
(89,67,o),
(81,52,o),
(68,42,cs),
(51,29,o),
(27,26,o),
(-11,23,c),
(-17,-2,l)
);
},
{
closed = 1;
nodes = (
(404,206,l),
(416,272,o),
(441,364,o),
(463,430,c),
(441,430,l),
(439,424,o),
(430,410,o),
(421,396,c),
(395,360,o),
(366,336,o),
(306,336,cs),
(186,336,l),
(174,296,l),
(294,296,ls),
(361,296,o),
(378,274,o),
(381,242,cs),
(383,206,l)
);
}
);
width = 593;
}
);
metricLeft = H;
metricRight = H;
unicode = 69;
},
{
glyphname = F;
lastChange = "2025-04-25 19:48:45 +0000";
layers = (
{
anchors = (
{
name = bottom;
pos = (184,0);
},
{
name = top;
pos = (394,616);
}
);
background = {
shapes = (
{
closed = 1;
nodes = (
(-28,0,l),
(255,0,l),
(255,40,l),
(210,40,o),
(175,38,o),
(156,54,cs),
(147,62,o),
(142,73,o),
(142,91,cs),
(140,307,o),
(139,377,o),
(143,574,c),
(160,576,o),
(212,576,o),
(235,576,c),
(235,616,l),
(-28,616,l),
(-28,591,l),
(6,581,o),
(30,582,o),
(44,572,cs),
(54,565,o),
(59,552,o),
(59,525,cs),
(60,341,o),
(61,253,o),
(61,312,cs),
(61,373,o),
(60,282,o),
(59,91,cs),
(59,65,o),
(53,51,o),
(44,43,cs),
(28,29,o),
(2,31,o),
(-28,25,c)
);
}
);
};
color = 2;
layerId = m003;
shapes = (
{
closed = 1;
nodes = (
(-4,0,o),
(202,0,o),
(257,0,c),
(255,29,l),
(204,35,o),
(171,35,o),
(158,54,cs),
(152,64,o),
(151,79,o),
(158,103,cs),
(197,260,o),
(241,421,o),
(285,578,c),
(307,579,o),
(366,580,o),
(388,580,cs),
(416,580,o),
(446,580,o),
(477,578,cs),
(502,576,o),
(516,544,o),
(511,499,c),
(535,499,l),
(548,536,o),
(567,586,o),
(584,619,c),
(518,617,o),
(383,616,o),
(263,616,c),
(214,616,o),
(163,617,o),
(135,618,c),
(128,592,l),
(160,586,o),
(183,584,o),
(195,572,cs),
(202,563,o),
(204,550,o),
(197,525,cs),
(161,380,o),
(122,236,o),
(82,91,cs),
(75,67,o),
(68,53,o),
(57,44,cs),
(40,30,o),
(16,27,o),
(-25,23,c),
(-31,-1,l)
);
},
{
closed = 1;
nodes = (
(395,206,l),
(407,272,o),
(432,364,o),
(454,430,c),
(433,430,l),
(431,424,o),
(422,410,o),
(413,396,c),
(387,360,o),
(358,336,o),
(316,336,cs),
(182,336,l),
(170,296,l),
(304,296,ls),
(353,296,o),
(370,274,o),
(373,242,cs),
(375,206,l)
);
}
);
width = 488;
},
{
anchors = (
{
name = bottom;
pos = (198,0);
},
{
name = top;
pos = (408,616);
}
);
background = {
shapes = (
{
closed = 1;
nodes = (
(-14,0,l),
(269,0,l),
(269,40,l),
(224,40,o),
(189,38,o),
(170,54,cs),
(161,62,o),
(156,73,o),
(156,91,cs),
(154,307,o),
(153,377,o),
(157,574,c),
(174,576,o),
(226,576,o),
(249,576,c),
(249,616,l),
(-14,616,l),
(-14,591,l),
(20,581,o),
(44,582,o),
(58,572,cs),
(68,565,o),
(73,552,o),
(73,525,cs),
(74,341,o),
(75,253,o),
(75,312,cs),
(75,373,o),
(74,282,o),
(73,91,cs),
(73,65,o),
(67,51,o),
(58,43,cs),
(42,29,o),
(16,31,o),
(-14,25,c)
);
}
);
};
color = 2;
layerId = m005;
shapes = (
{
closed = 1;
nodes = (
(10,0,o),
(216,0,o),
(271,0,c),
(269,29,l),
(218,35,o),
(185,35,o),
(172,54,cs),
(166,64,o),
(165,79,o),
(172,103,cs),
(211,260,o),
(255,421,o),
(299,578,c),
(321,579,o),
(380,580,o),
(402,580,cs),
(430,580,o),
(460,580,o),
(491,578,cs),
(516,576,o),
(530,544,o),
(525,499,c),
(549,499,l),
(562,536,o),
(581,586,o),
(598,619,c),
(532,617,o),
(397,616,o),
(277,616,c),
(228,616,o),
(177,617,o),
(149,618,c),
(142,592,l),
(174,586,o),
(197,584,o),
(209,572,cs),
(216,563,o),
(218,550,o),
(211,525,cs),
(175,380,o),
(136,236,o),
(96,91,cs),
(89,67,o),
(82,53,o),
(71,44,cs),
(54,30,o),
(30,27,o),
(-11,23,c),
(-17,-1,l)
);
},
{
closed = 1;
nodes = (
(409,206,l),
(420,272,o),
(445,364,o),
(468,430,c),
(447,430,l),
(445,424,o),
(436,410,o),
(427,396,c),
(401,360,o),
(372,336,o),
(330,336,cs),
(196,336,l),
(184,296,l),
(318,296,ls),
(367,296,o),
(384,274,o),
(387,242,cs),
(389,206,l)
);
}
);
width = 504;
},
{
anchors = (
{
name = bottom;
pos = (197,0);
},
{
name = top;
pos = (407,616);
}
);
background = {
shapes = (
{
closed = 1;
nodes = (
(-15,0,l),
(268,0,l),
(268,40,l),
(223,40,o),
(188,38,o),
(169,54,cs),
(160,62,o),
(155,73,o),
(155,91,cs),
(153,307,o),
(152,377,o),
(156,574,c),
(173,576,o),
(225,576,o),
(248,576,c),
(248,616,l),
(-15,616,l),
(-15,591,l),
(19,581,o),
(43,582,o),
(57,572,cs),
(67,565,o),
(72,552,o),
(72,525,cs),
(73,341,o),
(74,253,o),
(74,312,cs),
(74,373,o),
(73,282,o),
(72,91,cs),
(72,65,o),
(66,51,o),
(57,43,cs),
(41,29,o),
(15,31,o),
(-15,25,c)
);
}
);
};
color = 2;
layerId = m006;
shapes = (
{
closed = 1;
nodes = (
(9,0,o),
(215,0,o),
(270,0,c),
(268,29,l),
(217,35,o),
(184,35,o),
(171,54,cs),
(165,64,o),
(164,79,o),
(171,103,cs),
(210,260,o),
(254,421,o),
(298,578,c),
(320,579,o),
(379,580,o),
(401,580,cs),
(429,580,o),
(459,580,o),
(490,578,cs),
(515,576,o),
(529,544,o),
(524,499,c),
(548,499,l),
(561,536,o),
(580,586,o),
(597,619,c),
(531,617,o),
(396,616,o),
(276,616,c),
(227,616,o),
(176,617,o),
(148,618,c),
(141,592,l),
(173,586,o),
(196,584,o),
(208,572,cs),
(215,563,o),
(217,550,o),
(210,525,cs),
(174,380,o),
(135,236,o),
(95,91,cs),
(88,67,o),
(81,53,o),
(70,44,cs),
(53,30,o),
(29,27,o),
(-12,23,c),
(-18,-1,l)
);
},
{
closed = 1;
nodes = (
(408,206,l),
(419,272,o),
(444,364,o),
(467,430,c),
(446,430,l),
(444,424,o),
(435,410,o),
(426,396,c),
(400,360,o),
(371,336,o),
(329,336,cs),
(195,336,l),
(183,296,l),
(317,296,ls),
(366,296,o),
(383,274,o),
(386,242,cs),
(388,206,l)
);
}
);
width = 505;
},
{
anchors = (
{
name = bottom;
pos = (197,0);
},
{
name = top;
pos = (407,616);
}
);
background = {
shapes = (
{
closed = 1;
nodes = (
(-15,0,l),
(268,0,l),
(268,40,l),
(223,40,o),
(188,38,o),
(169,54,cs),
(160,62,o),
(155,73,o),
(155,91,cs),
(153,307,o),
(152,377,o),
(156,574,c),
(173,576,o),
(225,576,o),
(248,576,c),
(248,616,l),
(-15,616,l),
(-15,591,l),
(19,581,o),
(43,582,o),
(57,572,cs),
(67,565,o),
(72,552,o),
(72,525,cs),
(73,341,o),
(74,253,o),
(74,312,cs),
(74,373,o),
(73,282,o),
(72,91,cs),
(72,65,o),
(66,51,o),
(57,43,cs),
(41,29,o),
(15,31,o),
(-15,25,c)
);
}
);
};
color = 2;
layerId = m004;
shapes = (
{
closed = 1;
nodes = (
(9,0,o),
(215,0,o),
(270,0,c),
(268,29,l),
(217,35,o),
(184,35,o),
(171,54,cs),
(165,64,o),
(164,79,o),
(171,103,cs),
(210,260,o),
(254,421,o),
(298,578,c),
(320,579,o),
(379,580,o),
(401,580,cs),
(429,580,o),
(459,580,o),
(490,578,cs),
(515,576,o),
(529,544,o),
(524,499,c),
(548,499,l),
(561,536,o),
(580,586,o),
(597,619,c),
(531,617,o),
(396,616,o),
(276,616,c),
(227,616,o),
(176,617,o),
(148,618,c),
(141,592,l),
(173,586,o),
(196,584,o),
(208,572,cs),
(215,563,o),
(217,550,o),
(210,525,cs),
(174,380,o),
(135,236,o),
(95,91,cs),
(88,67,o),
(81,53,o),
(70,44,cs),
(53,30,o),
(29,27,o),
(-12,23,c),
(-18,-1,l)
);
},
{
closed = 1;
nodes = (
(408,206,l),
(419,272,o),
(444,364,o),
(467,430,c),
(446,430,l),
(444,424,o),
(435,410,o),
(426,396,c),
(400,360,o),
(371,336,o),
(329,336,cs),
(195,336,l),
(183,296,l),
(317,296,ls),
(366,296,o),
(383,274,o),
(386,242,cs),
(388,206,l)
);
}
);
width = 505;
}
);
metricLeft = H;
metricRight = O;
unicode = 70;
},
{
glyphname = G;
lastChange = "2025-04-25 19:48:45 +0000";
layers = (
{
anchors = (
{
name = bottom;
pos = (299,0);
},
{
name = top;
pos = (509,616);
}
);
background = {
anchors = (
{
name = bottom;
pos = (285,0);
},
{
name = top;
pos = (495,616);
}
);
shapes = (
{
closed = 1;
nodes = (
(417,-8,o),
(512,11,o),
(573,38,c),
(582,53,o),
(611,121,o),
(644,201,c),
(612,200,l),
(566,100,o),
(463,30,o),
(364,30,cs),
(242,30,o),
(162,132,o),
(171,275,cs),
(183,471,o),
(293,610,o),
(437,610,cs),
(543,610,o),
(612,531,o),
(605,420,c),
(632,420,l),
(655,503,o),
(673,566,o),
(675,571,c),
(617,616,o),
(527,648,o),
(457,648,cs),
(275,648,o),
(125,518,o),
(94,334,cs),
(60,134,o),
(163,-8,o),
(343,-8,cs)
);
}
);
};
backgroundImage = {
imagePath = "../../Desktop/Bildschirmfoto 2024-12-23 um 19.38.00.png";
pos = (652,-876);
scale = (-1.37,1.3692);
slant = (1.9988,0);
};
color = 3;
layerId = m003;
shapes = (
{
closed = 1;
nodes = (
(429,-8,o),
(532,13,o),
(592,43,c),
(591,56,l),
(574,57,o),
(565,67,o),
(569,79,c),
(601,200,l),
(608,226,o),
(629,247,o),
(651,252,c),
(689,258,l),
(696,287,l),
(454,287,l),
(445,253,l),
(500,244,o),
(533,217,o),
(525,188,c),
(496,76,l),
(488,49,o),
(433,30,o),
(364,30,cs),
(242,30,o),
(162,132,o),
(171,275,cs),
(183,471,o),
(293,610,o),
(437,610,cs),
(544,610,o),
(613,531,o),
(604,420,c),
(632,420,l),
(653,498,o),
(671,560,o),
(675,571,c),
(616,616,o),
(526,648,o),
(457,648,cs),
(275,648,o),
(125,518,o),
(94,334,cs),
(60,134,o),
(163,-8,o),
(343,-8,cs)
);
}
);
width = 713;
},
{
anchors = (
{
name = bottom;
pos = (316,0);
},
{
name = top;
pos = (526,616);
}
);
background = {
anchors = (
{
name = bottom;
pos = (302,0);
},
{
name = top;
pos = (512,616);
}
);
shapes = (
{
closed = 1;
nodes = (
(442,-8,o),
(529,11,o),
(590,38,c),
(603,62,o),
(632,130,o),
(661,201,c),
(629,200,l),
(584,102,o),
(495,32,o),
(415,32,cs),
(259,32,o),
(162,173,o),
(182,372,cs),
(195,499,o),
(295,588,o),
(424,588,cs),
(547,588,o),
(629,510,o),
(622,400,c),
(649,400,l),
(669,472,o),
(687,535,o),
(692,551,c),
(634,596,o),
(531,628,o),
(444,628,cs),
(276,628,o),
(135,512,o),
(104,348,cs),
(64,139,o),
(179,-8,o),
(382,-8,cs)
);
}
);
};
backgroundImage = {
imagePath = "../../Desktop/Bildschirmfoto 2024-12-23 um 19.38.00.png";
pos = (669,-876);
scale = (-1.37,1.3692);
};
color = 3;
layerId = m005;
shapes = (
{
closed = 1;
nodes = (
(455,-8,o),
(549,13,o),
(609,43,c),
(608,56,l),
(591,57,o),
(582,66,o),
(586,79,c),
(618,200,l),
(625,226,o),
(645,247,o),
(668,252,c),
(706,258,l),
(713,287,l),
(471,287,l),
(462,253,l),
(517,244,o),
(550,217,o),
(542,188,c),
(513,76,l),
(505,50,o),
(465,32,o),
(415,32,cs),
(258,32,o),
(162,175,o),
(182,376,cs),
(195,500,o),
(295,588,o),
(424,588,cs),
(548,588,o),
(630,510,o),
(621,400,c),
(649,400,l),
(670,478,o),
(688,541,o),
(692,551,c),
(633,596,o),
(531,628,o),
(444,628,cs),
(276,628,o),
(135,514,o),
(104,352,cs),
(64,141,o),
(179,-8,o),
(382,-8,cs)
);
}
);
width = 744;
},
{
anchors = (
{
name = bottom;
pos = (298,0);
},
{
name = top;
pos = (508,616);
}
);
background = {
anchors = (
{
name = bottom;
pos = (284,0);
},
{
name = top;
pos = (494,616);
}
);
shapes = (
{
closed = 1;
nodes = (
(424,-8,o),
(511,11,o),
(572,38,c),
(585,62,o),
(614,130,o),
(643,201,c),
(611,200,l),
(566,102,o),
(477,32,o),
(397,32,cs),
(241,32,o),
(144,173,o),
(164,372,cs),
(177,499,o),
(277,588,o),
(406,588,cs),
(529,588,o),
(611,510,o),
(604,400,c),
(631,400,l),
(651,472,o),
(669,535,o),
(674,551,c),
(616,596,o),
(513,628,o),
(426,628,cs),
(258,628,o),
(117,512,o),
(86,348,cs),
(46,139,o),
(161,-8,o),
(364,-8,cs)
);
}
);
};
backgroundImage = {
imagePath = "../../Desktop/Bildschirmfoto 2024-12-23 um 19.38.00.png";
pos = (651,-876);
scale = (-1.37,1.3692);
};
color = 3;
layerId = m006;
shapes = (
{
closed = 1;
nodes = (
(437,-8,o),
(531,13,o),
(591,43,c),
(590,56,l),
(573,57,o),
(564,66,o),
(568,79,c),
(600,200,l),
(607,226,o),
(627,247,o),
(650,252,c),
(688,258,l),
(695,287,l),
(453,287,l),
(444,253,l),
(499,244,o),
(532,217,o),
(524,188,c),
(495,76,l),
(487,50,o),
(447,32,o),
(397,32,cs),
(240,32,o),
(144,175,o),
(164,376,cs),
(177,500,o),
(277,588,o),
(406,588,cs),
(530,588,o),
(612,510,o),
(603,400,c),
(631,400,l),
(652,478,o),
(670,541,o),
(674,551,c),
(615,596,o),
(513,628,o),
(426,628,cs),
(258,628,o),
(117,514,o),
(86,352,cs),
(46,141,o),
(161,-8,o),
(364,-8,cs)
);
}
);
width = 725;
},
{
anchors = (
{
name = bottom;
pos = (298,0);
},
{
name = top;
pos = (508,616);
}
);
background = {
anchors = (
{
name = bottom;
pos = (284,0);
},
{
name = top;
pos = (494,616);
}
);
shapes = (
{
closed = 1;
nodes = (
(424,-8,o),
(511,11,o),
(572,38,c),
(585,62,o),
(614,130,o),
(643,201,c),
(611,200,l),
(566,102,o),
(477,32,o),
(397,32,cs),
(241,32,o),
(144,173,o),
(164,372,cs),
(177,499,o),
(277,588,o),
(406,588,cs),
(529,588,o),
(611,510,o),
(604,400,c),
(631,400,l),
(651,472,o),
(669,535,o),
(674,551,c),
(616,596,o),
(513,628,o),
(426,628,cs),
(258,628,o),
(117,512,o),
(86,348,cs),
(46,139,o),
(161,-8,o),
(364,-8,cs)
);
}
);
};
backgroundImage = {
imagePath = "../../Desktop/Bildschirmfoto 2024-12-23 um 19.38.00.png";
pos = (651,-876);
scale = (-1.37,1.3692);
};
color = 3;
layerId = m004;
shapes = (
{
closed = 1;
nodes = (
(437,-8,o),
(531,13,o),
(591,43,c),
(590,56,l),
(573,57,o),
(564,66,o),
(568,79,c),
(600,200,l),
(607,226,o),
(627,247,o),
(650,252,c),
(688,258,l),
(695,287,l),
(453,287,l),
(444,253,l),
(499,244,o),
(532,217,o),
(524,188,c),
(495,76,l),
(487,50,o),
(447,32,o),
(397,32,cs),
(240,32,o),
(144,175,o),
(164,376,cs),
(177,500,o),
(277,588,o),
(406,588,cs),
(530,588,o),
(612,510,o),
(603,400,c),
(631,400,l),
(652,478,o),
(670,541,o),
(674,551,c),
(615,596,o),
(513,628,o),
(426,628,cs),
(258,628,o),
(117,514,o),
(86,352,cs),
(46,141,o),
(161,-8,o),
(364,-8,cs)
);
}
);
width = 725;
}
);
metricLeft = O;
metricRight = O;
unicode = 71;
},
{
glyphname = H;
lastChange = "2025-05-17 05:29:58 +0000";
layers = (
{
anchors = (
{
name = bottom;
pos = (313,0);
},
{
name = center;
pos = (470,462);
},
{
name = top;
pos = (523,616);
},
{
name = topleft;
pos = (150,616);
}
);
background = {
shapes = (
{
closed = 1;
nodes = (
(130,609,l,{
"Letterink-NibData" = {
AngleInDegrees = "0";
};
}),
(126,616,l,{
"Letterink-NibData" = {
AngleInDegrees = "360";
};
}),
(57,576,l),
(57,7,l,{
"Letterink-NibData" = {
AngleInDegrees = "360";
};
}),
(61,0,l,{
"Letterink-NibData" = {
AngleInDegrees = "360";
};
}),
(130,40,l),
(130,304,l),
(544,304,l),
(544,7,l,{
"Letterink-NibData" = {
AngleInDegrees = "360";
};
}),
(548,0,l,{
"Letterink-NibData" = {
AngleInDegrees = "360";
};
}),
(618,40,l),
(618,609,l,{
"Letterink-NibData" = {
AngleInDegrees = "0";
};
}),
(614,616,l,{
"Letterink-NibData" = {
AngleInDegrees = "359.99999";
};
}),
(544,576,l),
(544,351,l),
(130,351,l)
);
},
{
closed = 0;
nodes = (
(202,616,l),
(202,591,l),
(174,583,o),
(156,576,o),
(145,564,cs),
(136,553,o),
(132,538,o),
(132,512,cs)
);
}
);
};
color = 1;
layerId = m003;
shapes = (
{
closed = 1;
nodes = (
(46,2,o),
(147,2,o),
(237,0,c),
(245,23,l),
(216,31,o),
(174,37,o),
(167,49,cs),
(159,59,o),
(149,75,o),
(156,102,cs),
(174,176,o),
(194,250,o),
(211,326,cs),
(225,389,o),
(246,452,o),
(264,514,cs),
(272,541,o),
(291,560,o),
(303,567,cs),
(327,582,o),
(362,585,o),
(395,593,c),
(401,616,l),
(310,614,o),
(210,614,o),
(121,616,c),
(115,593,l),
(145,587,o),
(184,574,o),
(192,562,cs),
(198,551,o),
(200,540,o),
(193,514,cs),
(178,452,o),
(159,390,o),
(144,327,cs),
(126,251,o),
(105,176,o),
(85,102,cs),
(78,76,o),
(70,61,o),
(58,50,cs),
(43,38,o),
(-14,31,o),
(-38,23,c),
(-44,0,l)
);
},
{
closed = 1;
nodes = (
(507,2,o),
(604,2,o),
(694,0,c),
(700,23,l),
(681,29,o),
(639,38,o),
(632,50,cs),
(624,60,o),
(620,75,o),
(627,102,cs),
(645,177,o),
(666,253,o),
(686,330,cs),
(702,391,o),
(720,453,o),
(737,514,cs),
(744,541,o),
(750,556,o),
(764,567,cs),
(778,579,o),
(830,588,o),
(853,593,c),
(859,616,l),
(768,614,o),
(670,614,o),
(581,616,c),
(575,593,l),
(605,585,o),
(643,576,o),
(657,566,cs),
(669,557,o),
(673,540,o),
(666,514,cs),
(651,453,o),
(634,390,o),
(618,329,cs),
(598,252,o),
(581,176,o),
(556,102,cs),
(544,66,o),
(531,58,o),
(511,44,cs),
(493,31,o),
(459,28,o),
(425,23,c),
(417,0,l)
);
},
{
closed = 1;
nodes = (
(631,304,l),
(645,349,l),
(196,349,l),
(184,304,l)
);
}
);
width = 764;
},
{
anchors = (
{
name = bottom;
pos = (345,0);
},
{
name = center;
pos = (502,462);
},
{
name = top;
pos = (555,616);
},
{
name = topleft;
pos = (182,616);
}
);
background = {
shapes = (
{
closed = 1;
nodes = (
(78,2,o),
(179,2,o),
(269,0,c),
(277,23,l),
(248,31,o),
(206,37,o),
(199,49,cs),
(191,59,o),
(181,75,o),
(188,102,cs),
(206,176,o),
(226,250,o),
(243,326,cs),
(257,389,o),
(278,452,o),
(296,514,cs),
(304,541,o),
(323,560,o),
(335,567,cs),
(359,582,o),
(394,585,o),
(427,593,c),
(433,616,l),
(342,614,o),
(242,614,o),
(153,616,c),
(147,593,l),
(177,587,o),
(216,574,o),
(224,562,cs),
(230,551,o),
(232,540,o),
(225,514,cs),
(210,452,o),
(191,390,o),
(176,327,cs),
(158,251,o),
(137,176,o),
(117,102,cs),
(110,76,o),
(102,61,o),
(90,50,cs),
(75,38,o),
(18,31,o),
(-6,23,c),
(-12,0,l)
);
},
{
closed = 1;
nodes = (
(539,2,o),
(636,2,o),
(726,0,c),
(732,23,l),
(713,29,o),
(671,38,o),
(664,50,cs),
(656,60,o),
(652,75,o),
(659,102,cs),
(677,177,o),
(698,253,o),
(718,330,cs),
(734,391,o),
(752,453,o),
(769,514,cs),
(776,541,o),
(782,556,o),
(796,567,cs),
(810,579,o),
(862,588,o),
(885,593,c),
(891,616,l),
(800,614,o),
(702,614,o),
(613,616,c),
(607,593,l),
(637,585,o),
(675,576,o),
(689,566,cs),
(701,557,o),
(705,540,o),
(698,514,cs),
(683,453,o),
(666,390,o),
(650,329,cs),
(630,252,o),
(613,176,o),
(588,102,cs),
(576,66,o),
(563,58,o),
(543,44,cs),
(525,31,o),
(491,28,o),
(457,23,c),
(449,0,l)
);
},
{
closed = 1;
nodes = (
(663,304,l),
(677,349,l),
(228,349,l),
(216,304,l)
);
}
);
};
color = 1;
layerId = m005;
shapes = (
{
closed = 1;
nodes = (
(74,0,o),
(177,0,o),
(280,0,c),
(286,24,l),
(249,27,o),
(219,28,o),
(208,45,cs),
(202,54,o),
(200,68,o),
(205,90,c),
(226,170,o),
(241,249,o),
(262,329,cs),
(280,398,o),
(303,466,o),
(321,535,c),
(329,557,o),
(339,571,o),
(353,580,cs),
(374,594,o),
(403,597,o),
(438,601,c),
(445,626,l),
(342,626,o),
(239,626,o),
(136,626,c),
(130,603,l),
(167,599,o),
(199,595,o),
(211,573,cs),
(216,564,o),
(217,552,o),
(213,535,c),
(195,467,o),
(178,398,o),
(160,330,cs),
(139,251,o),
(119,172,o),
(98,93,c),
(92,73,o),
(83,59,o),
(72,50,cs),
(49,30,o),
(17,27,o),
(-23,24,c),
(-29,0,l)
);
},
{
closed = 1;
nodes = (
(543,0,o),
(646,0,o),
(749,0,c),
(755,24,l),
(718,27,o),
(688,28,o),
(677,45,cs),
(671,54,o),
(669,68,o),
(674,90,c),
(695,171,o),
(716,252,o),
(737,333,cs),
(755,400,o),
(772,468,o),
(790,535,c),
(798,557,o),
(808,571,o),
(822,580,cs),
(843,594,o),
(872,597,o),
(907,601,c),
(914,626,l),
(811,626,o),
(708,626,o),
(605,626,c),
(599,603,l),
(636,599,o),
(668,595,o),
(680,573,cs),
(685,564,o),
(686,552,o),
(682,535,c),
(664,467,o),
(652,398,o),
(634,330,cs),
(613,251,o),
(588,172,o),
(567,93,c),
(561,73,o),
(552,59,o),
(541,50,cs),
(518,30,o),
(486,27,o),
(446,24,c),
(440,0,l)
);
},
{
closed = 1;
nodes = (
(663,304,l),
(677,349,l),
(228,349,l),
(216,304,l)
);
}
);
width = 828;
},
{
anchors = (
{
name = bottom;
pos = (326,0);
},
{
name = center;
pos = (483,462);
},
{
name = top;
pos = (536,616);
},
{
name = topleft;
pos = (163,616);
}
);
background = {
shapes = (
{
closed = 1;
nodes = (
(143,609,l,{
"Letterink-NibData" = {
AngleInDegrees = "0";
};
}),
(139,616,l,{
"Letterink-NibData" = {
AngleInDegrees = "360";
};
}),
(70,576,l),
(70,7,l,{
"Letterink-NibData" = {
AngleInDegrees = "360";
};
}),
(74,0,l,{
"Letterink-NibData" = {
AngleInDegrees = "360";
};
}),
(143,40,l),
(143,304,l),
(557,304,l),
(557,7,l,{
"Letterink-NibData" = {
AngleInDegrees = "360";
};
}),
(561,0,l,{
"Letterink-NibData" = {
AngleInDegrees = "360";
};
}),
(631,40,l),
(631,609,l,{
"Letterink-NibData" = {
AngleInDegrees = "0";
};
}),
(627,616,l,{
"Letterink-NibData" = {
AngleInDegrees = "359.99999";
};
}),
(557,576,l),
(557,351,l),
(143,351,l)
);
},
{
closed = 0;
nodes = (
(215,616,l),
(215,591,l),
(187,583,o),
(169,576,o),
(158,564,cs),
(149,553,o),
(145,538,o),
(145,512,cs)
);
}
);
};
color = 1;
layerId = m006;
shapes = (
{
closed = 1;
nodes = (
(59,2,o),
(160,2,o),
(250,0,c),
(258,23,l),
(229,31,o),
(187,37,o),
(180,49,cs),
(172,59,o),
(162,75,o),
(169,102,cs),
(187,176,o),
(207,250,o),
(224,326,cs),
(238,389,o),
(259,452,o),
(277,514,cs),
(285,541,o),
(304,560,o),
(316,567,cs),
(340,582,o),
(375,585,o),
(408,593,c),
(414,616,l),
(323,614,o),
(223,614,o),
(134,616,c),
(128,593,l),
(158,587,o),
(197,574,o),
(205,562,cs),
(211,551,o),
(213,540,o),
(206,514,cs),
(191,452,o),
(172,390,o),
(157,327,cs),
(139,251,o),
(118,176,o),
(98,102,cs),
(91,76,o),
(83,61,o),
(71,50,cs),
(56,38,o),
(-1,31,o),
(-25,23,c),
(-31,0,l)
);
},
{
closed = 1;
nodes = (
(520,2,o),
(617,2,o),
(707,0,c),
(713,23,l),
(694,29,o),
(652,38,o),
(645,50,cs),
(637,60,o),
(633,75,o),
(640,102,cs),
(658,177,o),
(679,253,o),
(699,330,cs),
(715,391,o),
(733,453,o),
(750,514,cs),
(757,541,o),
(763,556,o),
(777,567,cs),
(791,579,o),
(843,588,o),
(866,593,c),
(872,616,l),
(781,614,o),
(683,614,o),
(594,616,c),
(588,593,l),
(618,585,o),
(656,576,o),
(670,566,cs),
(682,557,o),
(686,540,o),
(679,514,cs),
(664,453,o),
(647,390,o),
(631,329,cs),
(611,252,o),
(594,176,o),
(569,102,cs),
(557,66,o),
(544,58,o),
(524,44,cs),
(506,31,o),
(472,28,o),
(438,23,c),
(430,0,l)
);
},
{
closed = 1;
nodes = (
(644,304,l),
(658,349,l),
(209,349,l),
(197,304,l)
);
}
);
width = 780;
},
{
anchors = (
{
name = bottom;
pos = (326,0);
},
{
name = center;
pos = (483,462);
},
{
name = top;
pos = (536,616);
},
{
name = topleft;
pos = (163,616);
}
);
background = {
shapes = (
{
closed = 1;
nodes = (
(143,609,l,{
"Letterink-NibData" = {
AngleInDegrees = "0";
};
}),
(139,616,l,{
"Letterink-NibData" = {
AngleInDegrees = "360";
};
}),
(70,576,l),
(70,7,l,{
"Letterink-NibData" = {
AngleInDegrees = "360";
};
}),
(74,0,l,{
"Letterink-NibData" = {
AngleInDegrees = "360";
};
}),
(143,40,l),
(143,304,l),
(557,304,l),
(557,7,l,{
"Letterink-NibData" = {
AngleInDegrees = "360";
};
}),
(561,0,l,{
"Letterink-NibData" = {
AngleInDegrees = "360";
};
}),
(631,40,l),
(631,609,l,{
"Letterink-NibData" = {
AngleInDegrees = "0";
};
}),
(627,616,l,{
"Letterink-NibData" = {
AngleInDegrees = "359.99999";
};
}),
(557,576,l),
(557,351,l),
(143,351,l)
);
},
{
closed = 0;
nodes = (
(215,616,l),
(215,591,l),
(187,583,o),
(169,576,o),
(158,564,cs),
(149,553,o),
(145,538,o),
(145,512,cs)
);
}
);
};
color = 1;
layerId = m004;
shapes = (
{
closed = 1;
nodes = (
(59,2,o),
(160,2,o),
(250,0,c),
(258,23,l),
(229,31,o),
(187,37,o),
(180,49,cs),
(172,59,o),
(162,75,o),
(169,102,cs),
(187,176,o),
(207,250,o),
(224,326,cs),
(238,389,o),
(259,452,o),
(277,514,cs),
(285,541,o),
(304,560,o),
(316,567,cs),
(340,582,o),
(375,585,o),
(408,593,c),
(414,616,l),
(323,614,o),
(223,614,o),
(134,616,c),
(128,593,l),
(158,587,o),
(197,574,o),
(205,562,cs),
(211,551,o),
(213,540,o),
(206,514,cs),
(191,452,o),
(172,390,o),
(157,327,cs),
(139,251,o),
(118,176,o),
(98,102,cs),
(91,76,o),
(83,61,o),
(71,50,cs),
(56,38,o),
(-1,31,o),
(-25,23,c),
(-31,0,l)
);
},
{
closed = 1;
nodes = (
(520,2,o),
(617,2,o),
(707,0,c),
(713,23,l),
(694,29,o),
(652,38,o),
(645,50,cs),
(637,60,o),
(633,75,o),
(640,102,cs),
(658,177,o),
(679,253,o),
(699,330,cs),
(715,391,o),
(733,453,o),
(750,514,cs),
(757,541,o),
(763,556,o),
(777,567,cs),
(791,579,o),
(843,588,o),
(866,593,c),
(872,616,l),
(781,614,o),
(683,614,o),
(594,616,c),
(588,593,l),
(618,585,o),
(656,576,o),
(670,566,cs),
(682,557,o),
(686,540,o),
(679,514,cs),
(664,453,o),
(647,390,o),
(631,329,cs),
(611,252,o),
(594,176,o),
(569,102,cs),
(557,66,o),
(544,58,o),
(524,44,cs),
(506,31,o),
(472,28,o),
(438,23,c),
(430,0,l)
);
},
{
closed = 1;
nodes = (
(644,304,l),
(658,349,l),
(209,349,l),
(197,304,l)
);
}
);
width = 780;
}
);
note = H;
unicode = 72;
},
{
glyphname = I;
lastChange = "2025-05-17 05:16:43 +0000";
layers = (
{
anchors = (
{
name = bottom;
pos = (79,0);
},
{
name = ogonek;
pos = (209,10);
},
{
name = top;
pos = (264,616);
},
{
name = topleft;
pos = (150,616);
}
);
color = 1;
layerId = m003;
shapes = (
{
closed = 1;
nodes = (
(-43,0,l),
(226,0,l),
(232,24,l),
(190,28,o),
(163,35,o),
(155,42,cs),
(146,51,o),
(146,68,o),
(151,90,c),
(267,525,l),
(273,547,o),
(286,565,o),
(308,575,cs),
(322,581,o),
(348,587,o),
(384,591,c),
(391,616,l),
(122,616,l),
(116,593,l),
(158,589,o),
(186,582,o),
(195,573,cs),
(203,564,o),
(204,547,o),
(199,525,c),
(84,93,l),
(78,68,o),
(66,50,o),
(53,43,cs),
(40,34,o),
(8,27,o),
(-37,24,c)
);
}
);
width = 292;
},
{
anchors = (
{
name = bottom;
pos = (75,0);
},
{
name = ogonek;
pos = (205,10);
},
{
name = top;
pos = (260,616);
},
{
name = topleft;
pos = (146,616);
}
);
background = {
shapes = (
{
closed = 1;
nodes = (
(-7,10,l),
(262,10,l),
(268,34,l),
(226,38,o),
(199,45,o),
(191,52,cs),
(182,61,o),
(182,78,o),
(187,100,c),
(303,535,l),
(309,557,o),
(322,575,o),
(344,585,cs),
(358,591,o),
(384,597,o),
(420,601,c),
(427,626,l),
(158,626,l),
(152,603,l),
(194,599,o),
(222,592,o),
(231,583,cs),
(239,574,o),
(240,557,o),
(235,535,c),
(120,103,l),
(114,78,o),
(102,60,o),
(89,53,cs),
(76,44,o),
(44,37,o),
(-1,34,c)
);
}
);
};
color = 1;
layerId = m005;
shapes = (
{
closed = 1;
nodes = (
(-47,0,l),
(262,0,l),
(268,24,l),
(231,27,o),
(201,28,o),
(190,45,cs),
(184,54,o),
(182,68,o),
(187,90,c),
(303,535,l),
(311,557,o),
(321,571,o),
(335,580,cs),
(356,594,o),
(385,597,o),
(420,601,c),
(427,626,l),
(118,626,l),
(112,603,l),
(149,599,o),
(181,595,o),
(193,573,cs),
(198,564,o),
(199,552,o),
(195,535,c),
(80,93,l),
(74,73,o),
(65,59,o),
(54,50,cs),
(31,30,o),
(-1,27,o),
(-41,24,c)
);
}
);
width = 324;
},
{
anchors = (
{
name = bottom;
pos = (91,0);
},
{
name = ogonek;
pos = (221,10);
},
{
name = top;
pos = (276,616);
},
{
name = topleft;
pos = (162,616);
}
);
color = 1;
layerId = m006;
shapes = (
{
closed = 1;
nodes = (
(-31,0,l),
(238,0,l),
(244,24,l),
(202,28,o),
(175,35,o),
(167,42,cs),
(158,51,o),
(158,68,o),
(163,90,c),
(279,525,l),
(285,547,o),
(298,565,o),
(320,575,cs),
(334,581,o),
(360,587,o),
(396,591,c),
(403,616,l),
(134,616,l),
(128,593,l),
(170,589,o),
(198,582,o),
(207,573,cs),
(215,564,o),
(216,547,o),
(211,525,c),
(96,93,l),
(90,68,o),
(78,50,o),
(65,43,cs),
(52,34,o),
(20,27,o),
(-25,24,c)
);
}
);
width = 308;
},
{
anchors = (
{
name = bottom;
pos = (91,0);
},
{
name = ogonek;
pos = (221,10);
},
{
name = top;
pos = (276,616);
},
{
name = topleft;
pos = (162,616);
}
);
color = 1;
layerId = m004;
shapes = (
{
closed = 1;
nodes = (
(-31,0,l),
(238,0,l),
(244,24,l),
(202,28,o),
(175,35,o),
(167,42,cs),
(158,51,o),
(158,68,o),
(163,90,c),
(279,525,l),
(285,547,o),
(298,565,o),
(320,575,cs),
(334,581,o),
(360,587,o),
(396,591,c),
(403,616,l),
(134,616,l),
(128,593,l),
(170,589,o),
(198,582,o),
(207,573,cs),
(215,564,o),
(216,547,o),
(211,525,c),
(96,93,l),
(90,68,o),
(78,50,o),
(65,43,cs),
(52,34,o),
(20,27,o),
(-25,24,c)
);
}
);
width = 308;
}
);
metricLeft = H;
metricRight = H;
note = I;
unicode = 73;
},
{
glyphname = J;
lastChange = "2025-04-25 19:53:25 +0000";
layers = (
{
anchors = (
{
name = bottom;
pos = (52,0);
},
{
name = top;
pos = (262,616);
}
);
color = 1;
layerId = m003;
shapes = (
{
closed = 1;
nodes = (
(-91,-232,o),
(-28,-188,o),
(0,-164,cs),
(66,-108,o),
(136,29,o),
(165,148,cs),
(215,341,o),
(213,332,o),
(265,525,cs),
(273,555,o),
(278,569,o),
(293,577,cs),
(309,584,o),
(332,585,o),
(368,591,c),
(375,616,l),
(123,616,l),
(116,591,l),
(150,587,o),
(183,586,o),
(196,574,cs),
(204,565,o),
(205,551,o),
(198,525,cs),
(81,81,ls),
(68,33,o),
(23,-90,o),
(-19,-138,cs),
(-30,-150,o),
(-40,-157,o),
(-52,-157,cs),
(-72,-158,o),
(-68,-135,o),
(-87,-134,cs),
(-120,-134,o),
(-151,-163,o),
(-161,-205,cs),
(-166,-220,o),
(-151,-232,o),
(-125,-232,cs)
);
}
);
width = 252;
},
{
anchors = (
{
name = bottom;
pos = (66,0);
},
{
name = top;
pos = (276,616);
}
);
color = 1;
layerId = m005;
shapes = (
{
closed = 1;
nodes = (
(-77,-232,o),
(-14,-188,o),
(14,-164,cs),
(80,-108,o),
(150,29,o),
(179,148,cs),
(229,341,o),
(227,332,o),
(279,525,cs),
(287,555,o),
(292,569,o),
(307,577,cs),
(323,584,o),
(346,585,o),
(382,591,c),
(389,616,l),
(137,616,l),
(130,591,l),
(164,587,o),
(197,586,o),
(210,574,cs),
(218,565,o),
(219,551,o),
(212,525,cs),
(95,81,ls),
(82,33,o),
(37,-90,o),
(-5,-138,cs),
(-16,-150,o),
(-26,-157,o),
(-38,-157,cs),
(-58,-158,o),
(-54,-135,o),
(-73,-134,cs),
(-106,-134,o),
(-137,-163,o),
(-147,-205,cs),
(-152,-220,o),
(-137,-232,o),
(-111,-232,cs)
);
}
);
width = 301;
},
{
anchors = (
{
name = bottom;
pos = (64,0);
},
{
name = top;
pos = (274,616);
}
);
color = 1;
layerId = m006;
shapes = (
{
closed = 1;
nodes = (
(-79,-232,o),
(-16,-188,o),
(12,-164,cs),
(78,-108,o),
(148,29,o),
(177,148,cs),
(227,341,o),
(225,332,o),
(277,525,cs),
(285,555,o),
(290,569,o),
(305,577,cs),
(321,584,o),
(344,585,o),
(380,591,c),
(387,616,l),
(135,616,l),
(128,591,l),
(162,587,o),
(195,586,o),
(208,574,cs),
(216,565,o),
(217,551,o),
(210,525,cs),
(93,81,ls),
(80,33,o),
(35,-90,o),
(-7,-138,cs),
(-18,-150,o),
(-28,-157,o),
(-40,-157,cs),
(-60,-158,o),
(-56,-135,o),
(-75,-134,cs),
(-108,-134,o),
(-139,-163,o),
(-149,-205,cs),
(-154,-220,o),
(-139,-232,o),
(-113,-232,cs)
);
}
);
width = 296;
},
{
anchors = (
{
name = bottom;
pos = (64,0);
},
{
name = top;
pos = (274,616);
}
);
color = 1;
layerId = m004;
shapes = (
{
closed = 1;
nodes = (
(-79,-232,o),
(-16,-188,o),
(12,-164,cs),
(78,-108,o),
(148,29,o),
(177,148,cs),
(227,341,o),
(225,332,o),
(277,525,cs),
(285,555,o),
(290,569,o),
(305,577,cs),
(321,584,o),
(344,585,o),
(380,591,c),
(387,616,l),
(135,616,l),
(128,591,l),
(162,587,o),
(195,586,o),
(208,574,cs),
(216,565,o),
(217,551,o),
(210,525,cs),
(93,81,ls),
(80,33,o),
(35,-90,o),
(-7,-138,cs),
(-18,-150,o),
(-28,-157,o),
(-40,-157,cs),
(-60,-158,o),
(-56,-135,o),
(-75,-134,cs),
(-108,-134,o),
(-139,-163,o),
(-149,-205,cs),
(-154,-220,o),
(-139,-232,o),
(-113,-232,cs)
);
}
);
width = 296;
}
);
metricLeft = H;
metricRight = H;
unicode = 74;
},
{
glyphname = K;
lastChange = "2025-04-25 19:48:45 +0000";
layers = (
{
anchors = (
{
name = bottom;
pos = (241,0);
},
{
name = top;
pos = (451,616);
}
);
background = {
shapes = (
{
closed = 0;
nodes = (
(423,91,l),
(423,55,o),
(417,41,o),
(396,31,cs),
(385,26,o),
(367,25,o),
(340,18,c),
(340,0,l),
(585,0,l),
(585,18,l),
(539,31,o),
(516,33,o),
(507,51,cs),
(503,60,o),
(501,73,o),
(501,91,c)
);
},
{
closed = 0;
nodes = (
(445,525,l),
(445,561,o),
(451,575,o),
(472,585,cs),
(483,590,o),
(501,591,o),
(528,598,c),
(528,616,l),
(283,616,l),
(283,598,l),
(329,585,o),
(352,583,o),
(361,565,cs),
(365,556,o),
(367,543,o),
(367,525,cs)
);
}
);
};
color = 2;
layerId = m003;
shapes = (
{
closed = 1;
nodes = (
(-31,0,l),
(221,0,l),
(226,18,l),
(193,26,o),
(166,31,o),
(156,38,cs),
(147,46,o),
(140,58,o),
(149,91,cs),
(165,156,o),
(238,424,o),
(265,525,cs),
(273,556,o),
(283,571,o),
(299,579,cs),
(315,587,o),
(347,594,o),
(380,596,c),
(385,616,l),
(133,616,l),
(127,592,l),
(175,585,o),
(196,581,o),
(200,563,cs),
(201,554,o),
(202,543,o),
(197,525,cs),
(161,382,o),
(122,234,o),
(82,91,cs),
(75,66,o),
(65,52,o),
(53,44,cs),
(36,33,o),
(14,31,o),
(-24,25,c)
);
},
{
closed = 1;
nodes = (
(502,503,l),
(531,527,o),
(559,548,o),
(589,564,cs),
(618,580,o),
(649,592,o),
(686,598,c),
(691,616,l),
(467,616,l),
(462,598,l),
(485,593,o),
(505,580,o),
(499,557,cs),
(495,543,o),
(471,526,o),
(449,505,c),
(160,267,l),
(175,240,l)
);
},
{
closed = 1;
nodes = (
(586,18,l),
(527,34,o),
(494,42,o),
(457,93,c),
(293,356,l),
(234,301,l),
(284,217,o),
(374,72,o),
(393,40,cs),
(414,8,o),
(437,-4,o),
(480,-3,cs),
(581,0,l)
);
},
{
closed = 0;
nodes = (
(530,535,l)
);
}
);
width = 643;
},
{
anchors = (
{
name = bottom;
pos = (255,0);
},
{
name = top;
pos = (465,616);
}
);
background = {
shapes = (
{
closed = 0;
nodes = (
(437,91,l),
(437,55,o),
(431,41,o),
(410,31,cs),
(399,26,o),
(381,25,o),
(354,18,c),
(354,0,l),
(599,0,l),
(599,18,l),
(553,31,o),
(530,33,o),
(521,51,cs),
(517,60,o),
(515,73,o),
(515,91,c)
);
},
{
closed = 0;
nodes = (
(459,525,l),
(459,561,o),
(465,575,o),
(486,585,cs),
(497,590,o),
(515,591,o),
(542,598,c),
(542,616,l),
(297,616,l),
(297,598,l),
(343,585,o),
(366,583,o),
(375,565,cs),
(379,556,o),
(381,543,o),
(381,525,cs)
);
}
);
};
color = 2;
layerId = m005;
shapes = (
{
closed = 1;
nodes = (
(-17,0,l),
(235,0,l),
(240,18,l),
(207,27,o),
(178,29,o),
(168,36,cs),
(159,44,o),
(154,58,o),
(163,91,cs),
(179,156,o),
(252,424,o),
(279,525,cs),
(287,556,o),
(298,572,o),
(313,581,cs),
(329,590,o),
(361,594,o),
(394,598,c),
(399,616,l),
(147,616,l),
(141,592,l),
(189,585,o),
(212,583,o),
(216,565,cs),
(217,556,o),
(216,543,o),
(211,525,cs),
(175,382,o),
(136,234,o),
(96,91,cs),
(89,66,o),
(81,52,o),
(69,44,cs),
(52,33,o),
(28,33,o),
(-10,25,c)
);
},
{
closed = 1;
nodes = (
(516,503,l),
(562,540,o),
(616,574,o),
(646,586,cs),
(663,592,o),
(694,597,o),
(700,598,c),
(705,616,l),
(481,616,l),
(476,598,l),
(499,593,o),
(519,580,o),
(513,557,cs),
(509,543,o),
(485,526,o),
(463,505,c),
(174,267,l),
(189,240,l)
);
},
{
closed = 1;
nodes = (
(600,18,l),
(541,34,o),
(508,42,o),
(471,93,c),
(307,356,l),
(248,301,l),
(298,217,o),
(388,72,o),
(407,40,cs),
(428,8,o),
(451,-4,o),
(494,-3,cs),
(595,0,l)
);
}
);
width = 658;
},
{
anchors = (
{
name = bottom;
pos = (254,0);
},
{
name = top;
pos = (464,616);
}
);
background = {
shapes = (
{
closed = 0;
nodes = (
(436,91,l),
(436,55,o),
(430,41,o),
(409,31,cs),
(398,26,o),
(380,25,o),
(353,18,c),
(353,0,l),
(598,0,l),
(598,18,l),
(552,31,o),
(529,33,o),
(520,51,cs),
(516,60,o),
(514,73,o),
(514,91,c)
);
},
{
closed = 0;
nodes = (
(458,525,l),
(458,561,o),
(464,575,o),
(485,585,cs),
(496,590,o),
(514,591,o),
(541,598,c),
(541,616,l),
(296,616,l),
(296,598,l),
(342,585,o),
(365,583,o),
(374,565,cs),
(378,556,o),
(380,543,o),
(380,525,cs)
);
}
);
};
color = 2;
layerId = m006;
shapes = (
{
closed = 1;
nodes = (
(-18,0,l),
(234,0,l),
(239,18,l),
(206,27,o),
(177,29,o),
(167,36,cs),
(158,44,o),
(153,58,o),
(162,91,cs),
(178,156,o),
(251,424,o),
(278,525,cs),
(286,556,o),
(297,572,o),
(312,581,cs),
(328,590,o),
(360,594,o),
(393,598,c),
(398,616,l),
(146,616,l),
(140,592,l),
(188,585,o),
(211,583,o),
(215,565,cs),
(216,556,o),
(215,543,o),
(210,525,cs),
(174,382,o),
(135,234,o),
(95,91,cs),
(88,66,o),
(80,52,o),
(68,44,cs),
(51,33,o),
(27,33,o),
(-11,25,c)
);
},
{
closed = 1;
nodes = (
(515,503,l),
(561,540,o),
(615,574,o),
(645,586,cs),
(662,592,o),
(693,597,o),
(699,598,c),
(704,616,l),
(480,616,l),
(475,598,l),
(498,593,o),
(518,580,o),
(512,557,cs),
(508,543,o),
(484,526,o),
(462,505,c),
(173,267,l),
(188,240,l)
);
},
{
closed = 1;
nodes = (
(599,18,l),
(540,34,o),
(507,42,o),
(470,93,c),
(306,356,l),
(247,301,l),
(297,217,o),
(387,72,o),
(406,40,cs),
(427,8,o),
(450,-4,o),
(493,-3,cs),
(594,0,l)
);
}
);
width = 618;
},
{
anchors = (
{
name = bottom;
pos = (254,0);
},
{
name = top;
pos = (464,616);
}
);
background = {
shapes = (
{
closed = 0;
nodes = (
(436,91,l),
(436,55,o),
(430,41,o),
(409,31,cs),
(398,26,o),
(380,25,o),
(353,18,c),
(353,0,l),
(598,0,l),
(598,18,l),
(552,31,o),
(529,33,o),
(520,51,cs),
(516,60,o),
(514,73,o),
(514,91,c)
);
},
{
closed = 0;
nodes = (
(458,525,l),
(458,561,o),
(464,575,o),
(485,585,cs),
(496,590,o),
(514,591,o),
(541,598,c),
(541,616,l),
(296,616,l),
(296,598,l),
(342,585,o),
(365,583,o),
(374,565,cs),
(378,556,o),
(380,543,o),
(380,525,cs)
);
}
);
};
color = 2;
layerId = m004;
shapes = (
{
closed = 1;
nodes = (
(-18,0,l),
(234,0,l),
(239,18,l),
(206,27,o),
(177,29,o),
(167,36,cs),
(158,44,o),
(153,58,o),
(162,91,cs),
(178,156,o),
(251,424,o),
(278,525,cs),
(286,556,o),
(297,572,o),
(312,581,cs),
(328,590,o),
(360,594,o),
(393,598,c),
(398,616,l),
(146,616,l),
(140,592,l),
(188,585,o),
(211,583,o),
(215,565,cs),
(216,556,o),
(215,543,o),
(210,525,cs),
(174,382,o),
(135,234,o),
(95,91,cs),
(88,66,o),
(80,52,o),
(68,44,cs),
(51,33,o),
(27,33,o),
(-11,25,c)
);
},
{
closed = 1;
nodes = (
(515,503,l),
(561,540,o),
(615,574,o),
(645,586,cs),
(662,592,o),
(693,597,o),
(699,598,c),
(704,616,l),
(480,616,l),
(475,598,l),
(498,593,o),
(518,580,o),
(512,557,cs),
(508,543,o),
(484,526,o),
(462,505,c),
(173,267,l),
(188,240,l)
);
},
{
closed = 1;
nodes = (
(599,18,l),
(540,34,o),
(507,42,o),
(470,93,c),
(306,356,l),
(247,301,l),
(297,217,o),
(387,72,o),
(406,40,cs),
(427,8,o),
(450,-4,o),
(493,-3,cs),
(594,0,l)
);
}
);
width = 618;
}
);
metricLeft = H;
unicode = 75;
},
{
glyphname = L;
lastChange = "2025-04-25 19:48:45 +0000";
layers = (
{
anchors = (
{
name = bottom;
pos = (229,0);
},
{
name = center;
pos = (334,308);
},
{
name = top;
pos = (439,616);
},
{
name = topright;
pos = (723,616);
}
);
color = 2;
layerId = m003;
shapes = (
{
closed = 1;
nodes = (
(-32,-3,l),
(59,-1,o),
(139,0,o),
(219,0,c),
(229,41,l),
(169,41,o),
(145,54,o),
(158,105,cs),
(190,234,o),
(211,318,o),
(267,517,cs),
(277,553,o),
(283,567,o),
(306,577,cs),
(318,582,o),
(347,585,o),
(378,588,c),
(385,616,l),
(135,616,l),
(129,592,l),
(162,587,o),
(184,585,o),
(195,576,cs),
(204,568,o),
(204,554,o),
(197,525,cs),
(162,382,o),
(122,234,o),
(81,91,cs),
(73,63,o),
(66,53,o),
(53,44,cs),
(38,34,o),
(16,29,o),
(-25,23,c)
);
},
{
closed = 1;
nodes = (
(281,2,o),
(392,1,o),
(460,-3,c),
(525,102,o),
(574,177,o),
(574,177,c),
(551,189,l),
(514,139,o),
(470,100,o),
(424,75,cs),
(385,53,o),
(315,41,o),
(229,41,c),
(219,0,l)
);
}
);
width = 612;
},
{
anchors = (
{
name = bottom;
pos = (243,0);
},
{
name = center;
pos = (348,308);
},
{
name = top;
pos = (453,616);
},
{
name = topright;
pos = (737,616);
}
);
color = 2;
layerId = m005;
shapes = (
{
closed = 1;
nodes = (
(-18,-3,l),
(73,-1,o),
(153,0,o),
(233,0,c),
(243,41,l),
(183,43,o),
(156,43,o),
(172,105,cs),
(204,234,o),
(225,318,o),
(281,517,cs),
(291,553,o),
(297,567,o),
(320,577,cs),
(332,582,o),
(361,585,o),
(392,588,c),
(399,616,l),
(149,616,l),
(143,592,l),
(176,587,o),
(198,585,o),
(209,576,cs),
(218,568,o),
(218,554,o),
(211,525,cs),
(176,382,o),
(136,234,o),
(95,91,cs),
(87,63,o),
(80,49,o),
(67,40,cs),
(52,30,o),
(30,29,o),
(-11,23,c)
);
},
{
closed = 1;
nodes = (
(295,2,o),
(406,1,o),
(474,-3,c),
(539,102,o),
(588,177,o),
(588,177,c),
(565,189,l),
(528,139,o),
(484,100,o),
(438,75,cs),
(367,36,o),
(307,41,o),
(243,41,c),
(233,0,l)
);
}
);
width = 630;
},
{
anchors = (
{
name = bottom;
pos = (242,0);
},
{
name = center;
pos = (347,308);
},
{
name = top;
pos = (452,616);
},
{
name = topright;
pos = (736,616);
}
);
color = 2;
layerId = m006;
shapes = (
{
closed = 1;
nodes = (
(-19,-3,l),
(72,-1,o),
(152,0,o),
(232,0,c),
(242,41,l),
(182,43,o),
(155,43,o),
(171,105,cs),
(203,234,o),
(224,318,o),
(280,517,cs),
(290,553,o),
(296,567,o),
(319,577,cs),
(331,582,o),
(360,585,o),
(391,588,c),
(398,616,l),
(148,616,l),
(142,592,l),
(175,587,o),
(197,585,o),
(208,576,cs),
(217,568,o),
(217,554,o),
(210,525,cs),
(175,382,o),
(135,234,o),
(94,91,cs),
(86,63,o),
(79,49,o),
(66,40,cs),
(51,30,o),
(29,29,o),
(-12,23,c)
);
},
{
closed = 1;
nodes = (
(294,2,o),
(405,1,o),
(473,-3,c),
(538,102,o),
(587,177,o),
(587,177,c),
(564,189,l),
(527,139,o),
(483,100,o),
(437,75,cs),
(366,36,o),
(306,41,o),
(242,41,c),
(232,0,l)
);
}
);
width = 603;
},
{
anchors = (
{
name = bottom;
pos = (242,0);
},
{
name = center;
pos = (347,308);
},
{
name = top;
pos = (452,616);
},
{
name = topright;
pos = (736,616);
}
);
color = 2;
layerId = m004;
shapes = (
{
closed = 1;
nodes = (
(-19,-3,l),
(72,-1,o),
(152,0,o),
(232,0,c),
(242,41,l),
(182,43,o),
(155,43,o),
(171,105,cs),
(203,234,o),
(224,318,o),
(280,517,cs),
(290,553,o),
(296,567,o),
(319,577,cs),
(331,582,o),
(360,585,o),
(391,588,c),
(398,616,l),
(148,616,l),
(142,592,l),
(175,587,o),
(197,585,o),
(208,576,cs),
(217,568,o),
(217,554,o),
(210,525,cs),
(175,382,o),
(135,234,o),
(94,91,cs),
(86,63,o),
(79,49,o),
(66,40,cs),
(51,30,o),
(29,29,o),
(-12,23,c)
);
},
{
closed = 1;
nodes = (
(294,2,o),
(405,1,o),
(473,-3,c),
(538,102,o),
(587,177,o),
(587,177,c),
(564,189,l),
(527,139,o),
(483,100,o),
(437,75,cs),
(366,36,o),
(306,41,o),
(242,41,c),
(232,0,l)
);
}
);
width = 603;
}
);
metricLeft = H;
metricRight = H;
unicode = 76;
},
{
glyphname = M;
lastChange = "2025-04-25 19:48:45 +0000";
layers = (
{
anchors = (
{
name = bottom;
pos = (378,0);
},
{
name = top;
pos = (588,616);
}
);
backgroundImage = {
imagePath = "../../Desktop/Bildschirmfoto 2024-12-24 um 15.40.08.png";
pos = (799,-1015);
scale = (-1.3983,1.4017);
slant = (-2.0049,0);
};
color = 1;
layerId = m003;
shapes = (
{
closed = 1;
nodes = (
(808,586,l),
(787,616,l),
(399,107,l),
(414,117,l),
(317,616,l),
(151,616,l),
(144,591,l),
(191,587,ls),
(219,584,o),
(244,565,o),
(249,540,cs),
(351,-16,l)
);
},
{
closed = 1;
nodes = (
(203,0,l),
(210,25,l),
(176,33,o),
(129,40,o),
(122,52,cs),
(116,63,o),
(115,79,o),
(123,105,cs),
(265,561,l),
(232,591,l),
(83,105,ls),
(75,78,o),
(65,60,o),
(54,51,cs),
(39,39,o),
(1,33,o),
(-24,25,c),
(-31,0,l)
);
},
{
closed = 1;
nodes = (
(797,0,l),
(804,25,l),
(766,33,o),
(733,41,o),
(727,51,cs),
(716,65,o),
(722,82,o),
(728,104,cs),
(756,216,o),
(803,401,o),
(836,529,cs),
(841,544,o),
(847,556,o),
(860,566,cs),
(874,578,o),
(904,586,o),
(936,591,c),
(943,616,l),
(787,616,l),
(658,104,ls),
(651,80,o),
(647,63,o),
(631,50,cs),
(610,34,o),
(571,27,o),
(552,25,c),
(545,0,l)
);
}
);
width = 864;
},
{
anchors = (
{
name = bottom;
pos = (392,0);
},
{
name = top;
pos = (602,616);
}
);
backgroundImage = {
imagePath = "../../Desktop/Bildschirmfoto 2024-12-24 um 15.40.08.png";
pos = (813,-1015);
scale = (-1.3983,1.4017);
};
color = 1;
layerId = m005;
shapes = (
{
closed = 1;
nodes = (
(822,586,l),
(801,616,l),
(413,107,l),
(418,117,l),
(327,616,l),
(165,616,l),
(158,591,l),
(205,587,ls),
(233,584,o),
(258,565,o),
(263,540,cs),
(365,-16,l)
);
},
{
closed = 1;
nodes = (
(217,0,l),
(224,25,l),
(190,33,o),
(143,40,o),
(136,52,cs),
(130,63,o),
(129,79,o),
(137,105,cs),
(279,561,l),
(246,591,l),
(97,105,ls),
(89,78,o),
(79,60,o),
(68,51,cs),
(53,39,o),
(15,33,o),
(-10,25,c),
(-17,0,l)
);
},
{
closed = 1;
nodes = (
(811,0,l),
(818,25,l),
(780,33,o),
(747,41,o),
(741,51,cs),
(730,65,o),
(736,82,o),
(742,104,cs),
(770,216,o),
(817,401,o),
(850,529,cs),
(855,544,o),
(861,556,o),
(874,566,cs),
(888,578,o),
(918,586,o),
(950,591,c),
(957,616,l),
(801,616,l),
(672,104,ls),
(665,80,o),
(661,63,o),
(645,50,cs),
(624,34,o),
(585,27,o),
(566,25,c),
(559,0,l)
);
}
);
width = 892;
},
{
anchors = (
{
name = bottom;
pos = (391,0);
},
{
name = top;
pos = (601,616);
}
);
backgroundImage = {
imagePath = "../../Desktop/Bildschirmfoto 2024-12-24 um 15.40.08.png";
pos = (812,-1015);
scale = (-1.3983,1.4017);
};
color = 1;
layerId = m006;
shapes = (
{
closed = 1;
nodes = (
(821,586,l),
(800,616,l),
(412,107,l),
(417,117,l),
(326,616,l),
(164,616,l),
(157,591,l),
(204,587,ls),
(232,584,o),
(257,565,o),
(262,540,cs),
(364,-16,l)
);
},
{
closed = 1;
nodes = (
(216,0,l),
(223,25,l),
(189,33,o),
(142,40,o),
(135,52,cs),
(129,63,o),
(128,79,o),
(136,105,cs),
(278,561,l),
(245,591,l),
(96,105,ls),
(88,78,o),
(78,60,o),
(67,51,cs),
(52,39,o),
(14,33,o),
(-11,25,c),
(-18,0,l)
);
},
{
closed = 1;
nodes = (
(810,0,l),
(817,25,l),
(779,33,o),
(746,41,o),
(740,51,cs),
(729,65,o),
(735,82,o),
(741,104,cs),
(769,216,o),
(816,401,o),
(849,529,cs),
(854,544,o),
(860,556,o),
(873,566,cs),
(887,578,o),
(917,586,o),
(949,591,c),
(956,616,l),
(800,616,l),
(671,104,ls),
(664,80,o),
(660,63,o),
(644,50,cs),
(623,34,o),
(584,27,o),
(565,25,c),
(558,0,l)
);
}
);
width = 881;
},
{
anchors = (
{
name = bottom;
pos = (391,0);
},
{
name = top;
pos = (601,616);
}
);
backgroundImage = {
imagePath = "../../Desktop/Bildschirmfoto 2024-12-24 um 15.40.08.png";
pos = (812,-1015);
scale = (-1.3983,1.4017);
};
color = 1;
layerId = m004;
shapes = (
{
closed = 1;
nodes = (
(821,586,l),
(800,616,l),
(412,107,l),
(417,117,l),
(326,616,l),
(164,616,l),
(157,591,l),
(204,587,ls),
(232,584,o),
(257,565,o),
(262,540,cs),
(364,-16,l)
);
},
{
closed = 1;
nodes = (
(216,0,l),
(223,25,l),
(189,33,o),
(142,40,o),
(135,52,cs),
(129,63,o),
(128,79,o),
(136,105,cs),
(278,561,l),
(245,591,l),
(96,105,ls),
(88,78,o),
(78,60,o),
(67,51,cs),
(52,39,o),
(14,33,o),
(-11,25,c),
(-18,0,l)
);
},
{
closed = 1;
nodes = (
(810,0,l),
(817,25,l),
(779,33,o),
(746,41,o),
(740,51,cs),
(729,65,o),
(735,82,o),
(741,104,cs),
(769,216,o),
(816,401,o),
(849,529,cs),
(854,544,o),
(860,556,o),
(873,566,cs),
(887,578,o),
(917,586,o),
(949,591,c),
(956,616,l),
(800,616,l),
(671,104,ls),
(664,80,o),
(660,63,o),
(644,50,cs),
(623,34,o),
(584,27,o),
(565,25,c),
(558,0,l)
);
}
);
width = 881;
}
);
metricLeft = H;
metricRight = H;
unicode = 77;
},
{
glyphname = N;
lastChange = "2025-04-25 19:48:45 +0000";
layers = (
{
anchors = (
{
name = bottom;
pos = (303,0);
},
{
name = top;
pos = (513,616);
}
);
color = 1;
layerId = m003;
shapes = (
{
closed = 1;
nodes = (
(596,-8,l),
(640,160,o),
(716,443,o),
(735,512,c),
(695,512,l),
(584,97,l),
(597,106,l),
(254,616,l),
(134,616,l),
(127,591,l),
(149,587,o),
(172,570,o),
(183,557,cs),
(197,541,o),
(217,514,o),
(217,514,c),
(570,-8,l)
);
},
{
closed = 1;
nodes = (
(202,0,l),
(209,25,l),
(173,28,o),
(135,35,o),
(126,52,cs),
(117,68,o),
(120,78,o),
(127,104,c),
(87,104,l),
(80,77,o),
(75,70,o),
(58,56,cs),
(36,39,o),
(-2,33,o),
(-25,25,c),
(-32,0,l)
);
},
{
closed = 1;
nodes = (
(127,104,l),
(249,561,l),
(216,591,l),
(87,104,l)
);
},
{
closed = 1;
nodes = (
(735,512,l),
(743,542,o),
(752,556,o),
(767,565,cs),
(781,575,o),
(802,581,o),
(828,588,c),
(835,616,l),
(619,616,l),
(612,591,l),
(657,584,o),
(675,579,o),
(687,565,cs),
(695,554,o),
(703,541,o),
(695,512,c)
);
}
);
width = 747;
},
{
anchors = (
{
name = bottom;
pos = (317,0);
},
{
name = top;
pos = (527,616);
}
);
color = 1;
layerId = m005;
shapes = (
{
closed = 1;
nodes = (
(610,-8,l),
(654,160,o),
(730,443,o),
(749,512,c),
(709,512,l),
(598,97,l),
(611,106,l),
(268,616,l),
(148,616,l),
(141,591,l),
(163,587,o),
(186,570,o),
(197,557,cs),
(211,541,o),
(231,514,o),
(231,514,c),
(584,-8,l)
);
},
{
closed = 1;
nodes = (
(216,0,l),
(223,25,l),
(187,28,o),
(149,35,o),
(140,52,cs),
(131,68,o),
(134,78,o),
(141,104,c),
(101,104,l),
(94,77,o),
(89,70,o),
(72,56,cs),
(50,39,o),
(12,33,o),
(-11,25,c),
(-18,0,l)
);
},
{
closed = 1;
nodes = (
(141,104,l),
(263,561,l),
(230,591,l),
(101,104,l)
);
},
{
closed = 1;
nodes = (
(749,512,l),
(757,542,o),
(766,556,o),
(781,565,cs),
(795,575,o),
(816,581,o),
(842,588,c),
(849,616,l),
(633,616,l),
(626,591,l),
(671,584,o),
(689,579,o),
(701,565,cs),
(709,554,o),
(717,541,o),
(709,512,c)
);
}
);
width = 773;
},
{
anchors = (
{
name = bottom;
pos = (315,0);
},
{
name = top;
pos = (525,616);
}
);
color = 1;
layerId = m006;
shapes = (
{
closed = 1;
nodes = (
(608,-8,l),
(652,160,o),
(728,443,o),
(747,512,c),
(707,512,l),
(596,97,l),
(609,106,l),
(266,616,l),
(146,616,l),
(139,591,l),
(161,587,o),
(184,570,o),
(195,557,cs),
(209,541,o),
(229,514,o),
(229,514,c),
(582,-8,l)
);
},
{
closed = 1;
nodes = (
(214,0,l),
(221,25,l),
(185,28,o),
(147,35,o),
(138,52,cs),
(129,68,o),
(132,78,o),
(139,104,c),
(99,104,l),
(92,77,o),
(87,70,o),
(70,56,cs),
(48,39,o),
(10,33,o),
(-13,25,c),
(-20,0,l)
);
},
{
closed = 1;
nodes = (
(139,104,l),
(261,561,l),
(228,591,l),
(99,104,l)
);
},
{
closed = 1;
nodes = (
(747,512,l),
(755,542,o),
(764,556,o),
(779,565,cs),
(793,575,o),
(814,581,o),
(840,588,c),
(847,616,l),
(631,616,l),
(624,591,l),
(669,584,o),
(687,579,o),
(699,565,cs),
(707,554,o),
(715,541,o),
(707,512,c)
);
}
);
width = 763;
},
{
anchors = (
{
name = bottom;
pos = (315,0);
},
{
name = top;
pos = (525,616);
}
);
color = 1;
layerId = m004;
shapes = (
{
closed = 1;
nodes = (
(608,-8,l),
(652,160,o),
(728,443,o),
(747,512,c),
(707,512,l),
(596,97,l),
(609,106,l),
(266,616,l),
(146,616,l),
(139,591,l),
(161,587,o),
(184,570,o),
(195,557,cs),
(209,541,o),
(229,514,o),
(229,514,c),
(582,-8,l)
);
},
{
closed = 1;
nodes = (
(214,0,l),
(221,25,l),
(185,28,o),
(147,35,o),
(138,52,cs),
(129,68,o),
(132,78,o),
(139,104,c),
(99,104,l),
(92,77,o),
(87,70,o),
(70,56,cs),
(48,39,o),
(10,33,o),
(-13,25,c),
(-20,0,l)
);
},
{
closed = 1;
nodes = (
(139,104,l),
(261,561,l),
(228,591,l),
(99,104,l)
);
},
{
closed = 1;
nodes = (
(747,512,l),
(755,542,o),
(764,556,o),
(779,565,cs),
(793,575,o),
(814,581,o),
(840,588,c),
(847,616,l),
(631,616,l),
(624,591,l),
(669,584,o),
(687,579,o),
(699,565,cs),
(707,554,o),
(715,541,o),
(707,512,c)
);
}
);
width = 763;
}
);
metricLeft = H;
metricRight = H;
unicode = 78;
},
{
glyphname = O;
lastChange = "2025-04-25 19:48:45 +0000";
layers = (
{
anchors = (
{
name = bottom;
pos = (243,0);
},
{
name = center;
pos = (308,308);
},
{
name = ogonek;
pos = (503,10);
},
{
name = top;
pos = (473,617);
},
{
name = topleft;
pos = (62,616);
},
{
name = topright;
pos = (764,616);
}
);
background = {
shapes = (
{
closed = 1;
nodes = (
(526,-8,o),
(676,123,o),
(706,308,cs),
(740,507,o),
(637,648,o),
(457,648,cs),
(275,648,o),
(125,518,o),
(94,334,cs),
(61,134,o),
(164,-8,o),
(343,-8,cs)
);
},
{
closed = 1;
nodes = (
(249,30,o),
(163,139,o),
(171,275,cs),
(182,462,o),
(300,610,o),
(437,610,cs),
(551,610,o),
(635,502,o),
(626,366,cs),
(616,179,o),
(500,30,o),
(364,30,cs)
);
}
);
};
color = 4;
layerId = m003;
shapes = (
{
closed = 1;
nodes = (
(526,-8,o),
(676,123,o),
(706,308,cs),
(740,507,o),
(637,648,o),
(457,648,cs),
(275,648,o),
(125,518,o),
(94,334,cs),
(61,134,o),
(164,-8,o),
(343,-8,cs)
);
},
{
closed = 1;
nodes = (
(249,30,o),
(163,139,o),
(171,275,cs),
(182,462,o),
(300,610,o),
(437,610,cs),
(551,610,o),
(635,502,o),
(626,366,cs),
(616,179,o),
(500,30,o),
(364,30,cs)
);
}
);
width = 735;
},
{
anchors = (
{
name = bottom;
pos = (249,0);
},
{
name = center;
pos = (314,308);
},
{
name = ogonek;
pos = (509,10);
},
{
name = top;
pos = (417,617);
},
{
name = topleft;
pos = (68,616);
},
{
name = topright;
pos = (770,616);
}
);
background = {
shapes = (
{
closed = 1;
nodes = (
(589,111,o),
(644,209,o),
(647,323,c,{
"Letterink-NibData" = {
AngleInDegrees = "359.99999";
};
}),
(644,395,o),
(633,434,o),
(603,483,cs,{
"Letterink-NibData" = {
AngleInDegrees = "0";
};
}),
(542,582,o),
(456,633,o),
(352,633,cs),
(303,633,o),
(255,621,o),
(214,597,cs,{
"Letterink-NibData" = {
AngleInDegrees = "359.99999";
};
}),
(144,557,ls,{
"Letterink-NibData" = {
AngleInDegrees = "359.99999";
};
}),
(118,542,o),
(66,495,o),
(49,471,cs,{
"Letterink-NibData" = {
AngleInDegrees = "360";
};
}),
(9,415,o),
(-9,359,o),
(-9,290,cs),
(-9,121,o),
(126,-21,o),
(286,-21,cs),
(335,-21,o),
(387,-7,o),
(431,19,cs,{
"Letterink-NibData" = {
AngleInDegrees = "360";
};
}),
(500,59,ls,{
"Letterink-NibData" = {
AngleInDegrees = "0";
};
})
);
},
{
closed = 1;
nodes = (
(425,32,o),
(393,26,o),
(352,26,cs),
(278,26,o),
(195,61,o),
(150,111,cs,{
"Letterink-NibData" = {
AngleInDegrees = "360";
};
}),
(138,123,o),
(125,141,o),
(105,168,c,{
"Letterink-NibData" = {
AngleInDegrees = "359.99999";
};
}),
(74,236,o),
(64,271,o),
(64,323,cs),
(64,425,o),
(102,501,o),
(186,566,c,{
"Letterink-NibData" = {
AngleInDegrees = "0";
};
}),
(228,583,o),
(244,586,o),
(286,586,cs),
(391,586,o),
(472,538,o),
(536,438,c,{
"Letterink-NibData" = {
AngleInDegrees = "359.99999";
};
}),
(563,389,o),
(574,347,o),
(574,289,cs,{
"Letterink-NibData" = {
AngleInDegrees = "359.99999";
};
}),
(572,192,o),
(529,102,o),
(458,47,c,{
"Letterink-NibData" = {
AngleInDegrees = "0";
};
})
);
}
);
};
color = 4;
layerId = m005;
shapes = (
{
closed = 1;
nodes = (
(372,-8,cs),
(531,-8,o),
(677,116,o),
(702,272,cs),
(740,470,o),
(621,628,o),
(434,628,cs),
(275,628,o),
(129,504,o),
(104,348,cs),
(66,150,o),
(185,-8,o)
);
},
{
closed = 1;
nodes = (
(262,32,o),
(163,183,o),
(182,372,cs),
(191,492,o),
(294,588,o),
(414,588,cs),
(549,588,o),
(642,437,o),
(623,248,cs),
(614,128,o),
(517,32,o),
(405,32,cs)
);
}
);
width = 748;
},
{
anchors = (
{
name = bottom;
pos = (236,0);
},
{
name = center;
pos = (301,308);
},
{
name = ogonek;
pos = (496,10);
},
{
name = top;
pos = (404,617);
},
{
name = topleft;
pos = (55,616);
},
{
name = topright;
pos = (757,616);
}
);
background = {
shapes = (
{
closed = 1;
nodes = (
(576,111,o),
(631,209,o),
(634,323,c,{
"Letterink-NibData" = {
AngleInDegrees = "359.99999";
};
}),
(631,395,o),
(620,434,o),
(590,483,cs,{
"Letterink-NibData" = {
AngleInDegrees = "0";
};
}),
(529,582,o),
(443,633,o),
(339,633,cs),
(290,633,o),
(242,621,o),
(201,597,cs,{
"Letterink-NibData" = {
AngleInDegrees = "359.99999";
};
}),
(131,557,ls,{
"Letterink-NibData" = {
AngleInDegrees = "359.99999";
};
}),
(105,542,o),
(53,495,o),
(36,471,cs,{
"Letterink-NibData" = {
AngleInDegrees = "360";
};
}),
(-4,415,o),
(-22,359,o),
(-22,290,cs),
(-22,121,o),
(113,-21,o),
(273,-21,cs),
(322,-21,o),
(374,-7,o),
(418,19,cs,{
"Letterink-NibData" = {
AngleInDegrees = "360";
};
}),
(487,59,ls,{
"Letterink-NibData" = {
AngleInDegrees = "0";
};
})
);
},
{
closed = 1;
nodes = (
(412,32,o),
(380,26,o),
(339,26,cs),
(265,26,o),
(182,61,o),
(137,111,cs,{
"Letterink-NibData" = {
AngleInDegrees = "360";
};
}),
(125,123,o),
(112,141,o),
(92,168,c,{
"Letterink-NibData" = {
AngleInDegrees = "359.99999";
};
}),
(61,236,o),
(51,271,o),
(51,323,cs),
(51,425,o),
(89,501,o),
(173,566,c,{
"Letterink-NibData" = {
AngleInDegrees = "0";
};
}),
(215,583,o),
(231,586,o),
(273,586,cs),
(378,586,o),
(459,538,o),
(523,438,c,{
"Letterink-NibData" = {
AngleInDegrees = "359.99999";
};
}),
(550,389,o),
(561,347,o),
(561,289,cs,{
"Letterink-NibData" = {
AngleInDegrees = "359.99999";
};
}),
(559,192,o),
(516,102,o),
(445,47,c,{
"Letterink-NibData" = {
AngleInDegrees = "0";
};
})
);
}
);
};
color = 4;
layerId = m006;
shapes = (
{
closed = 1;
nodes = (
(359,-8,cs),
(518,-8,o),
(664,116,o),
(689,272,cs),
(727,470,o),
(608,628,o),
(421,628,cs),
(262,628,o),
(116,504,o),
(91,348,cs),
(53,150,o),
(172,-8,o)
);
},
{
closed = 1;
nodes = (
(249,32,o),
(150,183,o),
(169,372,cs),
(178,492,o),
(281,588,o),
(401,588,cs),
(536,588,o),
(629,437,o),
(610,248,cs),
(601,128,o),
(504,32,o),
(392,32,cs)
);
}
);
width = 732;
},
{
anchors = (
{
name = bottom;
pos = (236,0);
},
{
name = center;
pos = (301,308);
},
{
name = ogonek;
pos = (496,10);
},
{
name = top;
pos = (404,617);
},
{
name = topleft;
pos = (55,616);
},
{
name = topright;
pos = (757,616);
}
);
background = {
shapes = (
{
closed = 1;
nodes = (
(576,111,o),
(631,209,o),
(634,323,c,{
"Letterink-NibData" = {
AngleInDegrees = "359.99999";
};
}),
(631,395,o),
(620,434,o),
(590,483,cs,{
"Letterink-NibData" = {
AngleInDegrees = "0";
};
}),
(529,582,o),
(443,633,o),
(339,633,cs),
(290,633,o),
(242,621,o),
(201,597,cs,{
"Letterink-NibData" = {
AngleInDegrees = "359.99999";
};
}),
(131,557,ls,{
"Letterink-NibData" = {
AngleInDegrees = "359.99999";
};
}),
(105,542,o),
(53,495,o),
(36,471,cs,{
"Letterink-NibData" = {
AngleInDegrees = "360";
};
}),
(-4,415,o),
(-22,359,o),
(-22,290,cs),
(-22,121,o),
(113,-21,o),
(273,-21,cs),
(322,-21,o),
(374,-7,o),
(418,19,cs,{
"Letterink-NibData" = {
AngleInDegrees = "360";
};
}),
(487,59,ls,{
"Letterink-NibData" = {
AngleInDegrees = "0";
};
})
);
},
{
closed = 1;
nodes = (
(412,32,o),
(380,26,o),
(339,26,cs),
(265,26,o),
(182,61,o),
(137,111,cs,{
"Letterink-NibData" = {
AngleInDegrees = "360";
};
}),
(125,123,o),
(112,141,o),
(92,168,c,{
"Letterink-NibData" = {
AngleInDegrees = "359.99999";
};
}),
(61,236,o),
(51,271,o),
(51,323,cs),
(51,425,o),
(89,501,o),
(173,566,c,{
"Letterink-NibData" = {
AngleInDegrees = "0";
};
}),
(215,583,o),
(231,586,o),
(273,586,cs),
(378,586,o),
(459,538,o),
(523,438,c,{
"Letterink-NibData" = {
AngleInDegrees = "359.99999";
};
}),
(550,389,o),
(561,347,o),
(561,289,cs,{
"Letterink-NibData" = {
AngleInDegrees = "359.99999";
};
}),
(559,192,o),
(516,102,o),
(445,47,c,{
"Letterink-NibData" = {
AngleInDegrees = "0";
};
})
);
}
);
};
color = 4;
layerId = m004;
shapes = (
{
closed = 1;
nodes = (
(359,-8,cs),
(518,-8,o),
(664,116,o),
(689,272,cs),
(727,470,o),
(608,628,o),
(421,628,cs),
(262,628,o),
(116,504,o),
(91,348,cs),
(53,150,o),
(172,-8,o)
);
},
{
closed = 1;
nodes = (
(249,32,o),
(150,183,o),
(169,372,cs),
(178,492,o),
(281,588,o),
(401,588,cs),
(536,588,o),
(629,437,o),
(610,248,cs),
(601,128,o),
(504,32,o),
(392,32,cs)
);
}
);
width = 732;
},
{
anchors = (
{
name = bottom;
pos = (226,0);
},
{
name = center;
pos = (291,308);
},
{
name = ogonek;
pos = (486,10);
},
{
name = top;
pos = (394,617);
},
{
name = topleft;
pos = (45,616);
},
{
name = topright;
pos = (747,616);
}
);
associatedMasterId = m003;
background = {
shapes = (
{
closed = 1;
nodes = (
(566,111,o),
(621,209,o),
(624,323,c,{
"Letterink-NibData" = {
AngleInDegrees = "359.99999";
};
}),
(621,395,o),
(610,434,o),
(580,483,cs,{
"Letterink-NibData" = {
AngleInDegrees = "0";
};
}),
(519,582,o),
(433,633,o),
(329,633,cs),
(280,633,o),
(232,621,o),
(191,597,cs,{
"Letterink-NibData" = {
AngleInDegrees = "359.99999";
};
}),
(121,557,ls,{
"Letterink-NibData" = {
AngleInDegrees = "359.99999";
};
}),
(95,542,o),
(43,495,o),
(26,471,cs,{
"Letterink-NibData" = {
AngleInDegrees = "360";
};
}),
(-14,415,o),
(-32,359,o),
(-32,290,cs),
(-32,121,o),
(103,-21,o),
(263,-21,cs),
(312,-21,o),
(364,-7,o),
(408,19,cs,{
"Letterink-NibData" = {
AngleInDegrees = "360";
};
}),
(477,59,ls,{
"Letterink-NibData" = {
AngleInDegrees = "0";
};
})
);
},
{
closed = 1;
nodes = (
(402,32,o),
(370,26,o),
(329,26,cs),
(255,26,o),
(172,61,o),
(127,111,cs,{
"Letterink-NibData" = {
AngleInDegrees = "360";
};
}),
(115,123,o),
(102,141,o),
(82,168,c,{
"Letterink-NibData" = {
AngleInDegrees = "359.99999";
};
}),
(51,236,o),
(41,271,o),
(41,323,cs),
(41,425,o),
(79,501,o),
(163,566,c,{
"Letterink-NibData" = {
AngleInDegrees = "0";
};
}),
(205,583,o),
(221,586,o),
(263,586,cs),
(368,586,o),
(449,538,o),
(513,438,c,{
"Letterink-NibData" = {
AngleInDegrees = "359.99999";
};
}),
(540,389,o),
(551,347,o),
(551,289,cs,{
"Letterink-NibData" = {
AngleInDegrees = "359.99999";
};
}),
(549,192,o),
(506,102,o),
(435,47,c,{
"Letterink-NibData" = {
AngleInDegrees = "0";
};
})
);
}
);
};
color = 4;
layerId = "FF25EAEE-72E0-4662-A40E-DAF0E28FD9E2";
name = "17. Apr. 25, 07:35";
shapes = (
{
closed = 1;
nodes = (
(349,-8,cs),
(508,-8,o),
(654,116,o),
(679,272,cs),
(717,470,o),
(598,628,o),
(411,628,cs),
(252,628,o),
(106,504,o),
(81,348,cs),
(43,150,o),
(162,-8,o)
);
},
{
closed = 1;
nodes = (
(239,32,o),
(140,183,o),
(159,372,cs),
(168,492,o),
(271,588,o),
(391,588,cs),
(526,588,o),
(619,437,o),
(600,248,cs),
(591,128,o),
(494,32,o),
(382,32,cs)
);
}
);
width = 702;
}
);
note = O;
unicode = 79;
},
{
glyphname = P;
lastChange = "2025-04-25 19:48:45 +0000";
layers = (
{
anchors = (
{
name = bottom;
pos = (181,0);
},
{
name = top;
pos = (391,616);
}
);
background = {
anchors = (
{
name = bottom;
pos = (232,0);
},
{
name = center;
pos = (90,154);
},
{
name = top;
pos = (232,616);
}
);
shapes = (
{
closed = 1;
nodes = (
(-28,0,l),
(255,0,l),
(255,40,l),
(210,40,o),
(175,38,o),
(156,54,cs),
(147,62,o),
(142,73,o),
(142,91,cs),
(140,307,o),
(139,377,o),
(143,574,c),
(160,576,o),
(212,576,o),
(235,576,c),
(235,616,l),
(-28,616,l),
(-28,591,l),
(6,581,o),
(30,582,o),
(44,572,cs),
(54,565,o),
(59,552,o),
(59,525,cs),
(60,341,o),
(61,253,o),
(61,312,cs),
(61,373,o),
(60,282,o),
(59,91,cs),
(59,65,o),
(53,51,o),
(44,43,cs),
(28,29,o),
(2,31,o),
(-28,25,c)
);
},
{
closed = 1;
nodes = (
(129,318,o),
(141,318,o),
(169,318,cs),
(325,318,o),
(428,378,o),
(428,481,cs),
(428,560,o),
(348,616,o),
(235,616,c),
(235,576,l),
(296,576,o),
(339,529,o),
(339,462,cs),
(339,387,o),
(270,348,o),
(162,348,cs),
(102,348,l),
(103,318,l)
);
}
);
};
color = 2;
layerId = m003;
shapes = (
{
closed = 1;
nodes = (
(247,271,o),
(259,271,o),
(274,271,cs),
(404,271,o),
(510,353,o),
(530,468,cs),
(545,558,o),
(489,620,o),
(395,618,c),
(367,587,l),
(419,587,o),
(454,533,o),
(451,456,cs),
(448,364,o),
(365,299,o),
(250,299,c),
(243,272,l)
);
},
{
closed = 1;
nodes = (
(239,0,l),
(245,21,l),
(197,32,o),
(161,43,o),
(158,47,cs),
(152,54,o),
(153,79,o),
(161,111,cs),
(185,205,o),
(236,405,o),
(288,586,c),
(367,587,l),
(395,618,l),
(331,617,o),
(275,616,o),
(262,616,c),
(226,616,o),
(165,617,o),
(116,618,c),
(108,590,l),
(150,583,o),
(185,570,o),
(191,559,cs),
(198,549,o),
(199,529,o),
(194,510,cs),
(167,403,o),
(121,231,o),
(85,101,cs),
(78,76,o),
(67,54,o),
(57,45,cs),
(51,40,o),
(17,30,o),
(-25,21,c),
(-31,0,l)
);
}
);
width = 483;
},
{
anchors = (
{
name = bottom;
pos = (195,0);
},
{
name = top;
pos = (405,616);
}
);
background = {
anchors = (
{
name = bottom;
pos = (246,0);
},
{
name = center;
pos = (104,154);
},
{
name = top;
pos = (246,616);
}
);
shapes = (
{
closed = 1;
nodes = (
(-14,0,l),
(269,0,l),
(269,40,l),
(224,40,o),
(189,38,o),
(170,54,cs),
(161,62,o),
(156,73,o),
(156,91,cs),
(154,307,o),
(153,377,o),
(157,574,c),
(174,576,o),
(226,576,o),
(249,576,c),
(249,616,l),
(-14,616,l),
(-14,591,l),
(20,581,o),
(44,582,o),
(58,572,cs),
(68,565,o),
(73,552,o),
(73,525,cs),
(74,341,o),
(75,253,o),
(75,312,cs),
(75,373,o),
(74,282,o),
(73,91,cs),
(73,65,o),
(67,51,o),
(58,43,cs),
(42,29,o),
(16,31,o),
(-14,25,c)
);
},
{
closed = 1;
nodes = (
(143,318,o),
(155,318,o),
(183,318,cs),
(339,318,o),
(442,378,o),
(442,481,cs),
(442,560,o),
(362,616,o),
(249,616,c),
(249,576,l),
(310,576,o),
(353,529,o),
(353,462,cs),
(353,387,o),
(284,348,o),
(176,348,cs),
(116,348,l),
(117,318,l)
);
}
);
};
color = 2;
layerId = m005;
shapes = (
{
closed = 1;
nodes = (
(261,271,o),
(273,271,o),
(288,271,cs),
(418,271,o),
(524,353,o),
(544,468,cs),
(559,558,o),
(503,620,o),
(409,618,c),
(381,587,l),
(433,587,o),
(468,533,o),
(465,456,cs),
(462,364,o),
(379,299,o),
(264,299,c),
(257,272,l)
);
},
{
closed = 1;
nodes = (
(253,0,l),
(259,21,l),
(211,32,o),
(175,43,o),
(172,47,cs),
(166,54,o),
(167,79,o),
(175,111,cs),
(199,205,o),
(250,405,o),
(302,586,c),
(381,587,l),
(409,618,l),
(345,617,o),
(289,616,o),
(276,616,c),
(240,616,o),
(179,617,o),
(130,618,c),
(122,590,l),
(164,583,o),
(199,570,o),
(205,559,cs),
(212,549,o),
(213,529,o),
(208,510,cs),
(181,403,o),
(135,231,o),
(99,101,cs),
(92,76,o),
(81,54,o),
(71,45,cs),
(65,40,o),
(31,30,o),
(-11,21,c),
(-17,0,l)
);
}
);
width = 500;
},
{
anchors = (
{
name = bottom;
pos = (194,0);
},
{
name = top;
pos = (404,616);
}
);
background = {
anchors = (
{
name = bottom;
pos = (245,0);
},
{
name = center;
pos = (103,154);
},
{
name = top;
pos = (245,616);
}
);
shapes = (
{
closed = 1;
nodes = (
(-15,0,l),
(268,0,l),
(268,40,l),
(223,40,o),
(188,38,o),
(169,54,cs),
(160,62,o),
(155,73,o),
(155,91,cs),
(153,307,o),
(152,377,o),
(156,574,c),
(173,576,o),
(225,576,o),
(248,576,c),
(248,616,l),
(-15,616,l),
(-15,591,l),
(19,581,o),
(43,582,o),
(57,572,cs),
(67,565,o),
(72,552,o),
(72,525,cs),
(73,341,o),
(74,253,o),
(74,312,cs),
(74,373,o),
(73,282,o),
(72,91,cs),
(72,65,o),
(66,51,o),
(57,43,cs),
(41,29,o),
(15,31,o),
(-15,25,c)
);
},
{
closed = 1;
nodes = (
(142,318,o),
(154,318,o),
(182,318,cs),
(338,318,o),
(441,378,o),
(441,481,cs),
(441,560,o),
(361,616,o),
(248,616,c),
(248,576,l),
(309,576,o),
(352,529,o),
(352,462,cs),
(352,387,o),
(283,348,o),
(175,348,cs),
(115,348,l),
(116,318,l)
);
}
);
};
color = 2;
layerId = m006;
shapes = (
{
closed = 1;
nodes = (
(260,271,o),
(272,271,o),
(287,271,cs),
(417,271,o),
(523,353,o),
(543,468,cs),
(558,558,o),
(502,620,o),
(408,618,c),
(380,587,l),
(432,587,o),
(467,533,o),
(464,456,cs),
(461,364,o),
(378,299,o),
(263,299,c),
(256,272,l)
);
},
{
closed = 1;
nodes = (
(252,0,l),
(258,21,l),
(210,32,o),
(174,43,o),
(171,47,cs),
(165,54,o),
(166,79,o),
(174,111,cs),
(198,205,o),
(249,405,o),
(301,586,c),
(380,587,l),
(408,618,l),
(344,617,o),
(288,616,o),
(275,616,c),
(239,616,o),
(178,617,o),
(129,618,c),
(121,590,l),
(163,583,o),
(198,570,o),
(204,559,cs),
(211,549,o),
(212,529,o),
(207,510,cs),
(180,403,o),
(134,231,o),
(98,101,cs),
(91,76,o),
(80,54,o),
(70,45,cs),
(64,40,o),
(30,30,o),
(-12,21,c),
(-18,0,l)
);
}
);
width = 512;
},
{
anchors = (
{
name = bottom;
pos = (194,0);
},
{
name = top;
pos = (404,616);
}
);
background = {
anchors = (
{
name = bottom;
pos = (245,0);
},
{
name = center;
pos = (103,154);
},
{
name = top;
pos = (245,616);
}
);
shapes = (
{
closed = 1;
nodes = (
(-15,0,l),
(268,0,l),
(268,40,l),
(223,40,o),
(188,38,o),
(169,54,cs),
(160,62,o),
(155,73,o),
(155,91,cs),
(153,307,o),
(152,377,o),
(156,574,c),
(173,576,o),
(225,576,o),
(248,576,c),
(248,616,l),
(-15,616,l),
(-15,591,l),
(19,581,o),
(43,582,o),
(57,572,cs),
(67,565,o),
(72,552,o),
(72,525,cs),
(73,341,o),
(74,253,o),
(74,312,cs),
(74,373,o),
(73,282,o),
(72,91,cs),
(72,65,o),
(66,51,o),
(57,43,cs),
(41,29,o),
(15,31,o),
(-15,25,c)
);
},
{
closed = 1;
nodes = (
(142,318,o),
(154,318,o),
(182,318,cs),
(338,318,o),
(441,378,o),
(441,481,cs),
(441,560,o),
(361,616,o),
(248,616,c),
(248,576,l),
(309,576,o),
(352,529,o),
(352,462,cs),
(352,387,o),
(283,348,o),
(175,348,cs),
(115,348,l),
(116,318,l)
);
}
);
};
color = 2;
layerId = m004;
shapes = (
{
closed = 1;
nodes = (
(260,271,o),
(272,271,o),
(287,271,cs),
(417,271,o),
(523,353,o),
(543,468,cs),
(558,558,o),
(502,620,o),
(408,618,c),
(380,587,l),
(432,587,o),
(467,533,o),
(464,456,cs),
(461,364,o),
(378,299,o),
(263,299,c),
(256,272,l)
);
},
{
closed = 1;
nodes = (
(252,0,l),
(258,21,l),
(210,32,o),
(174,43,o),
(171,47,cs),
(165,54,o),
(166,79,o),
(174,111,cs),
(198,205,o),
(249,405,o),
(301,586,c),
(380,587,l),
(408,618,l),
(344,617,o),
(288,616,o),
(275,616,c),
(239,616,o),
(178,617,o),
(129,618,c),
(121,590,l),
(163,583,o),
(198,570,o),
(204,559,cs),
(211,549,o),
(212,529,o),
(207,510,cs),
(180,403,o),
(134,231,o),
(98,101,cs),
(91,76,o),
(80,54,o),
(70,45,cs),
(64,40,o),
(30,30,o),
(-12,21,c),
(-18,0,l)
);
}
);
width = 512;
}
);
metricLeft = H;
metricRight = O;
unicode = 80;
},
{
glyphname = Q;
lastChange = "2025-04-25 19:48:45 +0000";
layers = (
{
anchors = (
{
name = bottom;
pos = (252,0);
},
{
name = center;
pos = (317,308);
},
{
name = ogonek;
pos = (512,10);
},
{
name = top;
pos = (420,617);
},
{
name = topleft;
pos = (71,616);
},
{
name = topright;
pos = (773,616);
}
);
background = {
shapes = (
{
closed = 1;
nodes = (
(513,-11,o),
(648,121,o),
(648,308,cs),
(648,494,o),
(513,626,o),
(322,626,cs),
(133,626,o),
(0,494,o),
(0,308,cs),
(0,121,o),
(133,-11,o),
(322,-11,cs)
);
},
{
closed = 1;
nodes = (
(96,471,o),
(183,585,o),
(305,585,cs),
(450,585,o),
(552,463,o),
(552,298,cs),
(552,144,o),
(464,30,o),
(339,30,cs),
(197,30,o),
(96,152,o),
(96,318,cs)
);
},
{
closed = 1;
nodes = (
(513,-11,o),
(648,121,o),
(648,308,cs),
(648,494,o),
(513,626,o),
(322,626,cs),
(133,626,o),
(0,494,o),
(0,308,cs),
(0,121,o),
(133,-11,o),
(322,-11,cs)
);
},
{
closed = 1;
nodes = (
(96,471,o),
(183,585,o),
(305,585,cs),
(450,585,o),
(552,463,o),
(552,298,cs),
(552,144,o),
(464,30,o),
(339,30,cs),
(197,30,o),
(96,152,o),
(96,318,cs)
);
}
);
};
backgroundImage = {
imagePath = "../../Desktop/Bildschirmfoto 2024-12-24 um 15.25.09.png";
pos = (911,-1126);
scale = (-1.4,1.4);
slant = (2,0);
};
color = 4;
layerId = m003;
shapes = (
{
closed = 1;
nodes = (
(-17,-141,l),
(144,-121,o),
(169,-230,o),
(356,-230,cs),
(474,-230,o),
(612,-193,o),
(674,-141,c),
(660,-115,l),
(606,-152,o),
(522,-183,o),
(456,-183,cs),
(294,-183,o),
(273,-66,o),
(86,-92,c)
);
},
{
closed = 1;
nodes = (
(511,32,l),
(499,65,l),
(-28,-114,l),
(-21,-143,l)
);
},
{
closed = 1;
nodes = (
(535,-8,o),
(685,123,o),
(715,308,cs),
(749,507,o),
(646,648,o),
(466,648,cs),
(284,648,o),
(134,518,o),
(103,334,cs),
(70,134,o),
(173,-8,o),
(352,-8,cs)
);
},
{
closed = 1;
nodes = (
(258,30,o),
(172,139,o),
(180,275,cs),
(191,462,o),
(309,610,o),
(446,610,cs),
(560,610,o),
(644,502,o),
(635,366,cs),
(625,179,o),
(509,30,o),
(373,30,cs)
);
}
);
width = 735;
},
{
anchors = (
{
name = bottom;
pos = (259,0);
},
{
name = center;
pos = (324,308);
},
{
name = ogonek;
pos = (519,10);
},
{
name = top;
pos = (427,617);
},
{
name = topleft;
pos = (78,616);
},
{
name = topright;
pos = (780,616);
}
);
background = {
shapes = (
{
closed = 1;
nodes = (
(520,-11,o),
(655,121,o),
(655,308,cs),
(655,494,o),
(520,626,o),
(329,626,cs),
(140,626,o),
(7,494,o),
(7,308,cs),
(7,121,o),
(140,-11,o),
(329,-11,cs)
);
},
{
closed = 1;
nodes = (
(103,471,o),
(190,585,o),
(312,585,cs),
(457,585,o),
(559,463,o),
(559,298,cs),
(559,144,o),
(471,30,o),
(346,30,cs),
(204,30,o),
(103,152,o),
(103,318,cs)
);
},
{
closed = 1;
nodes = (
(520,-11,o),
(655,121,o),
(655,308,cs),
(655,494,o),
(520,626,o),
(329,626,cs),
(140,626,o),
(7,494,o),
(7,308,cs),
(7,121,o),
(140,-11,o),
(329,-11,cs)
);
},
{
closed = 1;
nodes = (
(103,471,o),
(190,585,o),
(312,585,cs),
(457,585,o),
(559,463,o),
(559,298,cs),
(559,144,o),
(471,30,o),
(346,30,cs),
(204,30,o),
(103,152,o),
(103,318,cs)
);
},
{
closed = 1;
nodes = (
(406,-470,o),
(552,-562,o),
(739,-562,cs),
(837,-562,o),
(955,-509,o),
(1024,-433,c),
(1018,-413,l),
(953,-469,o),
(855,-509,o),
(782,-509,cs),
(621,-509,o),
(503,-431,o),
(496,-321,c),
(387,-339,l)
);
},
{
closed = 1;
nodes = (
(722,-492,o),
(576,-400,o),
(389,-400,cs),
(291,-400,o),
(173,-453,o),
(104,-529,c),
(110,-549,l),
(175,-493,o),
(273,-453,o),
(346,-453,cs),
(507,-453,o),
(625,-531,o),
(632,-641,c),
(741,-623,l)
);
}
);
};
backgroundImage = {
imagePath = "../../Desktop/Bildschirmfoto 2024-12-24 um 15.25.09.png";
pos = (918,-1126);
scale = (-1.4,1.4);
};
color = 4;
layerId = m005;
shapes = (
{
closed = 1;
nodes = (
(-10,-141,l),
(151,-121,o),
(176,-230,o),
(363,-230,cs),
(481,-230,o),
(619,-193,o),
(681,-141,c),
(667,-115,l),
(613,-152,o),
(529,-183,o),
(463,-183,cs),
(301,-183,o),
(280,-66,o),
(93,-92,c)
);
},
{
closed = 1;
nodes = (
(518,32,l),
(506,65,l),
(-21,-114,l),
(-14,-143,l)
);
},
{
closed = 1;
nodes = (
(542,-8,o),
(692,123,o),
(722,308,cs),
(756,507,o),
(653,648,o),
(473,648,cs),
(291,648,o),
(141,518,o),
(110,334,cs),
(77,134,o),
(180,-8,o),
(359,-8,cs)
);
},
{
closed = 1;
nodes = (
(265,30,o),
(179,139,o),
(187,275,cs),
(198,462,o),
(316,610,o),
(453,610,cs),
(567,610,o),
(651,502,o),
(642,366,cs),
(632,179,o),
(516,30,o),
(380,30,cs)
);
}
);
width = 748;
},
{
anchors = (
{
name = bottom;
pos = (246,0);
},
{
name = center;
pos = (311,308);
},
{
name = ogonek;
pos = (506,10);
},
{
name = top;
pos = (414,617);
},
{
name = topleft;
pos = (65,616);
},
{
name = topright;
pos = (767,616);
}
);
background = {
shapes = (
{
closed = 1;
nodes = (
(507,-11,o),
(642,121,o),
(642,308,cs),
(642,494,o),
(507,626,o),
(316,626,cs),
(127,626,o),
(-6,494,o),
(-6,308,cs),
(-6,121,o),
(127,-11,o),
(316,-11,cs)
);
},
{
closed = 1;
nodes = (
(90,471,o),
(177,585,o),
(299,585,cs),
(444,585,o),
(546,463,o),
(546,298,cs),
(546,144,o),
(458,30,o),
(333,30,cs),
(191,30,o),
(90,152,o),
(90,318,cs)
);
},
{
closed = 1;
nodes = (
(507,-11,o),
(642,121,o),
(642,308,cs),
(642,494,o),
(507,626,o),
(316,626,cs),
(127,626,o),
(-6,494,o),
(-6,308,cs),
(-6,121,o),
(127,-11,o),
(316,-11,cs)
);
},
{
closed = 1;
nodes = (
(90,471,o),
(177,585,o),
(299,585,cs),
(444,585,o),
(546,463,o),
(546,298,cs),
(546,144,o),
(458,30,o),
(333,30,cs),
(191,30,o),
(90,152,o),
(90,318,cs)
);
}
);
};
backgroundImage = {
imagePath = "../../Desktop/Bildschirmfoto 2024-12-24 um 15.25.09.png";
pos = (905,-1126);
scale = (-1.4,1.4);
};
color = 4;
layerId = m006;
shapes = (
{
closed = 1;
nodes = (
(-23,-141,l),
(138,-121,o),
(163,-230,o),
(350,-230,cs),
(468,-230,o),
(606,-193,o),
(668,-141,c),
(654,-115,l),
(600,-152,o),
(516,-183,o),
(450,-183,cs),
(288,-183,o),
(267,-66,o),
(80,-92,c)
);
},
{
closed = 1;
nodes = (
(505,32,l),
(493,65,l),
(-34,-114,l),
(-27,-143,l)
);
},
{
closed = 1;
nodes = (
(529,-8,o),
(679,123,o),
(709,308,cs),
(743,507,o),
(640,648,o),
(460,648,cs),
(278,648,o),
(128,518,o),
(97,334,cs),
(64,134,o),
(167,-8,o),
(346,-8,cs)
);
},
{
closed = 1;
nodes = (
(252,30,o),
(166,139,o),
(174,275,cs),
(185,462,o),
(303,610,o),
(440,610,cs),
(554,610,o),
(638,502,o),
(629,366,cs),
(619,179,o),
(503,30,o),
(367,30,cs)
);
}
);
width = 732;
},
{
anchors = (
{
name = bottom;
pos = (246,0);
},
{
name = center;
pos = (311,308);
},
{
name = ogonek;
pos = (506,10);
},
{
name = top;
pos = (414,617);
},
{
name = topleft;
pos = (65,616);
},
{
name = topright;
pos = (767,616);
}
);
background = {
shapes = (
{
closed = 1;
nodes = (
(507,-11,o),
(642,121,o),
(642,308,cs),
(642,494,o),
(507,626,o),
(316,626,cs),
(127,626,o),
(-6,494,o),
(-6,308,cs),
(-6,121,o),
(127,-11,o),
(316,-11,cs)
);
},
{
closed = 1;
nodes = (
(90,471,o),
(177,585,o),
(299,585,cs),
(444,585,o),
(546,463,o),
(546,298,cs),
(546,144,o),
(458,30,o),
(333,30,cs),
(191,30,o),
(90,152,o),
(90,318,cs)
);
},
{
closed = 1;
nodes = (
(507,-11,o),
(642,121,o),
(642,308,cs),
(642,494,o),
(507,626,o),
(316,626,cs),
(127,626,o),
(-6,494,o),
(-6,308,cs),
(-6,121,o),
(127,-11,o),
(316,-11,cs)
);
},
{
closed = 1;
nodes = (
(90,471,o),
(177,585,o),
(299,585,cs),
(444,585,o),
(546,463,o),
(546,298,cs),
(546,144,o),
(458,30,o),
(333,30,cs),
(191,30,o),
(90,152,o),
(90,318,cs)
);
}
);
};
backgroundImage = {
imagePath = "../../Desktop/Bildschirmfoto 2024-12-24 um 15.25.09.png";
pos = (905,-1126);
scale = (-1.4,1.4);
};
color = 4;
layerId = m004;
shapes = (
{
closed = 1;
nodes = (
(-23,-141,l),
(138,-121,o),
(163,-230,o),
(350,-230,cs),
(468,-230,o),
(606,-193,o),
(668,-141,c),
(654,-115,l),
(600,-152,o),
(516,-183,o),
(450,-183,cs),
(288,-183,o),
(267,-66,o),
(80,-92,c)
);
},
{
closed = 1;
nodes = (
(505,32,l),
(493,65,l),
(-34,-114,l),
(-27,-143,l)
);
},
{
closed = 1;
nodes = (
(529,-8,o),
(679,123,o),
(709,308,cs),
(743,507,o),
(640,648,o),
(460,648,cs),
(278,648,o),
(128,518,o),
(97,334,cs),
(64,134,o),
(167,-8,o),
(346,-8,cs)
);
},
{
closed = 1;
nodes = (
(252,30,o),
(166,139,o),
(174,275,cs),
(185,462,o),
(303,610,o),
(440,610,cs),
(554,610,o),
(638,502,o),
(629,366,cs),
(619,179,o),
(503,30,o),
(367,30,cs)
);
}
);
width = 732;
}
);
metricLeft = O;
metricWidth = O;
unicode = 81;
},
{
glyphname = R;
lastChange = "2025-04-25 19:48:45 +0000";
layers = (
{
anchors = (
{
name = bottom;
pos = (242,0);
},
{
name = top;
pos = (452,616);
}
);
background = {
shapes = (
{
closed = 1;
nodes = (
(-28,0,l),
(255,0,l),
(255,40,l),
(210,40,o),
(175,38,o),
(156,54,cs),
(147,62,o),
(142,73,o),
(142,91,cs),
(140,307,o),
(139,377,o),
(143,574,c),
(160,576,o),
(212,576,o),
(235,576,c),
(235,616,l),
(-28,616,l),
(-28,591,l),
(6,581,o),
(30,582,o),
(44,572,cs),
(54,565,o),
(59,552,o),
(59,525,cs),
(60,341,o),
(61,253,o),
(61,312,cs),
(61,373,o),
(60,282,o),
(59,91,cs),
(59,65,o),
(53,51,o),
(44,43,cs),
(28,29,o),
(2,31,o),
(-28,25,c)
);
}
);
};
color = 2;
layerId = m003;
shapes = (
{
closed = 1;
nodes = (
(387,282,o),
(525,369,o),
(536,478,cs),
(545,568,o),
(483,620,o),
(387,618,c),
(356,576,l),
(426,576,o),
(460,537,o),
(458,466,cs),
(456,388,o),
(344,322,o),
(212,322,c),
(202,282,l)
);
},
{
closed = 1;
nodes = (
(239,0,l),
(246,27,l),
(199,32,o),
(161,43,o),
(155,53,cs),
(150,60,o),
(151,82,o),
(157,106,cs),
(212,313,o),
(265,507,o),
(285,574,c),
(356,576,l),
(387,618,l),
(328,617,o),
(276,616,o),
(260,616,c),
(250,616,o),
(199,617,o),
(135,618,c),
(128,592,l),
(165,584,o),
(194,574,o),
(198,567,cs),
(202,558,o),
(200,535,o),
(194,512,cs),
(168,408,o),
(123,239,o),
(86,104,cs),
(78,76,o),
(65,51,o),
(55,44,cs),
(48,39,o),
(15,31,o),
(-24,25,c),
(-31,0,l)
);
},
{
closed = 1;
nodes = (
(566,18,l),
(488,27,o),
(407,159,o),
(321,327,c),
(256,295,l),
(342,122,o),
(418,-6,o),
(488,-3,cs),
(566,0,l)
);
}
);
width = 628;
},
{
anchors = (
{
name = bottom;
pos = (256,0);
},
{
name = top;
pos = (466,616);
}
);
background = {
shapes = (
{
closed = 1;
nodes = (
(-14,0,l),
(269,0,l),
(269,40,l),
(224,40,o),
(189,38,o),
(170,54,cs),
(161,62,o),
(156,73,o),
(156,91,cs),
(154,307,o),
(153,377,o),
(157,574,c),
(174,576,o),
(226,576,o),
(249,576,c),
(249,616,l),
(-14,616,l),
(-14,591,l),
(20,581,o),
(44,582,o),
(58,572,cs),
(68,565,o),
(73,552,o),
(73,525,cs),
(74,341,o),
(75,253,o),
(75,312,cs),
(75,373,o),
(74,282,o),
(73,91,cs),
(73,65,o),
(67,51,o),
(58,43,cs),
(42,29,o),
(16,31,o),
(-14,25,c)
);
}
);
};
color = 2;
layerId = m005;
shapes = (
{
closed = 1;
nodes = (
(401,282,o),
(539,369,o),
(550,478,cs),
(559,568,o),
(497,620,o),
(401,618,c),
(370,576,l),
(440,576,o),
(474,537,o),
(472,466,cs),
(470,388,o),
(358,322,o),
(226,322,c),
(216,282,l)
);
},
{
closed = 1;
nodes = (
(253,0,l),
(260,27,l),
(213,32,o),
(175,43,o),
(169,53,cs),
(164,60,o),
(165,82,o),
(171,106,cs),
(226,313,o),
(279,507,o),
(299,574,c),
(370,576,l),
(401,618,l),
(342,617,o),
(290,616,o),
(274,616,c),
(264,616,o),
(213,617,o),
(149,618,c),
(142,592,l),
(179,584,o),
(208,574,o),
(212,567,cs),
(216,558,o),
(214,535,o),
(208,512,cs),
(182,408,o),
(137,239,o),
(100,104,cs),
(92,76,o),
(79,51,o),
(69,44,cs),
(62,39,o),
(29,31,o),
(-10,25,c),
(-17,0,l)
);
},
{
closed = 1;
nodes = (
(580,18,l),
(502,27,o),
(421,159,o),
(335,327,c),
(270,295,l),
(356,122,o),
(432,-6,o),
(502,-3,cs),
(580,0,l)
);
}
);
width = 643;
},
{
anchors = (
{
name = bottom;
pos = (255,0);
},
{
name = top;
pos = (465,616);
}
);
background = {
shapes = (
{
closed = 1;
nodes = (
(-15,0,l),
(268,0,l),
(268,40,l),
(223,40,o),
(188,38,o),
(169,54,cs),
(160,62,o),
(155,73,o),
(155,91,cs),
(153,307,o),
(152,377,o),
(156,574,c),
(173,576,o),
(225,576,o),
(248,576,c),
(248,616,l),
(-15,616,l),
(-15,591,l),
(19,581,o),
(43,582,o),
(57,572,cs),
(67,565,o),
(72,552,o),
(72,525,cs),
(73,341,o),
(74,253,o),
(74,312,cs),
(74,373,o),
(73,282,o),
(72,91,cs),
(72,65,o),
(66,51,o),
(57,43,cs),
(41,29,o),
(15,31,o),
(-15,25,c)
);
}
);
};
color = 2;
layerId = m006;
shapes = (
{
closed = 1;
nodes = (
(400,282,o),
(538,369,o),
(549,478,cs),
(558,568,o),
(496,620,o),
(400,618,c),
(369,576,l),
(439,576,o),
(473,537,o),
(471,466,cs),
(469,388,o),
(357,322,o),
(225,322,c),
(215,282,l)
);
},
{
closed = 1;
nodes = (
(252,0,l),
(259,27,l),
(212,32,o),
(174,43,o),
(168,53,cs),
(163,60,o),
(164,82,o),
(170,106,cs),
(225,313,o),
(278,507,o),
(298,574,c),
(369,576,l),
(400,618,l),
(341,617,o),
(289,616,o),
(273,616,c),
(263,616,o),
(212,617,o),
(148,618,c),
(141,592,l),
(178,584,o),
(207,574,o),
(211,567,cs),
(215,558,o),
(213,535,o),
(207,512,cs),
(181,408,o),
(136,239,o),
(99,104,cs),
(91,76,o),
(78,51,o),
(68,44,cs),
(61,39,o),
(28,31,o),
(-11,25,c),
(-18,0,l)
);
},
{
closed = 1;
nodes = (
(579,18,l),
(501,27,o),
(420,159,o),
(334,327,c),
(269,295,l),
(355,122,o),
(431,-6,o),
(501,-3,cs),
(579,0,l)
);
}
);
width = 603;
},
{
anchors = (
{
name = bottom;
pos = (255,0);
},
{
name = top;
pos = (465,616);
}
);
background = {
shapes = (
{
closed = 1;
nodes = (
(-15,0,l),
(268,0,l),
(268,40,l),
(223,40,o),
(188,38,o),
(169,54,cs),
(160,62,o),
(155,73,o),
(155,91,cs),
(153,307,o),
(152,377,o),
(156,574,c),
(173,576,o),
(225,576,o),
(248,576,c),
(248,616,l),
(-15,616,l),
(-15,591,l),
(19,581,o),
(43,582,o),
(57,572,cs),
(67,565,o),
(72,552,o),
(72,525,cs),
(73,341,o),
(74,253,o),
(74,312,cs),
(74,373,o),
(73,282,o),
(72,91,cs),
(72,65,o),
(66,51,o),
(57,43,cs),
(41,29,o),
(15,31,o),
(-15,25,c)
);
}
);
};
color = 2;
layerId = m004;
shapes = (
{
closed = 1;
nodes = (
(400,282,o),
(538,369,o),
(549,478,cs),
(558,568,o),
(496,620,o),
(400,618,c),
(369,576,l),
(439,576,o),
(473,537,o),
(471,466,cs),
(469,388,o),
(357,322,o),
(225,322,c),
(215,282,l)
);
},
{
closed = 1;
nodes = (
(252,0,l),
(259,27,l),
(212,32,o),
(174,43,o),
(168,53,cs),
(163,60,o),
(164,82,o),
(170,106,cs),
(225,313,o),
(278,507,o),
(298,574,c),
(369,576,l),
(400,618,l),
(341,617,o),
(289,616,o),
(273,616,c),
(263,616,o),
(212,617,o),
(148,618,c),
(141,592,l),
(178,584,o),
(207,574,o),
(211,567,cs),
(215,558,o),
(213,535,o),
(207,512,cs),
(181,408,o),
(136,239,o),
(99,104,cs),
(91,76,o),
(78,51,o),
(68,44,cs),
(61,39,o),
(28,31,o),
(-11,25,c),
(-18,0,l)
);
},
{
closed = 1;
nodes = (
(579,18,l),
(501,27,o),
(420,159,o),
(334,327,c),
(269,295,l),
(355,122,o),
(431,-6,o),
(501,-3,cs),
(579,0,l)
);
}
);
width = 603;
}
);
metricLeft = H;
unicode = 82;
},
{
glyphname = S;
lastChange = "2025-04-25 19:48:45 +0000";
layers = (
{
anchors = (
{
name = bottom;
pos = (179,0);
},
{
name = top;
pos = (389,616);
}
);
background = {
shapes = (
{
closed = 1;
nodes = (
(295,-9,o),
(376,58,o),
(391,152,cs),
(405,242,o),
(348,298,o),
(292,352,cs),
(242,401,o),
(193,448,o),
(204,518,cs),
(210,557,o),
(258,585,o),
(319,585,cs),
(406,585,o),
(449,530,o),
(422,453,c),
(455,453,l),
(471,521,o),
(485,572,o),
(488,575,c),
(452,604,o),
(383,624,o),
(320,624,cs),
(228,624,o),
(153,565,o),
(140,481,cs),
(126,384,o),
(185,327,o),
(240,274,cs),
(290,227,o),
(336,182,o),
(327,115,cs),
(320,62,o),
(263,26,o),
(189,27,cs),
(103,29,o),
(59,99,o),
(84,197,c),
(48,197,l),
(42,149,o),
(28,89,o),
(14,53,c),
(50,17,o),
(125,-9,o),
(195,-9,cs)
);
}
);
};
color = 4;
layerId = m003;
shapes = (
{
closed = 1;
nodes = (
(289,-9,o),
(376,56,o),
(391,150,cs),
(405,239,o),
(367,270,o),
(287,355,cs),
(239,405,o),
(189,446,o),
(203,515,cs),
(212,560,o),
(258,590,o),
(319,590,cs),
(402,590,o),
(446,533,o),
(425,453,c),
(454,453,l),
(487,575,l),
(477,577,o),
(463,583,o),
(446,590,cs),
(412,605,o),
(367,624,o),
(319,624,cs),
(227,624,o),
(154,568,o),
(141,484,cs),
(127,389,o),
(153,359,o),
(219,295,cs),
(270,246,o),
(345,182,o),
(327,113,cs),
(313,60,o),
(263,24,o),
(189,25,cs),
(103,27,o),
(59,99,o),
(84,197,c),
(47,197,l),
(43,158,o),
(29,100,o),
(15,57,c),
(19,56,o),
(26,51,o),
(35,45,cs),
(63,26,o),
(114,-9,o),
(189,-9,cs)
);
}
);
width = 462;
},
{
anchors = (
{
name = bottom;
pos = (184,0);
},
{
name = top;
pos = (394,616);
}
);
color = 4;
layerId = m005;
shapes = (
{
closed = 1;
nodes = (
(295,-9,o),
(382,56,o),
(397,150,cs),
(411,239,o),
(380,262,o),
(300,347,cs),
(252,397,o),
(195,446,o),
(209,515,cs),
(218,560,o),
(264,590,o),
(325,590,cs),
(408,590,o),
(452,533,o),
(431,453,c),
(460,453,l),
(493,575,l),
(483,577,o),
(469,583,o),
(452,590,cs),
(418,605,o),
(373,624,o),
(325,624,cs),
(233,624,o),
(160,568,o),
(147,484,cs),
(133,389,o),
(166,351,o),
(232,287,cs),
(283,238,o),
(351,182,o),
(333,113,cs),
(319,60,o),
(269,24,o),
(195,25,cs),
(109,27,o),
(65,99,o),
(90,197,c),
(53,197,l),
(49,158,o),
(35,100,o),
(21,57,c),
(25,56,o),
(32,51,o),
(41,45,cs),
(69,26,o),
(120,-9,o),
(195,-9,cs)
);
}
);
width = 475;
},
{
anchors = (
{
name = bottom;
pos = (185,0);
},
{
name = top;
pos = (395,616);
}
);
color = 4;
layerId = m006;
shapes = (
{
closed = 1;
nodes = (
(296,-9,o),
(383,56,o),
(398,150,cs),
(412,239,o),
(381,262,o),
(301,347,cs),
(253,397,o),
(196,446,o),
(210,515,cs),
(219,560,o),
(265,590,o),
(326,590,cs),
(409,590,o),
(453,533,o),
(432,453,c),
(461,453,l),
(494,575,l),
(484,577,o),
(470,583,o),
(453,590,cs),
(419,605,o),
(374,624,o),
(326,624,cs),
(234,624,o),
(161,568,o),
(148,484,cs),
(134,389,o),
(167,351,o),
(233,287,cs),
(284,238,o),
(352,182,o),
(334,113,cs),
(320,60,o),
(270,24,o),
(196,25,cs),
(110,27,o),
(66,99,o),
(91,197,c),
(54,197,l),
(50,158,o),
(36,100,o),
(22,57,c),
(26,56,o),
(33,51,o),
(42,45,cs),
(70,26,o),
(121,-9,o),
(196,-9,cs)
);
}
);
width = 471;
},
{
anchors = (
{
name = bottom;
pos = (185,0);
},
{
name = top;
pos = (395,616);
}
);
color = 4;
layerId = m004;
shapes = (
{
closed = 1;
nodes = (
(296,-9,o),
(383,56,o),
(398,150,cs),
(412,239,o),
(381,262,o),
(301,347,cs),
(253,397,o),
(196,446,o),
(210,515,cs),
(219,560,o),
(265,590,o),
(326,590,cs),
(409,590,o),
(453,533,o),
(432,453,c),
(461,453,l),
(494,575,l),
(484,577,o),
(470,583,o),
(453,590,cs),
(419,605,o),
(374,624,o),
(326,624,cs),
(234,624,o),
(161,568,o),
(148,484,cs),
(134,389,o),
(167,351,o),
(233,287,cs),
(284,238,o),
(352,182,o),
(334,113,cs),
(320,60,o),
(270,24,o),
(196,25,cs),
(110,27,o),
(66,99,o),
(91,197,c),
(54,197,l),
(50,158,o),
(36,100,o),
(22,57,c),
(26,56,o),
(33,51,o),
(42,45,cs),
(70,26,o),
(121,-9,o),
(196,-9,cs)
);
}
);
width = 471;
}
);
metricLeft = O;
metricRight = O;
unicode = 83;
},
{
glyphname = T;
lastChange = "2025-04-25 19:48:45 +0000";
layers = (
{
anchors = (
{
name = bottom;
pos = (228,0);
},
{
name = center;
pos = (333,308);
},
{
name = top;
pos = (438,616);
}
);
background = {
shapes = (
{
closed = 1;
nodes = (
(144,0,l),
(389,0,l),
(389,18,l),
(343,31,o),
(320,33,o),
(311,52,cs),
(307,60,o),
(306,73,o),
(306,91,cs),
(305,164,o),
(305,237,o),
(304,310,cs),
(303,382,o),
(305,453,o),
(306,525,cs),
(306,561,o),
(312,575,o),
(333,585,cs),
(344,590,o),
(362,591,o),
(389,598,c),
(389,616,l),
(144,616,l),
(144,598,l),
(190,585,o),
(213,583,o),
(222,565,cs),
(226,556,o),
(228,543,o),
(228,525,cs),
(229,454,o),
(230,383,o),
(230,312,cs),
(230,238,o),
(229,165,o),
(228,91,cs),
(228,55,o),
(221,42,o),
(200,32,cs),
(189,27,o),
(171,25,o),
(144,18,c)
);
}
);
};
color = 4;
layerId = m003;
shapes = (
{
closed = 1;
nodes = (
(410,0,l),
(416,25,l),
(345,39,o),
(293,43,o),
(305,97,cs),
(342,259,o),
(388,428,o),
(436,590,c),
(415,565,l),
(479,565,o),
(528,565,o),
(557,565,cs),
(593,565,o),
(639,559,o),
(614,447,c),
(651,451,l),
(667,515,o),
(679,579,o),
(684,643,c),
(675,643,l),
(614,616,l),
(456,613,o),
(333,613,o),
(192,616,c),
(154,653,l),
(148,648,l),
(117,581,o),
(94,515,o),
(74,448,c),
(110,446,l),
(146,561,o),
(181,565,o),
(245,565,cs),
(385,565,l),
(362,590,l),
(330,462,o),
(245,143,o),
(230,97,cs),
(216,51,o),
(181,38,o),
(102,25,c),
(96,0,l)
);
}
);
width = 592;
},
{
anchors = (
{
name = bottom;
pos = (229,0);
},
{
name = center;
pos = (334,308);
},
{
name = top;
pos = (439,616);
}
);
background = {
shapes = (
{
closed = 1;
nodes = (
(145,0,l),
(390,0,l),
(390,18,l),
(344,31,o),
(321,33,o),
(312,52,cs),
(308,60,o),
(307,73,o),
(307,91,cs),
(306,164,o),
(306,237,o),
(305,310,cs),
(304,382,o),
(306,453,o),
(307,525,cs),
(307,561,o),
(313,575,o),
(334,585,cs),
(345,590,o),
(363,591,o),
(390,598,c),
(390,616,l),
(145,616,l),
(145,598,l),
(191,585,o),
(214,583,o),
(223,565,cs),
(227,556,o),
(229,543,o),
(229,525,cs),
(230,454,o),
(231,383,o),
(231,312,cs),
(231,238,o),
(230,165,o),
(229,91,cs),
(229,55,o),
(222,42,o),
(201,32,cs),
(190,27,o),
(172,25,o),
(145,18,c)
);
}
);
};
color = 4;
layerId = m005;
shapes = (
{
closed = 1;
nodes = (
(411,0,l),
(417,25,l),
(346,39,o),
(294,43,o),
(306,97,cs),
(343,259,o),
(389,428,o),
(437,590,c),
(416,565,l),
(480,565,o),
(529,565,o),
(558,565,cs),
(594,565,o),
(640,559,o),
(615,447,c),
(652,451,l),
(668,515,o),
(680,579,o),
(685,643,c),
(676,643,l),
(615,616,l),
(457,613,o),
(334,613,o),
(193,616,c),
(155,653,l),
(149,648,l),
(118,581,o),
(95,515,o),
(75,448,c),
(111,446,l),
(147,561,o),
(182,565,o),
(246,565,cs),
(386,565,l),
(363,590,l),
(331,462,o),
(246,143,o),
(231,97,cs),
(217,51,o),
(182,38,o),
(103,25,c),
(97,0,l)
);
}
);
width = 594;
},
{
anchors = (
{
name = bottom;
pos = (210,0);
},
{
name = center;
pos = (315,308);
},
{
name = top;
pos = (420,616);
}
);
background = {
shapes = (
{
closed = 1;
nodes = (
(126,0,l),
(371,0,l),
(371,18,l),
(325,31,o),
(302,33,o),
(293,52,cs),
(289,60,o),
(288,73,o),
(288,91,cs),
(287,164,o),
(287,237,o),
(286,310,cs),
(285,382,o),
(287,453,o),
(288,525,cs),
(288,561,o),
(294,575,o),
(315,585,cs),
(326,590,o),
(344,591,o),
(371,598,c),
(371,616,l),
(126,616,l),
(126,598,l),
(172,585,o),
(195,583,o),
(204,565,cs),
(208,556,o),
(210,543,o),
(210,525,cs),
(211,454,o),
(212,383,o),
(212,312,cs),
(212,238,o),
(211,165,o),
(210,91,cs),
(210,55,o),
(203,42,o),
(182,32,cs),
(171,27,o),
(153,25,o),
(126,18,c)
);
}
);
};
color = 4;
layerId = m006;
shapes = (
{
closed = 1;
nodes = (
(392,0,l),
(398,25,l),
(327,39,o),
(275,43,o),
(287,97,cs),
(324,259,o),
(370,428,o),
(418,590,c),
(397,565,l),
(461,565,o),
(510,565,o),
(539,565,cs),
(575,565,o),
(621,559,o),
(596,447,c),
(633,451,l),
(649,515,o),
(661,579,o),
(666,643,c),
(657,643,l),
(596,616,l),
(438,613,o),
(315,613,o),
(174,616,c),
(136,653,l),
(130,648,l),
(99,581,o),
(76,515,o),
(56,448,c),
(92,446,l),
(128,561,o),
(163,565,o),
(227,565,cs),
(367,565,l),
(344,590,l),
(312,462,o),
(227,143,o),
(212,97,cs),
(198,51,o),
(163,38,o),
(84,25,c),
(78,0,l)
);
}
);
width = 576;
},
{
anchors = (
{
name = bottom;
pos = (210,0);
},
{
name = center;
pos = (315,308);
},
{
name = top;
pos = (420,616);
}
);
background = {
shapes = (
{
closed = 1;
nodes = (
(126,0,l),
(371,0,l),
(371,18,l),
(325,31,o),
(302,33,o),
(293,52,cs),
(289,60,o),
(288,73,o),
(288,91,cs),
(287,164,o),
(287,237,o),
(286,310,cs),
(285,382,o),
(287,453,o),
(288,525,cs),
(288,561,o),
(294,575,o),
(315,585,cs),
(326,590,o),
(344,591,o),
(371,598,c),
(371,616,l),
(126,616,l),
(126,598,l),
(172,585,o),
(195,583,o),
(204,565,cs),
(208,556,o),
(210,543,o),
(210,525,cs),
(211,454,o),
(212,383,o),
(212,312,cs),
(212,238,o),
(211,165,o),
(210,91,cs),
(210,55,o),
(203,42,o),
(182,32,cs),
(171,27,o),
(153,25,o),
(126,18,c)
);
}
);
};
color = 4;
layerId = m004;
shapes = (
{
closed = 1;
nodes = (
(392,0,l),
(398,25,l),
(327,39,o),
(275,43,o),
(287,97,cs),
(324,259,o),
(370,428,o),
(418,590,c),
(397,565,l),
(461,565,o),
(510,565,o),
(539,565,cs),
(575,565,o),
(621,559,o),
(596,447,c),
(633,451,l),
(649,515,o),
(661,579,o),
(666,643,c),
(657,643,l),
(596,616,l),
(438,613,o),
(315,613,o),
(174,616,c),
(136,653,l),
(130,648,l),
(99,581,o),
(76,515,o),
(56,448,c),
(92,446,l),
(128,561,o),
(163,565,o),
(227,565,cs),
(367,565,l),
(344,590,l),
(312,462,o),
(227,143,o),
(212,97,cs),
(198,51,o),
(163,38,o),
(84,25,c),
(78,0,l)
);
}
);
width = 576;
}
);
metricLeft = H;
metricRight = H;
unicode = 84;
},
{
glyphname = U;
lastChange = "2025-04-25 19:48:45 +0000";
layers = (
{
anchors = (
{
name = bottom;
pos = (248,0);
},
{
name = ogonek;
pos = (519,10);
},
{
name = top;
pos = (458,616);
},
{
name = topright;
pos = (773,616);
}
);
background = {
anchors = (
{
name = bottom;
pos = (210,0);
},
{
name = center;
pos = (275,308);
},
{
name = ogonek;
pos = (470,10);
},
{
name = top;
pos = (440,617);
},
{
name = topleft;
pos = (29,616);
},
{
name = topright;
pos = (731,616);
}
);
shapes = (
{
closed = 1;
nodes = (
(493,-8,o),
(643,123,o),
(673,308,cs),
(707,507,o),
(604,648,o),
(424,648,cs),
(242,648,o),
(92,518,o),
(61,334,cs),
(28,134,o),
(131,-8,o),
(310,-8,cs)
);
},
{
closed = 1;
nodes = (
(216,30,o),
(130,139,o),
(138,275,cs),
(149,462,o),
(267,610,o),
(404,610,cs),
(518,610,o),
(602,502,o),
(593,366,cs),
(583,179,o),
(467,30,o),
(331,30,cs)
);
}
);
};
color = 1;
layerId = m003;
shapes = (
{
closed = 1;
nodes = (
(453,-11,o),
(548,78,o),
(589,204,cs),
(632,336,o),
(652,433,o),
(673,516,cs),
(684,559,o),
(722,588,o),
(764,588,c),
(771,616,l),
(553,616,l),
(547,592,l),
(613,582,o),
(626,546,o),
(616,491,cs),
(600,403,o),
(572,280,o),
(545,210,cs),
(507,110,o),
(441,38,o),
(328,38,cs),
(219,38,o),
(158,132,o),
(170,220,cs),
(179,287,o),
(209,400,o),
(241,518,cs),
(254,566,o),
(296,584,o),
(351,588,c),
(359,616,l),
(123,616,l),
(115,589,l),
(155,581,o),
(174,550,o),
(166,515,cs),
(158,478,o),
(137,409,o),
(90,210,cs),
(60,85,o),
(160,-11,o),
(317,-11,cs)
);
}
);
width = 676;
},
{
anchors = (
{
name = bottom;
pos = (258,0);
},
{
name = ogonek;
pos = (529,10);
},
{
name = top;
pos = (468,616);
},
{
name = topright;
pos = (783,616);
}
);
color = 1;
layerId = m005;
shapes = (
{
closed = 1;
nodes = (
(463,-11,o),
(554,78,o),
(599,204,cs),
(646,336,o),
(659,431,o),
(682,514,cs),
(694,557,o),
(732,588,o),
(774,588,c),
(781,616,l),
(563,616,l),
(557,592,l),
(623,582,o),
(645,536,o),
(631,481,cs),
(609,393,o),
(583,278,o),
(556,208,cs),
(518,108,o),
(451,36,o),
(338,36,cs),
(229,36,o),
(161,100,o),
(170,188,cs),
(177,255,o),
(215,385,o),
(247,503,cs),
(260,551,o),
(308,588,o),
(363,592,c),
(369,616,l),
(133,616,l),
(125,589,l),
(165,581,o),
(187,550,o),
(178,515,cs),
(182,530,o),
(144,401,o),
(99,202,cs),
(71,77,o),
(170,-11,o),
(327,-11,cs)
);
}
);
width = 697;
},
{
anchors = (
{
name = bottom;
pos = (253,0);
},
{
name = ogonek;
pos = (524,10);
},
{
name = top;
pos = (463,616);
},
{
name = topright;
pos = (778,616);
}
);
color = 1;
layerId = m006;
shapes = (
{
closed = 1;
nodes = (
(458,-11,o),
(549,78,o),
(594,204,cs),
(641,336,o),
(654,431,o),
(677,514,cs),
(689,557,o),
(727,588,o),
(769,588,c),
(776,616,l),
(558,616,l),
(552,592,l),
(618,582,o),
(640,536,o),
(626,481,cs),
(604,393,o),
(578,278,o),
(551,208,cs),
(513,108,o),
(446,36,o),
(333,36,cs),
(224,36,o),
(156,100,o),
(165,188,cs),
(172,255,o),
(210,385,o),
(242,503,cs),
(255,551,o),
(303,588,o),
(358,592,c),
(364,616,l),
(128,616,l),
(120,589,l),
(160,581,o),
(182,550,o),
(173,515,cs),
(177,530,o),
(139,401,o),
(94,202,cs),
(66,77,o),
(165,-11,o),
(322,-11,cs)
);
}
);
width = 687;
},
{
anchors = (
{
name = bottom;
pos = (253,0);
},
{
name = ogonek;
pos = (524,10);
},
{
name = top;
pos = (463,616);
},
{
name = topright;
pos = (778,616);
}
);
color = 1;
layerId = m004;
shapes = (
{
closed = 1;
nodes = (
(458,-11,o),
(549,78,o),
(594,204,cs),
(641,336,o),
(654,431,o),
(677,514,cs),
(689,557,o),
(727,588,o),
(769,588,c),
(776,616,l),
(558,616,l),
(552,592,l),
(618,582,o),
(640,536,o),
(626,481,cs),
(604,393,o),
(578,278,o),
(551,208,cs),
(513,108,o),
(446,36,o),
(333,36,cs),
(224,36,o),
(156,100,o),
(165,188,cs),
(172,255,o),
(210,385,o),
(242,503,cs),
(255,551,o),
(303,588,o),
(358,592,c),
(364,616,l),
(128,616,l),
(120,589,l),
(160,581,o),
(182,550,o),
(173,515,cs),
(177,530,o),
(139,401,o),
(94,202,cs),
(66,77,o),
(165,-11,o),
(322,-11,cs)
);
}
);
width = 687;
}
);
metricLeft = H;
metricRight = H;
unicode = 85;
},
{
glyphname = V;
lastChange = "2025-04-25 19:48:45 +0000";
layers = (
{
anchors = (
{
name = bottom;
pos = (271,0);
},
{
name = top;
pos = (481,616);
}
);
color = 4;
layerId = m003;
shapes = (
{
closed = 1;
nodes = (
(299,-24,l),
(415,153,o),
(624,444,o),
(667,505,cs),
(710,566,o),
(749,579,o),
(814,588,c),
(821,616,l),
(571,616,l),
(565,593,l),
(613,586,o),
(645,573,o),
(637,543,cs),
(631,521,o),
(610,488,o),
(585,452,cs),
(322,70,l),
(347,93,l),
(324,227,o),
(294,480,o),
(291,496,cs),
(288,512,o),
(287,528,o),
(291,543,cs),
(295,558,o),
(311,582,o),
(400,591,c),
(407,616,l),
(119,616,l),
(112,588,l),
(157,580,o),
(201,571,o),
(213,489,cs),
(286,-24,l)
);
}
);
width = 718;
},
{
anchors = (
{
name = bottom;
pos = (272,0);
},
{
name = top;
pos = (482,616);
}
);
color = 4;
layerId = m005;
shapes = (
{
closed = 1;
nodes = (
(300,-24,l),
(416,153,o),
(625,444,o),
(668,505,cs),
(711,566,o),
(750,579,o),
(815,588,c),
(822,616,l),
(572,616,l),
(566,593,l),
(614,586,o),
(646,573,o),
(638,543,cs),
(632,521,o),
(611,488,o),
(586,452,cs),
(323,70,l),
(348,93,l),
(325,227,o),
(295,480,o),
(292,496,cs),
(289,512,o),
(288,528,o),
(292,543,cs),
(296,558,o),
(312,582,o),
(401,591,c),
(408,616,l),
(120,616,l),
(113,588,l),
(158,580,o),
(202,571,o),
(214,489,cs),
(287,-24,l)
);
}
);
width = 720;
},
{
anchors = (
{
name = bottom;
pos = (223,0);
},
{
name = top;
pos = (433,616);
}
);
color = 4;
layerId = m006;
shapes = (
{
closed = 1;
nodes = (
(251,-24,l),
(367,153,o),
(576,444,o),
(619,505,cs),
(662,566,o),
(701,579,o),
(766,588,c),
(773,616,l),
(523,616,l),
(517,593,l),
(565,586,o),
(597,573,o),
(589,543,cs),
(583,521,o),
(562,488,o),
(537,452,cs),
(274,70,l),
(299,93,l),
(276,227,o),
(246,480,o),
(243,496,cs),
(240,512,o),
(239,528,o),
(243,543,cs),
(247,558,o),
(263,582,o),
(352,591,c),
(359,616,l),
(71,616,l),
(64,588,l),
(109,580,o),
(153,571,o),
(165,489,cs),
(238,-24,l)
);
}
);
width = 672;
},
{
anchors = (
{
name = bottom;
pos = (223,0);
},
{
name = top;
pos = (433,616);
}
);
color = 4;
layerId = m004;
shapes = (
{
closed = 1;
nodes = (
(251,-24,l),
(367,153,o),
(576,444,o),
(619,505,cs),
(662,566,o),
(701,579,o),
(766,588,c),
(773,616,l),
(523,616,l),
(517,593,l),
(565,586,o),
(597,573,o),
(589,543,cs),
(583,521,o),
(562,488,o),
(537,452,cs),
(274,70,l),
(299,93,l),
(276,227,o),
(246,480,o),
(243,496,cs),
(240,512,o),
(239,528,o),
(243,543,cs),
(247,558,o),
(263,582,o),
(352,591,c),
(359,616,l),
(71,616,l),
(64,588,l),
(109,580,o),
(153,571,o),
(165,489,cs),
(238,-24,l)
);
}
);
width = 672;
}
);
metricLeft = H;
metricRight = H;
unicode = 86;
},
{
glyphname = W;
lastChange = "2025-04-25 19:48:45 +0000";
layers = (
{
anchors = (
{
name = bottom;
pos = (398,0);
},
{
name = top;
pos = (608,616);
}
);
color = 4;
layerId = m003;
shapes = (
{
closed = 1;
nodes = (
(576,487,l),
(297,75,l),
(323,98,l),
(279,496,ls),
(272,562,o),
(269,582,o),
(356,591,c),
(363,616,l),
(119,616,l),
(112,588,l),
(149,579,o),
(195,572,o),
(205,489,cs),
(266,-24,l),
(279,-24,l),
(357,108,o),
(513,321,o),
(586,438,c)
);
},
{
closed = 1;
nodes = (
(597,-24,l),
(711,153,o),
(909,444,o),
(948,505,cs),
(987,566,o),
(989,576,o),
(1058,588,c),
(1065,616,l),
(867,616,l),
(860,591,l),
(939,570,o),
(925,533,o),
(870,452,cs),
(615,70,l),
(646,99,l),
(633,233,o),
(615,480,o),
(614,496,cs),
(610,572,o),
(626,582,o),
(696,591,c),
(703,616,l),
(469,616,l),
(462,591,l),
(506,584,o),
(535,572,o),
(542,489,cs),
(584,-24,l)
);
}
);
width = 962;
},
{
anchors = (
{
name = bottom;
pos = (399,0);
},
{
name = top;
pos = (609,616);
}
);
color = 4;
layerId = m005;
shapes = (
{
closed = 1;
nodes = (
(577,487,l),
(298,75,l),
(324,98,l),
(280,496,ls),
(273,562,o),
(270,582,o),
(357,591,c),
(364,616,l),
(120,616,l),
(113,588,l),
(150,579,o),
(196,572,o),
(206,489,cs),
(267,-24,l),
(280,-24,l),
(358,108,o),
(514,321,o),
(587,438,c)
);
},
{
closed = 1;
nodes = (
(598,-24,l),
(712,153,o),
(910,444,o),
(949,505,cs),
(988,566,o),
(990,576,o),
(1059,588,c),
(1066,616,l),
(868,616,l),
(861,591,l),
(940,570,o),
(926,533,o),
(871,452,cs),
(616,70,l),
(647,99,l),
(634,233,o),
(616,480,o),
(615,496,cs),
(611,572,o),
(627,582,o),
(697,591,c),
(704,616,l),
(470,616,l),
(463,591,l),
(507,584,o),
(536,572,o),
(543,489,cs),
(585,-24,l)
);
}
);
width = 964;
},
{
anchors = (
{
name = bottom;
pos = (350,0);
},
{
name = top;
pos = (560,616);
}
);
color = 4;
layerId = m006;
shapes = (
{
closed = 1;
nodes = (
(528,487,l),
(249,75,l),
(275,98,l),
(231,496,ls),
(224,562,o),
(221,582,o),
(308,591,c),
(315,616,l),
(71,616,l),
(64,588,l),
(101,579,o),
(147,572,o),
(157,489,cs),
(218,-24,l),
(231,-24,l),
(309,108,o),
(465,321,o),
(538,438,c)
);
},
{
closed = 1;
nodes = (
(549,-24,l),
(663,153,o),
(861,444,o),
(900,505,cs),
(939,566,o),
(941,576,o),
(1010,588,c),
(1017,616,l),
(819,616,l),
(812,591,l),
(891,570,o),
(877,533,o),
(822,452,cs),
(567,70,l),
(598,99,l),
(585,233,o),
(567,480,o),
(566,496,cs),
(562,572,o),
(578,582,o),
(648,591,c),
(655,616,l),
(421,616,l),
(414,591,l),
(458,584,o),
(487,572,o),
(494,489,cs),
(536,-24,l)
);
}
);
width = 916;
},
{
anchors = (
{
name = bottom;
pos = (350,0);
},
{
name = top;
pos = (560,616);
}
);
color = 4;
layerId = m004;
shapes = (
{
closed = 1;
nodes = (
(528,487,l),
(249,75,l),
(275,98,l),
(231,496,ls),
(224,562,o),
(221,582,o),
(308,591,c),
(315,616,l),
(71,616,l),
(64,588,l),
(101,579,o),
(147,572,o),
(157,489,cs),
(218,-24,l),
(231,-24,l),
(309,108,o),
(465,321,o),
(538,438,c)
);
},
{
closed = 1;
nodes = (
(549,-24,l),
(663,153,o),
(861,444,o),
(900,505,cs),
(939,566,o),
(941,576,o),
(1010,588,c),
(1017,616,l),
(819,616,l),
(812,591,l),
(891,570,o),
(877,533,o),
(822,452,cs),
(567,70,l),
(598,99,l),
(585,233,o),
(567,480,o),
(566,496,cs),
(562,572,o),
(578,582,o),
(648,591,c),
(655,616,l),
(421,616,l),
(414,591,l),
(458,584,o),
(487,572,o),
(494,489,cs),
(536,-24,l)
);
}
);
width = 916;
}
);
metricLeft = H;
metricRight = H;
unicode = 87;
},
{
glyphname = X;
lastChange = "2025-04-25 19:48:45 +0000";
layers = (
{
anchors = (
{
name = bottom;
pos = (257,0);
},
{
name = top;
pos = (467,616);
}
);
color = 4;
guides = (
{
angle = 53;
pos = (533,661);
}
);
layerId = m003;
shapes = (
{
closed = 1;
nodes = (
(568,0,l),
(575,28,l),
(536,33,o),
(510,26,o),
(471,114,cs),
(367,351,o),
(371,351,o),
(294,512,cs),
(281,541,o),
(277,555,o),
(281,566,cs),
(284,581,o),
(300,586,o),
(353,591,c),
(360,616,l),
(127,616,l),
(120,588,l),
(165,588,o),
(180,587,o),
(220,494,cs),
(311,286,o),
(317,286,o),
(394,105,cs),
(407,76,o),
(412,58,o),
(410,47,cs),
(405,30,o),
(401,29,o),
(331,25,c),
(324,0,l)
);
},
{
closed = 1;
nodes = (
(197,0,l),
(204,25,l),
(167,28,o),
(136,32,o),
(160,54,cs),
(170,63,o),
(176,77,o),
(205,112,cs),
(367,308,l),
(340,333,l),
(136,101,ls),
(49,3,o),
(23,30,o),
(-9,28,c),
(-16,0,l)
);
},
{
closed = 1;
nodes = (
(540,504,ls),
(621,599,o),
(665,585,o),
(705,588,c),
(712,616,l),
(490,616,l),
(483,591,l),
(524,588,o),
(532,586,o),
(528,567,cs),
(523,550,o),
(499,522,o),
(451,463,cs),
(351,340,l),
(380,315,l)
);
}
);
width = 638;
},
{
anchors = (
{
name = bottom;
pos = (259,0);
},
{
name = top;
pos = (469,616);
}
);
color = 4;
guides = (
{
angle = 53;
pos = (535,661);
}
);
layerId = m005;
shapes = (
{
closed = 1;
nodes = (
(570,0,l),
(577,28,l),
(538,33,o),
(512,26,o),
(473,114,cs),
(369,351,o),
(373,351,o),
(296,512,cs),
(283,541,o),
(279,555,o),
(283,566,cs),
(286,581,o),
(302,586,o),
(355,591,c),
(362,616,l),
(129,616,l),
(122,588,l),
(167,588,o),
(182,587,o),
(222,494,cs),
(313,286,o),
(319,286,o),
(396,105,cs),
(409,76,o),
(414,58,o),
(412,47,cs),
(407,30,o),
(403,29,o),
(333,25,c),
(326,0,l)
);
},
{
closed = 1;
nodes = (
(199,0,l),
(206,25,l),
(169,28,o),
(138,32,o),
(144,54,cs),
(147,67,o),
(158,79,o),
(189,112,cs),
(369,308,l),
(342,333,l),
(120,101,ls),
(38,15,o),
(25,30,o),
(-7,28,c),
(-14,0,l)
);
},
{
closed = 1;
nodes = (
(560,504,ls),
(637,586,o),
(667,585,o),
(707,588,c),
(714,616,l),
(492,616,l),
(485,591,l),
(526,588,o),
(552,586,o),
(548,567,cs),
(543,550,o),
(512,521,o),
(461,463,cs),
(353,340,l),
(382,315,l)
);
}
);
width = 642;
},
{
anchors = (
{
name = bottom;
pos = (261,0);
},
{
name = top;
pos = (471,616);
}
);
color = 4;
guides = (
{
angle = 53;
pos = (537,661);
}
);
layerId = m006;
shapes = (
{
closed = 1;
nodes = (
(572,0,l),
(579,28,l),
(540,33,o),
(514,26,o),
(475,114,cs),
(371,351,o),
(375,351,o),
(298,512,cs),
(285,541,o),
(281,555,o),
(285,566,cs),
(288,581,o),
(304,586,o),
(357,591,c),
(364,616,l),
(131,616,l),
(124,588,l),
(169,588,o),
(184,587,o),
(224,494,cs),
(315,286,o),
(321,286,o),
(398,105,cs),
(411,76,o),
(416,58,o),
(414,47,cs),
(409,30,o),
(405,29,o),
(335,25,c),
(328,0,l)
);
},
{
closed = 1;
nodes = (
(201,0,l),
(208,25,l),
(171,28,o),
(140,32,o),
(146,54,cs),
(149,67,o),
(160,79,o),
(191,112,cs),
(371,308,l),
(344,333,l),
(122,101,ls),
(40,15,o),
(27,30,o),
(-5,28,c),
(-12,0,l)
);
},
{
closed = 1;
nodes = (
(562,504,ls),
(639,586,o),
(669,585,o),
(709,588,c),
(716,616,l),
(494,616,l),
(487,591,l),
(528,588,o),
(554,586,o),
(550,567,cs),
(545,550,o),
(514,521,o),
(463,463,cs),
(355,340,l),
(384,315,l)
);
}
);
width = 646;
},
{
anchors = (
{
name = bottom;
pos = (261,0);
},
{
name = top;
pos = (471,616);
}
);
color = 4;
guides = (
{
angle = 53;
pos = (537,661);
}
);
layerId = m004;
shapes = (
{
closed = 1;
nodes = (
(572,0,l),
(579,28,l),
(540,33,o),
(514,26,o),
(475,114,cs),
(371,351,o),
(375,351,o),
(298,512,cs),
(285,541,o),
(281,555,o),
(285,566,cs),
(288,581,o),
(304,586,o),
(357,591,c),
(364,616,l),
(131,616,l),
(124,588,l),
(169,588,o),
(184,587,o),
(224,494,cs),
(315,286,o),
(321,286,o),
(398,105,cs),
(411,76,o),
(416,58,o),
(414,47,cs),
(409,30,o),
(405,29,o),
(335,25,c),
(328,0,l)
);
},
{
closed = 1;
nodes = (
(201,0,l),
(208,25,l),
(171,28,o),
(140,32,o),
(146,54,cs),
(149,67,o),
(160,79,o),
(191,112,cs),
(371,308,l),
(344,333,l),
(122,101,ls),
(40,15,o),
(27,30,o),
(-5,28,c),
(-12,0,l)
);
},
{
closed = 1;
nodes = (
(562,504,ls),
(639,586,o),
(669,585,o),
(709,588,c),
(716,616,l),
(494,616,l),
(487,591,l),
(528,588,o),
(554,586,o),
(550,567,cs),
(545,550,o),
(514,521,o),
(463,463,cs),
(355,340,l),
(384,315,l)
);
}
);
width = 646;
}
);
metricLeft = H;
metricRight = H;
unicode = 88;
},
{
glyphname = Y;
lastChange = "2025-04-25 19:48:45 +0000";
layers = (
{
anchors = (
{
name = bottom;
pos = (190,0);
},
{
name = top;
pos = (400,616);
},
{
name = topleft;
pos = (138,616);
}
);
color = 4;
layerId = m003;
shapes = (
{
closed = 1;
nodes = (
(374,0,l),
(381,28,l),
(312,33,o),
(266,30,o),
(282,93,cs),
(342,318,l),
(322,257,l),
(526,509,ls),
(591,590,o),
(629,588,o),
(642,588,c),
(649,616,l),
(451,616,l),
(444,591,l),
(513,581,o),
(524,565,o),
(477,505,c),
(318,306,l),
(322,307,l),
(260,525,l),
(247,586,o),
(248,585,o),
(318,591,c),
(325,616,l),
(119,616,l),
(112,588,l),
(147,588,o),
(173,581,o),
(179,556,cs),
(265,243,l),
(265,293,l),
(211,93,ls),
(197,38,o),
(133,33,o),
(85,28,c),
(78,0,l)
);
}
);
width = 546;
},
{
anchors = (
{
name = bottom;
pos = (191,0);
},
{
name = top;
pos = (401,616);
},
{
name = topleft;
pos = (139,616);
}
);
color = 4;
layerId = m005;
shapes = (
{
closed = 1;
nodes = (
(375,0,l),
(382,28,l),
(313,33,o),
(267,30,o),
(283,93,cs),
(343,318,l),
(323,257,l),
(527,509,ls),
(592,590,o),
(630,588,o),
(643,588,c),
(650,616,l),
(452,616,l),
(445,591,l),
(514,581,o),
(525,565,o),
(478,505,c),
(319,306,l),
(323,307,l),
(261,525,l),
(248,586,o),
(249,585,o),
(319,591,c),
(326,616,l),
(120,616,l),
(113,588,l),
(148,588,o),
(174,581,o),
(180,556,cs),
(266,243,l),
(266,293,l),
(212,93,ls),
(198,38,o),
(134,33,o),
(86,28,c),
(79,0,l)
);
}
);
width = 548;
},
{
anchors = (
{
name = bottom;
pos = (142,0);
},
{
name = top;
pos = (352,616);
},
{
name = topleft;
pos = (90,616);
}
);
color = 4;
layerId = m006;
shapes = (
{
closed = 1;
nodes = (
(326,0,l),
(333,28,l),
(264,33,o),
(218,30,o),
(234,93,cs),
(294,318,l),
(274,257,l),
(478,509,ls),
(543,590,o),
(581,588,o),
(594,588,c),
(601,616,l),
(403,616,l),
(396,591,l),
(465,581,o),
(476,565,o),
(429,505,c),
(270,306,l),
(274,307,l),
(212,525,l),
(199,586,o),
(200,585,o),
(270,591,c),
(277,616,l),
(71,616,l),
(64,588,l),
(99,588,o),
(125,581,o),
(131,556,cs),
(217,243,l),
(217,293,l),
(163,93,ls),
(149,38,o),
(85,33,o),
(37,28,c),
(30,0,l)
);
}
);
width = 500;
},
{
anchors = (
{
name = bottom;
pos = (142,0);
},
{
name = top;
pos = (352,616);
},
{
name = topleft;
pos = (90,616);
}
);
color = 4;
layerId = m004;
shapes = (
{
closed = 1;
nodes = (
(326,0,l),
(333,28,l),
(264,33,o),
(218,30,o),
(234,93,cs),
(294,318,l),
(274,257,l),
(478,509,ls),
(543,590,o),
(581,588,o),
(594,588,c),
(601,616,l),
(403,616,l),
(396,591,l),
(465,581,o),
(476,565,o),
(429,505,c),
(270,306,l),
(274,307,l),
(212,525,l),
(199,586,o),
(200,585,o),
(270,591,c),
(277,616,l),
(71,616,l),
(64,588,l),
(99,588,o),
(125,581,o),
(131,556,cs),
(217,243,l),
(217,293,l),
(163,93,ls),
(149,38,o),
(85,33,o),
(37,28,c),
(30,0,l)
);
}
);
width = 500;
}
);
metricLeft = H;
metricRight = H;
unicode = 89;
},
{
glyphname = Z;
lastChange = "2025-04-25 19:48:45 +0000";
layers = (
{
anchors = (
{
name = bottom;
pos = (251,0);
},
{
name = center;
pos = (356,308);
},
{
name = top;
pos = (461,616);
}
);
color = 4;
layerId = m003;
shapes = (
{
closed = 1;
nodes = (
(121,0,o),
(306,1,o),
(335,1,cs),
(365,1,o),
(435,1,o),
(476,-2,c),
(517,57,o),
(562,143,o),
(589,210,c),
(555,210,l),
(530,154,o),
(458,43,o),
(309,41,cs),
(106,38,l),
(102,24,l),
(664,594,l),
(659,621,l),
(581,616,o),
(426,615,o),
(378,615,cs),
(330,615,o),
(229,611,o),
(190,617,c),
(164,554,o),
(141,490,o),
(124,427,c),
(152,427,l),
(176,479,o),
(190,576,o),
(325,576,cs),
(400,576,o),
(506,574,o),
(563,572,c),
(566,596,l),
(-11,12,l),
(-6,0,l)
);
}
);
width = 635;
},
{
anchors = (
{
name = bottom;
pos = (256,0);
},
{
name = center;
pos = (361,308);
},
{
name = top;
pos = (466,616);
}
);
color = 4;
layerId = m005;
shapes = (
{
closed = 1;
nodes = (
(126,0,o),
(311,1,o),
(340,1,cs),
(370,1,o),
(440,1,o),
(481,-2,c),
(522,57,o),
(567,143,o),
(594,210,c),
(560,210,l),
(535,154,o),
(463,43,o),
(314,41,cs),
(111,38,l),
(107,24,l),
(669,594,l),
(664,621,l),
(586,616,o),
(431,615,o),
(383,615,cs),
(335,615,o),
(234,611,o),
(195,617,c),
(169,554,o),
(146,490,o),
(129,427,c),
(157,427,l),
(181,479,o),
(195,576,o),
(330,576,cs),
(405,576,o),
(511,574,o),
(568,572,c),
(571,596,l),
(-6,12,l),
(-1,0,l)
);
}
);
width = 646;
},
{
anchors = (
{
name = bottom;
pos = (271,0);
},
{
name = center;
pos = (376,308);
},
{
name = top;
pos = (481,616);
}
);
color = 4;
layerId = m006;
shapes = (
{
closed = 1;
nodes = (
(141,0,o),
(326,1,o),
(355,1,cs),
(385,1,o),
(455,1,o),
(496,-2,c),
(537,57,o),
(582,143,o),
(609,210,c),
(575,210,l),
(550,154,o),
(478,43,o),
(329,41,cs),
(126,38,l),
(122,24,l),
(684,594,l),
(679,621,l),
(601,616,o),
(446,615,o),
(398,615,cs),
(350,615,o),
(249,611,o),
(210,617,c),
(184,554,o),
(161,490,o),
(144,427,c),
(172,427,l),
(196,479,o),
(210,576,o),
(345,576,cs),
(420,576,o),
(526,574,o),
(583,572,c),
(586,596,l),
(9,12,l),
(14,0,l)
);
}
);
width = 657;
},
{
anchors = (
{
name = bottom;
pos = (271,0);
},
{
name = center;
pos = (376,308);
},
{
name = top;
pos = (481,616);
}
);
color = 4;
layerId = m004;
shapes = (
{
closed = 1;
nodes = (
(141,0,o),
(326,1,o),
(355,1,cs),
(385,1,o),
(455,1,o),
(496,-2,c),
(537,57,o),
(582,143,o),
(609,210,c),
(575,210,l),
(550,154,o),
(478,43,o),
(329,41,cs),
(126,38,l),
(122,24,l),
(684,594,l),
(679,621,l),
(601,616,o),
(446,615,o),
(398,615,cs),
(350,615,o),
(249,611,o),
(210,617,c),
(184,554,o),
(161,490,o),
(144,427,c),
(172,427,l),
(196,479,o),
(210,576,o),
(345,576,cs),
(420,576,o),
(526,574,o),
(583,572,c),
(586,596,l),
(9,12,l),
(14,0,l)
);
}
);
width = 657;
}
);
metricLeft = H;
metricRight = H;
unicode = 90;
},
{
glyphname = a;
lastChange = "2025-05-17 05:24:12 +0000";
layers = (
{
anchors = (
{
name = bottom;
pos = (148,0);
},
{
name = ogonek;
pos = (330,10);
},
{
name = top;
pos = (289,401);
}
);
background = {
shapes = (
{
closed = 1;
nodes = (
(367,408,o),
(339,404,o),
(319,405,c),
(300,332,o),
(280,277,o),
(267,229,cs),
(247,155,o),
(234,99,o),
(230,73,cs),
(221,21,o),
(232,-8,o),
(259,-8,cs),
(290,-8,o),
(342,33,o),
(403,106,c),
(380,127,l),
(346,83,o),
(321,58,o),
(308,58,cs),
(294,58,o),
(295,91,o),
(310,149,cs),
(336,242,o),
(366,337,o),
(396,415,c)
);
},
{
closed = 1;
nodes = (
(35,-3,o),
(63,1,o),
(83,0,c),
(102,73,o),
(122,128,o),
(135,176,cs),
(155,250,o),
(168,306,o),
(172,332,cs),
(181,384,o),
(170,413,o),
(143,413,cs),
(112,413,o),
(60,372,o),
(-1,299,c),
(22,278,l),
(56,322,o),
(81,347,o),
(94,347,cs),
(108,347,o),
(107,314,o),
(92,256,cs),
(66,163,o),
(36,68,o),
(6,-10,c)
);
}
);
};
layerId = m003;
shapes = (
{
closed = 1;
nodes = (
(135,-10,o),
(221,53,o),
(299,208,c),
(291,249,l),
(233,132,o),
(152,46,o),
(111,46,cs),
(83,46,o),
(80,97,o),
(95,156,cs),
(129,284,o),
(196,366,o),
(260,366,cs),
(281,366,o),
(310,355,o),
(320,333,c),
(347,388,l),
(331,396,o),
(298,402,o),
(283,402,cs),
(174,402,o),
(65,286,o),
(19,121,cs),
(-2,44,o),
(19,-10,o),
(70,-10,cs)
);
},
{
closed = 1;
nodes = (
(303,-6,o),
(355,39,o),
(405,106,c),
(386,124,l),
(352,87,o),
(324,60,o),
(314,60,cs),
(303,60,o),
(302,99,o),
(315,156,cs),
(329,220,o),
(366,327,o),
(403,415,c),
(380,408,o),
(354,404,o),
(334,405,c),
(326,376,o),
(298,292,o),
(274,201,cs),
(241,77,o),
(229,-6,o),
(270,-6,cs)
);
}
);
width = 406;
},
{
associatedMasterId = m003;
layerId = "0DE6FB79-B0B6-414C-BAFE-4B31CAFD69E7";
name = "7. Nov. 24, 00:06";
shapes = (
{
closed = 1;
nodes = (
(386,427,l),
(364,443,o),
(341,460,o),
(326,460,cs),
(253,460,o),
(163,346,o),
(113,184,cs),
(95,125,o),
(89,76,o),
(108,76,cs),
(131,76,o),
(206,136,o),
(276,208,c),
(293,190,l),
(187,77,o),
(81,-10,o),
(46,-10,cs),
(-3,-10,o),
(-12,61,o),
(16,152,cs),
(81,363,o),
(222,508,o),
(354,508,cs),
(374,508,o),
(402,493,o),
(424,476,c)
);
},
{
closed = 1;
nodes = (
(457,500,l),
(414,395,o),
(364,261,o),
(334,177,cs),
(307,105,o),
(302,54,o),
(322,54,cs),
(345,54,o),
(386,119,o),
(421,210,c),
(451,210,l),
(402,82,o),
(324,-8,o),
(263,-8,cs),
(220,-8,o),
(211,51,o),
(242,135,cs),
(211,52,o),
(288,250,o),
(382,500,c)
);
}
);
width = 467;
},
{
associatedMasterId = m003;
background = {
shapes = (
{
closed = 1;
nodes = (
(200,83,o),
(113,-8,o),
(67,-8,cs),
(3,-8,o),
(-18,54,o),
(15,141,cs),
(38,202,o),
(65,270,o),
(82,315,cs),
(109,387,o),
(115,438,o),
(96,438,cs),
(72,438,o),
(29,373,o),
(-8,282,c),
(-38,282,l),
(15,414,o),
(95,508,o),
(155,508,cs),
(199,508,o),
(206,445,o),
(173,357,cs),
(136,259,o),
(109,190,o),
(109,192,cs),
(83,118,o),
(83,66,o),
(110,66,cs),
(145,66,o),
(215,145,o),
(277,257,c),
(277,212,l)
);
},
{
closed = 1;
nodes = (
(442,500,l),
(402,401,o),
(351,268,o),
(319,177,cs),
(292,105,o),
(287,54,o),
(307,54,cs),
(330,54,o),
(371,119,o),
(406,210,c),
(436,210,l),
(387,82,o),
(309,-8,o),
(248,-8,cs),
(205,-8,o),
(196,51,o),
(227,135,cs),
(196,52,o),
(273,250,o),
(367,500,c)
);
}
);
};
layerId = "90AB4BE1-A270-4CBB-8974-CA3C0A24FD98";
name = "8. Nov. 24, 10:52";
shapes = (
{
closed = 1;
nodes = (
(376,417,l),
(343,441,o),
(313,452,o),
(286,452,cs),
(209,452,o),
(152,362,o),
(103,205,cs),
(89,162,o),
(82,126,o),
(82,101,cs),
(82,79,o),
(101,56,o),
(112,56,cs),
(166,56,o),
(230,120,o),
(286,197,c),
(293,190,l),
(221,73,o),
(135,-10,o),
(86,-10,cs),
(16,-10,o),
(-13,57,o),
(16,152,cs),
(80,361,o),
(220,508,o),
(354,508,cs),
(372,508,o),
(401,495,o),
(424,476,c)
);
},
{
closed = 1;
nodes = (
(460,508,l),
(424,421,o),
(372,284,o),
(334,177,cs),
(307,105,o),
(302,54,o),
(322,54,cs),
(345,54,o),
(386,119,o),
(421,210,c),
(451,210,l),
(402,82,o),
(324,-8,o),
(263,-8,cs),
(220,-8,o),
(211,51,o),
(242,135,cs),
(211,52,o),
(288,250,o),
(382,500,c)
);
},
{
closed = 1;
nodes = (
(89,-10,o),
(183,73,o),
(293,190,c),
(276,208,l),
(195,125,o),
(126,66,o),
(109,66,cs),
(83,66,o),
(82,115,o),
(107,184,cs),
(166,346,o),
(257,460,o),
(326,460,cs),
(335,460,o),
(359,446,o),
(386,427,c),
(424,476,l),
(400,495,o),
(371,508,o),
(354,508,cs),
(232,508,o),
(91,361,o),
(15,152,cs),
(-19,57,o),
(2,-10,o),
(66,-10,cs)
);
}
);
width = 467;
},
{
anchors = (
{
name = bottom;
pos = (138,0);
},
{
name = ogonek;
pos = (320,10);
},
{
name = top;
pos = (279,401);
}
);
background = {
shapes = (
{
closed = 1;
nodes = (
(160,0,o),
(246,63,o),
(324,218,c),
(316,259,l),
(258,142,o),
(177,56,o),
(136,56,cs),
(108,56,o),
(105,107,o),
(120,166,cs),
(154,294,o),
(221,376,o),
(285,376,cs),
(306,376,o),
(335,365,o),
(345,343,c),
(372,398,l),
(356,406,o),
(323,412,o),
(308,412,cs),
(199,412,o),
(90,296,o),
(44,131,cs),
(23,54,o),
(44,0,o),
(95,0,cs)
);
},
{
closed = 1;
nodes = (
(328,4,o),
(380,49,o),
(430,116,c),
(411,134,l),
(377,97,o),
(349,70,o),
(339,70,cs),
(328,70,o),
(327,109,o),
(340,166,cs),
(354,230,o),
(391,337,o),
(428,425,c),
(405,418,o),
(379,414,o),
(359,415,c),
(351,386,o),
(323,302,o),
(299,211,cs),
(266,87,o),
(254,4,o),
(295,4,cs)
);
}
);
};
layerId = m005;
shapes = (
{
closed = 1;
nodes = (
(149,-10,o),
(260,80,o),
(324,208,c),
(316,249,l),
(260,136,o),
(185,56,o),
(136,56,cs),
(111,56,o),
(114,102,o),
(130,166,cs),
(163,289,o),
(221,376,o),
(285,376,cs),
(319,376,o),
(344,362,o),
(353,343,c),
(360,398,l),
(344,406,o),
(317,412,o),
(288,412,cs),
(170,412,o),
(62,291,o),
(14,121,cs),
(-7,44,o),
(4,-10,o),
(55,-10,cs)
);
},
{
closed = 1;
nodes = (
(319,-6,o),
(391,40,o),
(440,106,c),
(421,124,l),
(387,89,o),
(355,62,o),
(348,62,cs),
(336,62,o),
(337,110,o),
(350,166,cs),
(363,224,o),
(405,331,o),
(446,425,c),
(420,417,o),
(376,412,o),
(337,415,c),
(285,258,o),
(274,218,o),
(269,201,cs),
(236,79,o),
(235,-6,o),
(265,-6,cs)
);
}
);
width = 432;
},
{
associatedMasterId = m005;
layerId = "10EA339C-69EC-4DCB-A147-72D2BBFFF5B2";
name = "7. Nov. 24, 00:06";
shapes = (
{
closed = 1;
nodes = (
(386,427,l),
(364,443,o),
(341,460,o),
(326,460,cs),
(253,460,o),
(163,346,o),
(113,184,cs),
(95,125,o),
(89,76,o),
(108,76,cs),
(131,76,o),
(206,136,o),
(276,208,c),
(293,190,l),
(187,77,o),
(81,-10,o),
(46,-10,cs),
(-3,-10,o),
(-12,61,o),
(16,152,cs),
(81,363,o),
(222,508,o),
(354,508,cs),
(374,508,o),
(402,493,o),
(424,476,c)
);
},
{
closed = 1;
nodes = (
(457,500,l),
(414,395,o),
(364,261,o),
(334,177,cs),
(307,105,o),
(302,54,o),
(322,54,cs),
(345,54,o),
(386,119,o),
(421,210,c),
(451,210,l),
(402,82,o),
(324,-8,o),
(263,-8,cs),
(220,-8,o),
(211,51,o),
(242,135,cs),
(211,52,o),
(288,250,o),
(382,500,c)
);
}
);
width = 467;
},
{
associatedMasterId = m005;
background = {
shapes = (
{
closed = 1;
nodes = (
(200,83,o),
(113,-8,o),
(67,-8,cs),
(3,-8,o),
(-18,54,o),
(15,141,cs),
(38,202,o),
(65,270,o),
(82,315,cs),
(109,387,o),
(115,438,o),
(96,438,cs),
(72,438,o),
(29,373,o),
(-8,282,c),
(-38,282,l),
(15,414,o),
(95,508,o),
(155,508,cs),
(199,508,o),
(206,445,o),
(173,357,cs),
(136,259,o),
(109,190,o),
(109,192,cs),
(83,118,o),
(83,66,o),
(110,66,cs),
(145,66,o),
(215,145,o),
(277,257,c),
(277,212,l)
);
},
{
closed = 1;
nodes = (
(442,500,l),
(402,401,o),
(351,268,o),
(319,177,cs),
(292,105,o),
(287,54,o),
(307,54,cs),
(330,54,o),
(371,119,o),
(406,210,c),
(436,210,l),
(387,82,o),
(309,-8,o),
(248,-8,cs),
(205,-8,o),
(196,51,o),
(227,135,cs),
(196,52,o),
(273,250,o),
(367,500,c)
);
}
);
};
layerId = "666B13F9-79DA-4CA3-9B8C-4FAAE2CA906D";
name = "8. Nov. 24, 10:52";
shapes = (
{
closed = 1;
nodes = (
(376,417,l),
(343,441,o),
(313,452,o),
(286,452,cs),
(209,452,o),
(152,362,o),
(103,205,cs),
(89,162,o),
(82,126,o),
(82,101,cs),
(82,79,o),
(101,56,o),
(112,56,cs),
(166,56,o),
(230,120,o),
(286,197,c),
(293,190,l),
(221,73,o),
(135,-10,o),
(86,-10,cs),
(16,-10,o),
(-13,57,o),
(16,152,cs),
(80,361,o),
(220,508,o),
(354,508,cs),
(372,508,o),
(401,495,o),
(424,476,c)
);
},
{
closed = 1;
nodes = (
(460,508,l),
(424,421,o),
(372,284,o),
(334,177,cs),
(307,105,o),
(302,54,o),
(322,54,cs),
(345,54,o),
(386,119,o),
(421,210,c),
(451,210,l),
(402,82,o),
(324,-8,o),
(263,-8,cs),
(220,-8,o),
(211,51,o),
(242,135,cs),
(211,52,o),
(288,250,o),
(382,500,c)
);
},
{
closed = 1;
nodes = (
(89,-10,o),
(183,73,o),
(293,190,c),
(276,208,l),
(195,125,o),
(126,66,o),
(109,66,cs),
(83,66,o),
(82,115,o),
(107,184,cs),
(166,346,o),
(257,460,o),
(326,460,cs),
(335,460,o),
(359,446,o),
(386,427,c),
(424,476,l),
(400,495,o),
(371,508,o),
(354,508,cs),
(232,508,o),
(91,361,o),
(15,152,cs),
(-19,57,o),
(2,-10,o),
(66,-10,cs)
);
}
);
width = 467;
},
{
anchors = (
{
name = bottom;
pos = (143,0);
},
{
name = ogonek;
pos = (325,10);
},
{
name = top;
pos = (284,401);
}
);
background = {
shapes = (
{
closed = 1;
nodes = (
(362,408,o),
(334,404,o),
(314,405,c),
(295,332,o),
(275,277,o),
(262,229,cs),
(242,155,o),
(229,99,o),
(225,73,cs),
(216,21,o),
(227,-8,o),
(254,-8,cs),
(285,-8,o),
(337,33,o),
(398,106,c),
(375,127,l),
(341,83,o),
(316,58,o),
(303,58,cs),
(289,58,o),
(290,91,o),
(305,149,cs),
(331,242,o),
(361,337,o),
(391,415,c)
);
},
{
closed = 1;
nodes = (
(30,-3,o),
(58,1,o),
(78,0,c),
(97,73,o),
(117,128,o),
(130,176,cs),
(150,250,o),
(163,306,o),
(167,332,cs),
(176,384,o),
(165,413,o),
(138,413,cs),
(107,413,o),
(55,372,o),
(-6,299,c),
(17,278,l),
(51,322,o),
(76,347,o),
(89,347,cs),
(103,347,o),
(102,314,o),
(87,256,cs),
(61,163,o),
(31,68,o),
(1,-10,c)
);
}
);
};
layerId = m006;
shapes = (
{
closed = 1;
nodes = (
(130,-10,o),
(236,53,o),
(314,208,c),
(306,249,l),
(248,132,o),
(147,46,o),
(106,46,cs),
(78,46,o),
(75,97,o),
(90,156,cs),
(124,284,o),
(191,366,o),
(255,366,cs),
(276,366,o),
(325,355,o),
(335,333,c),
(362,388,l),
(346,396,o),
(293,402,o),
(278,402,cs),
(169,402,o),
(60,286,o),
(14,121,cs),
(-7,44,o),
(14,-10,o),
(65,-10,cs)
);
},
{
closed = 1;
nodes = (
(316,-6,o),
(368,39,o),
(418,106,c),
(399,124,l),
(365,87,o),
(337,60,o),
(327,60,cs),
(316,60,o),
(315,99,o),
(328,156,cs),
(342,220,o),
(379,327,o),
(416,415,c),
(393,408,o),
(367,404,o),
(347,405,c),
(339,376,o),
(311,292,o),
(287,201,cs),
(254,77,o),
(242,-6,o),
(283,-6,cs)
);
}
);
width = 432;
},
{
associatedMasterId = m006;
layerId = "055F6FAB-59EA-4237-BC34-EE106C920511";
name = "7. Nov. 24, 00:06";
shapes = (
{
closed = 1;
nodes = (
(386,427,l),
(364,443,o),
(341,460,o),
(326,460,cs),
(253,460,o),
(163,346,o),
(113,184,cs),
(95,125,o),
(89,76,o),
(108,76,cs),
(131,76,o),
(206,136,o),
(276,208,c),
(293,190,l),
(187,77,o),
(81,-10,o),
(46,-10,cs),
(-3,-10,o),
(-12,61,o),
(16,152,cs),
(81,363,o),
(222,508,o),
(354,508,cs),
(374,508,o),
(402,493,o),
(424,476,c)
);
},
{
closed = 1;
nodes = (
(457,500,l),
(414,395,o),
(364,261,o),
(334,177,cs),
(307,105,o),
(302,54,o),
(322,54,cs),
(345,54,o),
(386,119,o),
(421,210,c),
(451,210,l),
(402,82,o),
(324,-8,o),
(263,-8,cs),
(220,-8,o),
(211,51,o),
(242,135,cs),
(211,52,o),
(288,250,o),
(382,500,c)
);
}
);
width = 467;
},
{
associatedMasterId = m006;
background = {
shapes = (
{
closed = 1;
nodes = (
(200,83,o),
(113,-8,o),
(67,-8,cs),
(3,-8,o),
(-18,54,o),
(15,141,cs),
(38,202,o),
(65,270,o),
(82,315,cs),
(109,387,o),
(115,438,o),
(96,438,cs),
(72,438,o),
(29,373,o),
(-8,282,c),
(-38,282,l),
(15,414,o),
(95,508,o),
(155,508,cs),
(199,508,o),
(206,445,o),
(173,357,cs),
(136,259,o),
(109,190,o),
(109,192,cs),
(83,118,o),
(83,66,o),
(110,66,cs),
(145,66,o),
(215,145,o),
(277,257,c),
(277,212,l)
);
},
{
closed = 1;
nodes = (
(442,500,l),
(402,401,o),
(351,268,o),
(319,177,cs),
(292,105,o),
(287,54,o),
(307,54,cs),
(330,54,o),
(371,119,o),
(406,210,c),
(436,210,l),
(387,82,o),
(309,-8,o),
(248,-8,cs),
(205,-8,o),
(196,51,o),
(227,135,cs),
(196,52,o),
(273,250,o),
(367,500,c)
);
}
);
};
layerId = "35414ED7-2FBB-4232-BD21-3C277C9D7EDF";
name = "8. Nov. 24, 10:52";
shapes = (
{
closed = 1;
nodes = (
(376,417,l),
(343,441,o),
(313,452,o),
(286,452,cs),
(209,452,o),
(152,362,o),
(103,205,cs),
(89,162,o),
(82,126,o),
(82,101,cs),
(82,79,o),
(101,56,o),
(112,56,cs),
(166,56,o),
(230,120,o),
(286,197,c),
(293,190,l),
(221,73,o),
(135,-10,o),
(86,-10,cs),
(16,-10,o),
(-13,57,o),
(16,152,cs),
(80,361,o),
(220,508,o),
(354,508,cs),
(372,508,o),
(401,495,o),
(424,476,c)
);
},
{
closed = 1;
nodes = (
(460,508,l),
(424,421,o),
(372,284,o),
(334,177,cs),
(307,105,o),
(302,54,o),
(322,54,cs),
(345,54,o),
(386,119,o),
(421,210,c),
(451,210,l),
(402,82,o),
(324,-8,o),
(263,-8,cs),
(220,-8,o),
(211,51,o),
(242,135,cs),
(211,52,o),
(288,250,o),
(382,500,c)
);
},
{
closed = 1;
nodes = (
(89,-10,o),
(183,73,o),
(293,190,c),
(276,208,l),
(195,125,o),
(126,66,o),
(109,66,cs),
(83,66,o),
(82,115,o),
(107,184,cs),
(166,346,o),
(257,460,o),
(326,460,cs),
(335,460,o),
(359,446,o),
(386,427,c),
(424,476,l),
(400,495,o),
(371,508,o),
(354,508,cs),
(232,508,o),
(91,361,o),
(15,152,cs),
(-19,57,o),
(2,-10,o),
(66,-10,cs)
);
}
);
width = 467;
},
{
anchors = (
{
name = bottom;
pos = (143,0);
},
{
name = ogonek;
pos = (325,10);
},
{
name = top;
pos = (284,401);
}
);
background = {
shapes = (
{
closed = 1;
nodes = (
(362,408,o),
(334,404,o),
(314,405,c),
(295,332,o),
(275,277,o),
(262,229,cs),
(242,155,o),
(229,99,o),
(225,73,cs),
(216,21,o),
(227,-8,o),
(254,-8,cs),
(285,-8,o),
(337,33,o),
(398,106,c),
(375,127,l),
(341,83,o),
(316,58,o),
(303,58,cs),
(289,58,o),
(290,91,o),
(305,149,cs),
(331,242,o),
(361,337,o),
(391,415,c)
);
},
{
closed = 1;
nodes = (
(30,-3,o),
(58,1,o),
(78,0,c),
(97,73,o),
(117,128,o),
(130,176,cs),
(150,250,o),
(163,306,o),
(167,332,cs),
(176,384,o),
(165,413,o),
(138,413,cs),
(107,413,o),
(55,372,o),
(-6,299,c),
(17,278,l),
(51,322,o),
(76,347,o),
(89,347,cs),
(103,347,o),
(102,314,o),
(87,256,cs),
(61,163,o),
(31,68,o),
(1,-10,c)
);
}
);
};
layerId = m004;
shapes = (
{
closed = 1;
nodes = (
(130,-10,o),
(196,53,o),
(274,208,c),
(266,249,l),
(208,132,o),
(147,46,o),
(106,46,cs),
(78,46,o),
(75,97,o),
(90,156,cs),
(124,284,o),
(191,366,o),
(255,366,cs),
(276,366,o),
(285,355,o),
(295,333,c),
(322,388,l),
(306,396,o),
(293,402,o),
(278,402,cs),
(169,402,o),
(60,286,o),
(14,121,cs),
(-7,44,o),
(14,-10,o),
(65,-10,cs)
);
},
{
closed = 1;
nodes = (
(280,-6,o),
(332,39,o),
(382,106,c),
(363,124,l),
(329,87,o),
(301,60,o),
(291,60,cs),
(280,60,o),
(279,99,o),
(292,156,cs),
(306,220,o),
(343,327,o),
(380,415,c),
(357,408,o),
(331,404,o),
(311,405,c),
(303,376,o),
(275,292,o),
(251,201,cs),
(218,77,o),
(206,-6,o),
(247,-6,cs)
);
}
);
width = 396;
},
{
associatedMasterId = m004;
layerId = "388972C2-8DD8-4612-BAD0-89494EED95A5";
name = "7. Nov. 24, 00:06";
shapes = (
{
closed = 1;
nodes = (
(386,427,l),
(364,443,o),
(341,460,o),
(326,460,cs),
(253,460,o),
(163,346,o),
(113,184,cs),
(95,125,o),
(89,76,o),
(108,76,cs),
(131,76,o),
(206,136,o),
(276,208,c),
(293,190,l),
(187,77,o),
(81,-10,o),
(46,-10,cs),
(-3,-10,o),
(-12,61,o),
(16,152,cs),
(81,363,o),
(222,508,o),
(354,508,cs),
(374,508,o),
(402,493,o),
(424,476,c)
);
},
{
closed = 1;
nodes = (
(457,500,l),
(414,395,o),
(364,261,o),
(334,177,cs),
(307,105,o),
(302,54,o),
(322,54,cs),
(345,54,o),
(386,119,o),
(421,210,c),
(451,210,l),
(402,82,o),
(324,-8,o),
(263,-8,cs),
(220,-8,o),
(211,51,o),
(242,135,cs),
(211,52,o),
(288,250,o),
(382,500,c)
);
}
);
width = 467;
},
{
associatedMasterId = m004;
background = {
shapes = (
{
closed = 1;
nodes = (
(200,83,o),
(113,-8,o),
(67,-8,cs),
(3,-8,o),
(-18,54,o),
(15,141,cs),
(38,202,o),
(65,270,o),
(82,315,cs),
(109,387,o),
(115,438,o),
(96,438,cs),
(72,438,o),
(29,373,o),
(-8,282,c),
(-38,282,l),
(15,414,o),
(95,508,o),
(155,508,cs),
(199,508,o),
(206,445,o),
(173,357,cs),
(136,259,o),
(109,190,o),
(109,192,cs),
(83,118,o),
(83,66,o),
(110,66,cs),
(145,66,o),
(215,145,o),
(277,257,c),
(277,212,l)
);
},
{
closed = 1;
nodes = (
(442,500,l),
(402,401,o),
(351,268,o),
(319,177,cs),
(292,105,o),
(287,54,o),
(307,54,cs),
(330,54,o),
(371,119,o),
(406,210,c),
(436,210,l),
(387,82,o),
(309,-8,o),
(248,-8,cs),
(205,-8,o),
(196,51,o),
(227,135,cs),
(196,52,o),
(273,250,o),
(367,500,c)
);
}
);
};
layerId = "50774F7B-9293-42EE-96B9-54DCA7EEAAAE";
name = "8. Nov. 24, 10:52";
shapes = (
{
closed = 1;
nodes = (
(376,417,l),
(343,441,o),
(313,452,o),
(286,452,cs),
(209,452,o),
(152,362,o),
(103,205,cs),
(89,162,o),
(82,126,o),
(82,101,cs),
(82,79,o),
(101,56,o),
(112,56,cs),
(166,56,o),
(230,120,o),
(286,197,c),
(293,190,l),
(221,73,o),
(135,-10,o),
(86,-10,cs),
(16,-10,o),
(-13,57,o),
(16,152,cs),
(80,361,o),
(220,508,o),
(354,508,cs),
(372,508,o),
(401,495,o),
(424,476,c)
);
},
{
closed = 1;
nodes = (
(460,508,l),
(424,421,o),
(372,284,o),
(334,177,cs),
(307,105,o),
(302,54,o),
(322,54,cs),
(345,54,o),
(386,119,o),
(421,210,c),
(451,210,l),
(402,82,o),
(324,-8,o),
(263,-8,cs),
(220,-8,o),
(211,51,o),
(242,135,cs),
(211,52,o),
(288,250,o),
(382,500,c)
);
},
{
closed = 1;
nodes = (
(89,-10,o),
(183,73,o),
(293,190,c),
(276,208,l),
(195,125,o),
(126,66,o),
(109,66,cs),
(83,66,o),
(82,115,o),
(107,184,cs),
(166,346,o),
(257,460,o),
(326,460,cs),
(335,460,o),
(359,446,o),
(386,427,c),
(424,476,l),
(400,495,o),
(371,508,o),
(354,508,cs),
(232,508,o),
(91,361,o),
(15,152,cs),
(-19,57,o),
(2,-10,o),
(66,-10,cs)
);
}
);
width = 467;
}
);
metricLeft = o;
unicode = 97;
},
{
glyphname = b;
lastChange = "2025-05-17 05:36:06 +0000";
layers = (
{
anchors = (
{
name = bottom;
pos = (181,0);
},
{
name = center;
pos = (192,510);
},
{
name = top;
pos = (275,402);
}
);
background = {
shapes = (
{
closed = 1;
nodes = (
(232,-15,o),
(344,91,o),
(385,241,cs),
(411,336,o),
(381,404,o),
(313,404,cs),
(242,404,o),
(164,373,o),
(124,330,c),
(127,285,l),
(158,324,o),
(219,352,o),
(275,352,cs),
(314,352,o),
(326,294,o),
(304,212,cs),
(276,101,o),
(210,23,o),
(145,23,cs),
(112,23,o),
(99,59,o),
(114,110,cs),
(165,303,o),
(231,526,o),
(273,647,c),
(93,635,l),
(89,606,l),
(138,609,o),
(158,608,o),
(167,593,cs),
(174,582,o),
(166,563,o),
(156,525,cs),
(34,82,ls),
(18,25,o),
(51,-15,o),
(114,-15,cs)
);
}
);
};
layerId = m003;
shapes = (
{
closed = 1;
nodes = (
(186,-8,o),
(145,26,o),
(136,27,cs),
(108,29,o),
(93,45,o),
(103,85,c),
(123,151,o),
(151,242,o),
(171,308,cs),
(194,385,o),
(217,461,o),
(240,538,c),
(254,589,o),
(267,624,o),
(274,648,c),
(232,641,o),
(172,636,o),
(130,636,c),
(123,611,l),
(146,609,o),
(168,599,o),
(176,587,cs),
(182,579,o),
(180,552,o),
(171,521,c),
(151,455,o),
(131,389,o),
(111,323,cs),
(87,245,o),
(58,160,o),
(34,82,c),
(24,45,o),
(67,-8,o),
(149,-8,cs)
);
},
{
closed = 1;
nodes = (
(145,323,l),
(184,352,o),
(208,373,o),
(251,373,cs),
(307,373,o),
(341,309,o),
(315,214,cs),
(285,104,o),
(209,27,o),
(136,27,cs),
(119,27,o),
(118,-8,o),
(149,-8,cs),
(253,-8,o),
(356,93,o),
(393,236,cs),
(420,339,o),
(371,412,o),
(289,412,cs),
(231,412,o),
(195,388,o),
(145,355,c)
);
}
);
width = 416;
},
{
anchors = (
{
name = bottom;
pos = (180,0);
},
{
name = center;
pos = (191,510);
},
{
name = top;
pos = (274,402);
}
);
background = {
shapes = (
{
closed = 1;
nodes = (
(225,2,o),
(184,36,o),
(175,37,cs),
(147,39,o),
(132,55,o),
(142,95,c),
(162,161,o),
(190,252,o),
(210,318,cs),
(233,395,o),
(256,471,o),
(279,548,c),
(293,599,o),
(306,634,o),
(313,658,c),
(271,651,o),
(211,646,o),
(169,646,c),
(162,621,l),
(185,619,o),
(207,609,o),
(215,597,cs),
(221,589,o),
(219,562,o),
(210,531,c),
(190,465,o),
(170,399,o),
(150,333,cs),
(126,255,o),
(97,170,o),
(73,92,c),
(63,55,o),
(106,2,o),
(188,2,cs)
);
},
{
closed = 1;
nodes = (
(184,333,l),
(223,362,o),
(267,383,o),
(290,383,cs),
(346,383,o),
(370,319,o),
(343,224,cs),
(314,114,o),
(248,37,o),
(175,37,cs),
(158,37,o),
(157,2,o),
(188,2,cs),
(292,2,o),
(385,103,o),
(422,246,cs),
(449,349,o),
(410,422,o),
(328,422,cs),
(290,422,o),
(234,398,o),
(184,365,c)
);
}
);
};
layerId = m005;
shapes = (
{
closed = 1;
nodes = (
(175,-8,o),
(194,26,o),
(175,27,cs),
(147,28,o),
(132,45,o),
(142,85,c),
(162,151,o),
(190,242,o),
(210,308,cs),
(233,385,o),
(256,471,o),
(279,548,c),
(293,599,o),
(306,634,o),
(313,658,c),
(271,651,o),
(171,636,o),
(129,636,c),
(122,611,l),
(145,609,o),
(167,599,o),
(175,587,cs),
(181,579,o),
(179,552,o),
(170,521,c),
(150,455,o),
(130,389,o),
(110,323,cs),
(86,245,o),
(57,160,o),
(33,82,c),
(23,45,o),
(66,-8,o),
(148,-8,cs)
);
},
{
closed = 1;
nodes = (
(144,323,l),
(183,352,o),
(237,373,o),
(260,373,cs),
(316,373,o),
(337,309,o),
(310,214,cs),
(281,104,o),
(248,27,o),
(175,27,cs),
(194,27,o),
(174,-8,o),
(148,-8,cs),
(252,-8,o),
(388,103,o),
(425,246,cs),
(452,349,o),
(420,422,o),
(338,422,cs),
(300,422,o),
(194,388,o),
(144,355,c)
);
}
);
width = 450;
},
{
anchors = (
{
name = bottom;
pos = (160,0);
},
{
name = center;
pos = (171,510);
},
{
name = top;
pos = (254,402);
}
);
background = {
shapes = (
{
closed = 1;
nodes = (
(211,-15,o),
(323,91,o),
(364,241,cs),
(390,336,o),
(360,404,o),
(292,404,cs),
(221,404,o),
(143,373,o),
(103,330,c),
(106,285,l),
(137,324,o),
(198,352,o),
(254,352,cs),
(293,352,o),
(305,294,o),
(283,212,cs),
(255,101,o),
(189,23,o),
(124,23,cs),
(91,23,o),
(78,59,o),
(93,110,cs),
(144,303,o),
(210,526,o),
(252,647,c),
(72,635,l),
(68,606,l),
(117,609,o),
(137,608,o),
(146,593,cs),
(153,582,o),
(145,563,o),
(135,525,cs),
(13,82,ls),
(-3,25,o),
(30,-15,o),
(93,-15,cs)
);
}
);
};
layerId = m006;
shapes = (
{
closed = 1;
nodes = (
(183,-8,o),
(142,26,o),
(133,27,cs),
(105,29,o),
(72,45,o),
(82,85,c),
(102,151,o),
(130,242,o),
(150,308,cs),
(173,385,o),
(196,461,o),
(219,538,c),
(233,589,o),
(246,624,o),
(253,648,c),
(211,641,o),
(151,636,o),
(109,636,c),
(102,611,l),
(125,609,o),
(147,599,o),
(155,587,cs),
(161,579,o),
(159,552,o),
(150,521,c),
(130,455,o),
(110,389,o),
(90,323,cs),
(66,245,o),
(37,160,o),
(13,82,c),
(3,45,o),
(64,-8,o),
(146,-8,cs)
);
},
{
closed = 1;
nodes = (
(124,323,l),
(163,352,o),
(215,373,o),
(248,373,cs),
(311,373,o),
(337,307,o),
(311,214,cs),
(282,104,o),
(208,27,o),
(133,27,cs),
(116,27,o),
(115,-8,o),
(146,-8,cs),
(252,-8,o),
(353,93,o),
(390,236,cs),
(417,339,o),
(374,412,o),
(286,412,cs),
(242,412,o),
(175,388,o),
(124,355,c)
);
}
);
width = 416;
},
{
anchors = (
{
name = bottom;
pos = (160,0);
},
{
name = center;
pos = (171,510);
},
{
name = top;
pos = (254,402);
}
);
background = {
shapes = (
{
closed = 1;
nodes = (
(211,-15,o),
(323,91,o),
(364,241,cs),
(390,336,o),
(360,404,o),
(292,404,cs),
(221,404,o),
(143,373,o),
(103,330,c),
(106,285,l),
(137,324,o),
(198,352,o),
(254,352,cs),
(293,352,o),
(305,294,o),
(283,212,cs),
(255,101,o),
(189,23,o),
(124,23,cs),
(91,23,o),
(78,59,o),
(93,110,cs),
(144,303,o),
(210,526,o),
(252,647,c),
(72,635,l),
(68,606,l),
(117,609,o),
(137,608,o),
(146,593,cs),
(153,582,o),
(145,563,o),
(135,525,cs),
(13,82,ls),
(-3,25,o),
(30,-15,o),
(93,-15,cs)
);
}
);
};
layerId = m004;
shapes = (
{
closed = 1;
nodes = (
(157,-8,o),
(116,26,o),
(107,27,cs),
(84,29,o),
(74,53,o),
(82,85,c),
(102,151,o),
(130,242,o),
(150,308,cs),
(173,385,o),
(196,461,o),
(219,538,c),
(233,589,o),
(246,624,o),
(253,648,c),
(211,641,o),
(151,636,o),
(109,636,c),
(102,611,l),
(125,609,o),
(147,599,o),
(155,587,cs),
(161,579,o),
(159,552,o),
(150,521,c),
(130,455,o),
(110,389,o),
(90,323,cs),
(66,245,o),
(37,160,o),
(13,82,c),
(-1,29,o),
(43,-8,o),
(120,-8,cs)
);
},
{
closed = 1;
nodes = (
(124,323,l),
(163,352,o),
(204,373,o),
(222,373,cs),
(274,373,o),
(291,307,o),
(265,214,cs),
(236,104,o),
(171,27,o),
(107,27,cs),
(90,27,o),
(89,-8,o),
(120,-8,cs),
(214,-8,o),
(307,93,o),
(344,236,cs),
(371,339,o),
(336,412,o),
(260,412,cs),
(231,412,o),
(175,388,o),
(124,355,c)
);
}
);
width = 370;
}
);
metricLeft = l;
metricRight = o;
unicode = 98;
},
{
glyphname = c;
lastChange = "2025-04-25 19:48:45 +0000";
layers = (
{
anchors = (
{
name = bottom;
pos = (120,0);
},
{
name = top;
pos = (214,402);
}
);
background = {
shapes = (
{
closed = 1;
nodes = (
(176,-8,o),
(262,32,o),
(302,95,c),
(285,109,l),
(250,73,o),
(196,41,o),
(153,41,cs),
(98,41,o),
(79,119,o),
(107,224,cs),
(129,308,o),
(180,381,o),
(217,381,cs),
(242,381,o),
(251,343,o),
(241,308,cs),
(225,251,o),
(158,192,o),
(77,183,c),
(74,157,l),
(194,169,o),
(295,238,o),
(318,322,cs),
(330,375,o),
(308,413,o),
(250,413,cs),
(162,413,o),
(65,325,o),
(32,201,cs),
(-1,79,o),
(25,-8,o),
(111,-8,cs)
);
}
);
};
layerId = m003;
shapes = (
{
closed = 1;
nodes = (
(185,-8,o),
(244,35,o),
(282,95,c),
(265,109,l),
(227,70,o),
(189,42,o),
(148,42,cs),
(94,42,o),
(72,117,o),
(101,224,cs),
(128,319,o),
(183,387,o),
(225,387,cs),
(260,387,o),
(273,348,o),
(256,294,c),
(255,283,o),
(260,275,o),
(268,275,cs),
(299,275,o),
(326,292,o),
(333,316,cs),
(347,373,o),
(307,414,o),
(237,414,cs),
(151,414,o),
(66,326,o),
(32,201,cs),
(-1,79,o),
(32,-8,o),
(111,-8,cs)
);
}
);
width = 318;
},
{
anchors = (
{
name = bottom;
pos = (124,0);
},
{
name = top;
pos = (218,402);
}
);
background = {
shapes = (
{
closed = 1;
nodes = (
(180,-8,o),
(266,32,o),
(306,95,c),
(289,109,l),
(254,73,o),
(200,41,o),
(157,41,cs),
(102,41,o),
(83,119,o),
(111,224,cs),
(133,308,o),
(184,381,o),
(221,381,cs),
(246,381,o),
(255,343,o),
(245,308,cs),
(229,251,o),
(162,192,o),
(81,183,c),
(78,157,l),
(198,169,o),
(299,238,o),
(322,322,cs),
(334,375,o),
(312,413,o),
(254,413,cs),
(166,413,o),
(69,325,o),
(36,201,cs),
(3,79,o),
(29,-8,o),
(115,-8,cs)
);
}
);
};
layerId = m005;
shapes = (
{
closed = 1;
nodes = (
(189,-8,o),
(248,35,o),
(286,95,c),
(269,109,l),
(231,70,o),
(193,42,o),
(152,42,cs),
(98,42,o),
(76,117,o),
(105,224,cs),
(132,319,o),
(187,387,o),
(229,387,cs),
(264,387,o),
(277,348,o),
(260,294,c),
(259,283,o),
(264,275,o),
(272,275,cs),
(303,275,o),
(330,292,o),
(337,316,cs),
(351,373,o),
(311,414,o),
(241,414,cs),
(155,414,o),
(70,326,o),
(36,201,cs),
(3,79,o),
(36,-8,o),
(115,-8,cs)
);
}
);
width = 323;
},
{
anchors = (
{
name = bottom;
pos = (123,0);
},
{
name = top;
pos = (217,402);
}
);
background = {
shapes = (
{
closed = 1;
nodes = (
(179,-8,o),
(265,32,o),
(305,95,c),
(288,109,l),
(253,73,o),
(199,41,o),
(156,41,cs),
(101,41,o),
(82,119,o),
(110,224,cs),
(132,308,o),
(183,381,o),
(220,381,cs),
(245,381,o),
(254,343,o),
(244,308,cs),
(228,251,o),
(161,192,o),
(80,183,c),
(77,157,l),
(197,169,o),
(298,238,o),
(321,322,cs),
(333,375,o),
(311,413,o),
(253,413,cs),
(165,413,o),
(68,325,o),
(35,201,cs),
(2,79,o),
(28,-8,o),
(114,-8,cs)
);
}
);
};
layerId = m006;
shapes = (
{
closed = 1;
nodes = (
(191,-8,o),
(265,35,o),
(303,95,c),
(286,109,l),
(248,70,o),
(196,42,o),
(161,42,cs),
(99,42,o),
(75,117,o),
(104,224,cs),
(131,319,o),
(187,387,o),
(238,387,cs),
(278,387,o),
(294,348,o),
(277,294,c),
(276,283,o),
(281,275,o),
(289,275,cs),
(320,275,o),
(347,292,o),
(354,316,cs),
(368,373,o),
(325,414,o),
(250,414,cs),
(158,414,o),
(69,326,o),
(35,201,cs),
(2,79,o),
(39,-8,o),
(124,-8,cs)
);
}
);
width = 361;
},
{
anchors = (
{
name = bottom;
pos = (123,0);
},
{
name = top;
pos = (217,402);
}
);
background = {
shapes = (
{
closed = 1;
nodes = (
(179,-8,o),
(265,32,o),
(305,95,c),
(288,109,l),
(253,73,o),
(199,41,o),
(156,41,cs),
(101,41,o),
(82,119,o),
(110,224,cs),
(132,308,o),
(183,381,o),
(220,381,cs),
(245,381,o),
(254,343,o),
(244,308,cs),
(228,251,o),
(161,192,o),
(80,183,c),
(77,157,l),
(197,169,o),
(298,238,o),
(321,322,cs),
(333,375,o),
(311,413,o),
(253,413,cs),
(165,413,o),
(68,325,o),
(35,201,cs),
(2,79,o),
(28,-8,o),
(114,-8,cs)
);
}
);
};
layerId = m004;
shapes = (
{
closed = 1;
nodes = (
(161,-8,o),
(229,35,o),
(267,95,c),
(250,109,l),
(212,70,o),
(167,42,o),
(141,42,cs),
(90,42,o),
(75,117,o),
(104,224,cs),
(131,319,o),
(178,387,o),
(218,387,cs),
(249,387,o),
(258,348,o),
(241,294,c),
(240,283,o),
(245,275,o),
(253,275,cs),
(284,275,o),
(311,292,o),
(318,316,cs),
(332,373,o),
(296,414,o),
(230,414,cs),
(150,414,o),
(69,326,o),
(35,201,cs),
(2,79,o),
(30,-8,o),
(104,-8,cs)
);
}
);
width = 325;
}
);
metricLeft = o;
metricRight = o;
unicode = 99;
},
{
glyphname = d;
lastChange = "2025-04-25 19:48:45 +0000";
layers = (
{
anchors = (
{
name = bottom;
pos = (140,0);
},
{
name = center;
pos = (385,510);
},
{
name = ogonek;
pos = (322,10);
},
{
name = top;
pos = (281,401);
},
{
name = topright;
pos = (503,637);
}
);
background = {
shapes = (
{
closed = 1;
nodes = (
(309,-14,o),
(377,25,o),
(405,79,c),
(384,97,l),
(361,62,o),
(328,38,o),
(304,38,cs),
(291,38,o),
(288,64,o),
(299,105,cs),
(328,216,o),
(386,429,o),
(416,540,cs),
(423,565,o),
(439,616,o),
(456,660,c),
(423,644,o),
(334,633,o),
(253,633,c),
(249,604,l),
(313,607,o),
(352,597,o),
(347,580,c),
(347,564,o),
(341,541,o),
(337,523,cs),
(317,448,o),
(298,375,o),
(280,309,cs),
(246,177,o),
(220,79,o),
(220,72,cs),
(211,23,o),
(221,-14,o),
(245,-14,cs)
);
},
{
closed = 1;
nodes = (
(125,-15,o),
(228,71,o),
(290,191,c),
(286,242,l),
(229,132,o),
(145,45,o),
(102,45,cs),
(79,45,o),
(78,122,o),
(102,197,cs),
(136,304,o),
(201,377,o),
(262,377,cs),
(277,377,o),
(305,361,o),
(324,348,c),
(357,397,l),
(337,407,o),
(308,409,o),
(290,409,cs),
(177,409,o),
(62,310,o),
(18,170,cs),
(-10,81,o),
(5,-15,o),
(60,-15,cs)
);
},
{
closed = 1;
nodes = (
(325,-14,o),
(393,25,o),
(421,79,c),
(400,97,l),
(377,62,o),
(344,38,o),
(320,38,cs),
(307,38,o),
(304,64,o),
(315,105,cs),
(344,216,o),
(402,429,o),
(432,540,cs),
(439,565,o),
(455,616,o),
(467,645,c),
(291,633,l),
(287,604,l),
(333,607,o),
(349,605,o),
(359,592,cs),
(368,581,o),
(362,561,o),
(353,523,c),
(296,309,l),
(262,177,o),
(236,79,o),
(236,72,cs),
(227,23,o),
(237,-14,o),
(261,-14,cs)
);
},
{
closed = 1;
nodes = (
(122,-15,o),
(224,71,o),
(285,191,c),
(279,242,l),
(225,132,o),
(143,45,o),
(100,45,cs),
(77,45,o),
(77,93,o),
(96,167,cs),
(124,274,o),
(202,370,o),
(263,370,cs),
(283,370,o),
(305,359,o),
(325,341,c),
(356,390,l),
(336,400,o),
(306,402,o),
(288,402,cs),
(175,402,o),
(54,280,o),
(16,140,cs),
(-8,51,o),
(2,-15,o),
(57,-15,cs)
);
}
);
};
layerId = m003;
shapes = (
{
closed = 1;
nodes = (
(127,-10,o),
(205,53,o),
(283,208,c),
(273,249,l),
(215,132,o),
(139,46,o),
(98,46,cs),
(70,46,o),
(65,96,o),
(80,155,cs),
(114,283,o),
(186,363,o),
(250,363,cs),
(271,363,o),
(292,355,o),
(302,333,c),
(329,388,l),
(313,396,o),
(290,402,o),
(275,402,cs),
(166,402,o),
(57,286,o),
(11,121,cs),
(-10,44,o),
(11,-10,o),
(62,-10,cs)
);
},
{
closed = 1;
nodes = (
(286,-6,o),
(347,39,o),
(397,106,c),
(378,124,l),
(344,87,o),
(315,56,o),
(305,56,cs),
(294,56,o),
(293,95,o),
(306,152,cs),
(310,170,o),
(314,195,o),
(321,217,cs),
(347,308,l),
(416,538,ls),
(431,589,o),
(444,624,o),
(451,648,c),
(403,640,o),
(350,636,o),
(302,636,c),
(295,611,l),
(333,608,o),
(348,606,o),
(355,595,cs),
(360,589,o),
(358,574,o),
(344,521,cs),
(326,455,o),
(317,414,o),
(296,348,cs),
(275,281,l),
(253,201,ls),
(219,78,o),
(212,-6,o),
(253,-6,cs)
);
}
);
width = 396;
},
{
associatedMasterId = m003;
layerId = "993377BE-703F-43F0-9103-9C55914F64D0";
name = "7. Nov. 24, 00:11";
shapes = (
{
closed = 1;
nodes = (
(98,-3,o),
(197,77,o),
(303,190,c),
(286,208,l),
(216,136,o),
(150,85,o),
(127,85,cs),
(108,85,o),
(107,127,o),
(125,186,cs),
(175,348,o),
(261,463,o),
(334,463,cs),
(348,463,o),
(373,451,o),
(396,435,c),
(434,484,l),
(412,501,o),
(382,513,o),
(362,513,cs),
(230,513,o),
(91,363,o),
(26,152,cs),
(-2,61,o),
(14,-3,o),
(63,-3,cs)
);
},
{
closed = 1;
nodes = (
(326,-6,o),
(410,88,o),
(463,220,c),
(433,220,l),
(402,142,o),
(359,87,o),
(330,87,cs),
(318,87,o),
(325,128,o),
(347,187,cs),
(369,248,o),
(481,573,o),
(531,701,c),
(456,701,l),
(255,145,l),
(222,57,o),
(225,-6,o),
(262,-6,cs)
);
},
{
closed = 1;
nodes = (
(336,648,l),
(391,651,o),
(437,635,o),
(447,610,c),
(456,701,l),
(342,702,l)
);
}
);
width = 463;
},
{
anchors = (
{
name = bottom;
pos = (144,0);
},
{
name = center;
pos = (389,510);
},
{
name = ogonek;
pos = (326,10);
},
{
name = top;
pos = (285,401);
},
{
name = topright;
pos = (507,637);
}
);
background = {
shapes = (
{
closed = 1;
nodes = (
(313,-14,o),
(381,25,o),
(409,79,c),
(388,97,l),
(365,62,o),
(332,38,o),
(308,38,cs),
(295,38,o),
(292,64,o),
(303,105,cs),
(332,216,o),
(390,429,o),
(420,540,cs),
(427,565,o),
(443,616,o),
(460,660,c),
(427,644,o),
(338,633,o),
(257,633,c),
(253,604,l),
(317,607,o),
(356,597,o),
(351,580,c),
(351,564,o),
(345,541,o),
(341,523,cs),
(321,448,o),
(302,375,o),
(284,309,cs),
(250,177,o),
(224,79,o),
(224,72,cs),
(215,23,o),
(225,-14,o),
(249,-14,cs)
);
},
{
closed = 1;
nodes = (
(129,-15,o),
(232,71,o),
(294,191,c),
(290,242,l),
(233,132,o),
(149,45,o),
(106,45,cs),
(83,45,o),
(82,122,o),
(106,197,cs),
(140,304,o),
(205,377,o),
(266,377,cs),
(281,377,o),
(309,361,o),
(328,348,c),
(361,397,l),
(341,407,o),
(312,409,o),
(294,409,cs),
(181,409,o),
(66,310,o),
(22,170,cs),
(-6,81,o),
(9,-15,o),
(64,-15,cs)
);
},
{
closed = 1;
nodes = (
(329,-14,o),
(397,25,o),
(425,79,c),
(404,97,l),
(381,62,o),
(348,38,o),
(324,38,cs),
(311,38,o),
(308,64,o),
(319,105,cs),
(348,216,o),
(406,429,o),
(436,540,cs),
(443,565,o),
(459,616,o),
(471,645,c),
(295,633,l),
(291,604,l),
(337,607,o),
(353,605,o),
(363,592,cs),
(372,581,o),
(366,561,o),
(357,523,c),
(300,309,l),
(266,177,o),
(240,79,o),
(240,72,cs),
(231,23,o),
(241,-14,o),
(265,-14,cs)
);
},
{
closed = 1;
nodes = (
(126,-15,o),
(228,71,o),
(289,191,c),
(283,242,l),
(229,132,o),
(147,45,o),
(104,45,cs),
(81,45,o),
(81,93,o),
(100,167,cs),
(128,274,o),
(206,370,o),
(267,370,cs),
(287,370,o),
(309,359,o),
(329,341,c),
(360,390,l),
(340,400,o),
(310,402,o),
(292,402,cs),
(179,402,o),
(58,280,o),
(20,140,cs),
(-4,51,o),
(6,-15,o),
(61,-15,cs)
);
}
);
};
layerId = m005;
shapes = (
{
closed = 1;
nodes = (
(131,-10,o),
(209,53,o),
(287,208,c),
(277,249,l),
(219,132,o),
(143,46,o),
(102,46,cs),
(74,46,o),
(69,96,o),
(84,155,cs),
(118,283,o),
(190,363,o),
(254,363,cs),
(275,363,o),
(296,355,o),
(306,333,c),
(333,388,l),
(317,396,o),
(294,402,o),
(279,402,cs),
(170,402,o),
(61,286,o),
(15,121,cs),
(-6,44,o),
(15,-10,o),
(66,-10,cs)
);
},
{
closed = 1;
nodes = (
(290,-6,o),
(351,39,o),
(401,106,c),
(382,124,l),
(348,87,o),
(319,56,o),
(309,56,cs),
(298,56,o),
(297,95,o),
(310,152,cs),
(314,170,o),
(318,195,o),
(325,217,cs),
(351,308,l),
(420,538,ls),
(435,589,o),
(448,624,o),
(455,648,c),
(407,640,o),
(354,636,o),
(306,636,c),
(299,611,l),
(337,608,o),
(352,606,o),
(359,595,cs),
(364,589,o),
(362,574,o),
(348,521,cs),
(330,455,o),
(321,414,o),
(300,348,cs),
(279,281,l),
(257,201,ls),
(223,78,o),
(216,-6,o),
(257,-6,cs)
);
}
);
width = 410;
},
{
associatedMasterId = m005;
layerId = "8F12F315-3FA8-4014-9178-3FE9C846B860";
name = "7. Nov. 24, 00:11";
shapes = (
{
closed = 1;
nodes = (
(98,-3,o),
(197,77,o),
(303,190,c),
(286,208,l),
(216,136,o),
(150,85,o),
(127,85,cs),
(108,85,o),
(107,127,o),
(125,186,cs),
(175,348,o),
(261,463,o),
(334,463,cs),
(348,463,o),
(373,451,o),
(396,435,c),
(434,484,l),
(412,501,o),
(382,513,o),
(362,513,cs),
(230,513,o),
(91,363,o),
(26,152,cs),
(-2,61,o),
(14,-3,o),
(63,-3,cs)
);
},
{
closed = 1;
nodes = (
(326,-6,o),
(410,88,o),
(463,220,c),
(433,220,l),
(402,142,o),
(359,87,o),
(330,87,cs),
(318,87,o),
(325,128,o),
(347,187,cs),
(369,248,o),
(481,573,o),
(531,701,c),
(456,701,l),
(255,145,l),
(222,57,o),
(225,-6,o),
(262,-6,cs)
);
},
{
closed = 1;
nodes = (
(336,648,l),
(391,651,o),
(437,635,o),
(447,610,c),
(456,701,l),
(342,702,l)
);
}
);
width = 463;
},
{
anchors = (
{
name = bottom;
pos = (143,0);
},
{
name = center;
pos = (388,510);
},
{
name = ogonek;
pos = (325,10);
},
{
name = top;
pos = (284,401);
},
{
name = topright;
pos = (506,637);
}
);
background = {
shapes = (
{
closed = 1;
nodes = (
(312,-14,o),
(380,25,o),
(408,79,c),
(387,97,l),
(364,62,o),
(331,38,o),
(307,38,cs),
(294,38,o),
(291,64,o),
(302,105,cs),
(331,216,o),
(389,429,o),
(419,540,cs),
(426,565,o),
(442,616,o),
(459,660,c),
(426,644,o),
(337,633,o),
(256,633,c),
(252,604,l),
(316,607,o),
(355,597,o),
(350,580,c),
(350,564,o),
(344,541,o),
(340,523,cs),
(320,448,o),
(301,375,o),
(283,309,cs),
(249,177,o),
(223,79,o),
(223,72,cs),
(214,23,o),
(224,-14,o),
(248,-14,cs)
);
},
{
closed = 1;
nodes = (
(128,-15,o),
(231,71,o),
(293,191,c),
(289,242,l),
(232,132,o),
(148,45,o),
(105,45,cs),
(82,45,o),
(81,122,o),
(105,197,cs),
(139,304,o),
(204,377,o),
(265,377,cs),
(280,377,o),
(308,361,o),
(327,348,c),
(360,397,l),
(340,407,o),
(311,409,o),
(293,409,cs),
(180,409,o),
(65,310,o),
(21,170,cs),
(-7,81,o),
(8,-15,o),
(63,-15,cs)
);
},
{
closed = 1;
nodes = (
(328,-14,o),
(396,25,o),
(424,79,c),
(403,97,l),
(380,62,o),
(347,38,o),
(323,38,cs),
(310,38,o),
(307,64,o),
(318,105,cs),
(347,216,o),
(405,429,o),
(435,540,cs),
(442,565,o),
(458,616,o),
(470,645,c),
(294,633,l),
(290,604,l),
(336,607,o),
(352,605,o),
(362,592,cs),
(371,581,o),
(365,561,o),
(356,523,c),
(299,309,l),
(265,177,o),
(239,79,o),
(239,72,cs),
(230,23,o),
(240,-14,o),
(264,-14,cs)
);
},
{
closed = 1;
nodes = (
(125,-15,o),
(227,71,o),
(288,191,c),
(282,242,l),
(228,132,o),
(146,45,o),
(103,45,cs),
(80,45,o),
(80,93,o),
(99,167,cs),
(127,274,o),
(205,370,o),
(266,370,cs),
(286,370,o),
(308,359,o),
(328,341,c),
(359,390,l),
(339,400,o),
(309,402,o),
(291,402,cs),
(178,402,o),
(57,280,o),
(19,140,cs),
(-5,51,o),
(5,-15,o),
(60,-15,cs)
);
}
);
};
layerId = m006;
shapes = (
{
closed = 1;
nodes = (
(130,-10,o),
(228,53,o),
(306,208,c),
(296,249,l),
(238,132,o),
(142,46,o),
(101,46,cs),
(73,46,o),
(68,96,o),
(83,155,cs),
(117,283,o),
(189,363,o),
(253,363,cs),
(274,363,o),
(305,355,o),
(315,333,c),
(342,388,l),
(326,396,o),
(293,402,o),
(278,402,cs),
(169,402,o),
(60,286,o),
(14,121,cs),
(-7,44,o),
(14,-10,o),
(65,-10,cs)
);
},
{
closed = 1;
nodes = (
(307,-6,o),
(368,39,o),
(418,106,c),
(399,124,l),
(365,87,o),
(336,56,o),
(326,56,cs),
(315,56,o),
(314,95,o),
(327,152,cs),
(331,170,o),
(335,195,o),
(342,217,cs),
(368,308,l),
(437,538,ls),
(452,589,o),
(465,624,o),
(472,648,c),
(424,640,o),
(371,636,o),
(323,636,c),
(316,611,l),
(354,608,o),
(369,606,o),
(376,595,cs),
(381,589,o),
(379,574,o),
(365,521,cs),
(347,455,o),
(338,414,o),
(317,348,cs),
(296,281,l),
(274,201,ls),
(240,78,o),
(233,-6,o),
(274,-6,cs)
);
}
);
width = 428;
},
{
associatedMasterId = m006;
layerId = "0A9920ED-9701-49CA-8FBB-23AE6CF1244F";
name = "7. Nov. 24, 00:11";
shapes = (
{
closed = 1;
nodes = (
(98,-3,o),
(197,77,o),
(303,190,c),
(286,208,l),
(216,136,o),
(150,85,o),
(127,85,cs),
(108,85,o),
(107,127,o),
(125,186,cs),
(175,348,o),
(261,463,o),
(334,463,cs),
(348,463,o),
(373,451,o),
(396,435,c),
(434,484,l),
(412,501,o),
(382,513,o),
(362,513,cs),
(230,513,o),
(91,363,o),
(26,152,cs),
(-2,61,o),
(14,-3,o),
(63,-3,cs)
);
},
{
closed = 1;
nodes = (
(326,-6,o),
(410,88,o),
(463,220,c),
(433,220,l),
(402,142,o),
(359,87,o),
(330,87,cs),
(318,87,o),
(325,128,o),
(347,187,cs),
(369,248,o),
(481,573,o),
(531,701,c),
(456,701,l),
(255,145,l),
(222,57,o),
(225,-6,o),
(262,-6,cs)
);
},
{
closed = 1;
nodes = (
(336,648,l),
(391,651,o),
(437,635,o),
(447,610,c),
(456,701,l),
(342,702,l)
);
}
);
width = 463;
},
{
anchors = (
{
name = bottom;
pos = (143,0);
},
{
name = center;
pos = (388,510);
},
{
name = ogonek;
pos = (325,10);
},
{
name = top;
pos = (284,401);
},
{
name = topright;
pos = (506,637);
}
);
background = {
shapes = (
{
closed = 1;
nodes = (
(312,-14,o),
(380,25,o),
(408,79,c),
(387,97,l),
(364,62,o),
(331,38,o),
(307,38,cs),
(294,38,o),
(291,64,o),
(302,105,cs),
(331,216,o),
(389,429,o),
(419,540,cs),
(426,565,o),
(442,616,o),
(459,660,c),
(426,644,o),
(337,633,o),
(256,633,c),
(252,604,l),
(316,607,o),
(355,597,o),
(350,580,c),
(350,564,o),
(344,541,o),
(340,523,cs),
(320,448,o),
(301,375,o),
(283,309,cs),
(249,177,o),
(223,79,o),
(223,72,cs),
(214,23,o),
(224,-14,o),
(248,-14,cs)
);
},
{
closed = 1;
nodes = (
(128,-15,o),
(231,71,o),
(293,191,c),
(289,242,l),
(232,132,o),
(148,45,o),
(105,45,cs),
(82,45,o),
(81,122,o),
(105,197,cs),
(139,304,o),
(204,377,o),
(265,377,cs),
(280,377,o),
(308,361,o),
(327,348,c),
(360,397,l),
(340,407,o),
(311,409,o),
(293,409,cs),
(180,409,o),
(65,310,o),
(21,170,cs),
(-7,81,o),
(8,-15,o),
(63,-15,cs)
);
},
{
closed = 1;
nodes = (
(328,-14,o),
(396,25,o),
(424,79,c),
(403,97,l),
(380,62,o),
(347,38,o),
(323,38,cs),
(310,38,o),
(307,64,o),
(318,105,cs),
(347,216,o),
(405,429,o),
(435,540,cs),
(442,565,o),
(458,616,o),
(470,645,c),
(294,633,l),
(290,604,l),
(336,607,o),
(352,605,o),
(362,592,cs),
(371,581,o),
(365,561,o),
(356,523,c),
(299,309,l),
(265,177,o),
(239,79,o),
(239,72,cs),
(230,23,o),
(240,-14,o),
(264,-14,cs)
);
},
{
closed = 1;
nodes = (
(125,-15,o),
(227,71,o),
(288,191,c),
(282,242,l),
(228,132,o),
(146,45,o),
(103,45,cs),
(80,45,o),
(80,93,o),
(99,167,cs),
(127,274,o),
(205,370,o),
(266,370,cs),
(286,370,o),
(308,359,o),
(328,341,c),
(359,390,l),
(339,400,o),
(309,402,o),
(291,402,cs),
(178,402,o),
(57,280,o),
(19,140,cs),
(-5,51,o),
(5,-15,o),
(60,-15,cs)
);
}
);
};
layerId = m004;
shapes = (
{
closed = 1;
nodes = (
(130,-10,o),
(198,53,o),
(276,208,c),
(266,249,l),
(208,132,o),
(142,46,o),
(101,46,cs),
(73,46,o),
(68,96,o),
(83,155,cs),
(117,283,o),
(189,363,o),
(253,363,cs),
(274,363,o),
(285,355,o),
(295,333,c),
(322,388,l),
(306,396,o),
(293,402,o),
(278,402,cs),
(169,402,o),
(60,286,o),
(14,121,cs),
(-7,44,o),
(14,-10,o),
(65,-10,cs)
);
},
{
closed = 1;
nodes = (
(271,-6,o),
(332,39,o),
(382,106,c),
(363,124,l),
(329,87,o),
(300,56,o),
(290,56,cs),
(279,56,o),
(278,95,o),
(291,152,cs),
(295,170,o),
(299,195,o),
(306,217,cs),
(332,308,l),
(401,538,ls),
(416,589,o),
(429,624,o),
(436,648,c),
(388,640,o),
(335,636,o),
(287,636,c),
(280,611,l),
(318,608,o),
(333,606,o),
(340,595,cs),
(345,589,o),
(343,574,o),
(329,521,cs),
(311,455,o),
(302,414,o),
(281,348,cs),
(260,281,l),
(238,201,ls),
(204,78,o),
(197,-6,o),
(238,-6,cs)
);
}
);
width = 392;
},
{
associatedMasterId = m004;
layerId = "BD39C059-D74C-4177-B5EC-2C9B3F4B4094";
name = "7. Nov. 24, 00:11";
shapes = (
{
closed = 1;
nodes = (
(98,-3,o),
(197,77,o),
(303,190,c),
(286,208,l),
(216,136,o),
(150,85,o),
(127,85,cs),
(108,85,o),
(107,127,o),
(125,186,cs),
(175,348,o),
(261,463,o),
(334,463,cs),
(348,463,o),
(373,451,o),
(396,435,c),
(434,484,l),
(412,501,o),
(382,513,o),
(362,513,cs),
(230,513,o),
(91,363,o),
(26,152,cs),
(-2,61,o),
(14,-3,o),
(63,-3,cs)
);
},
{
closed = 1;
nodes = (
(326,-6,o),
(410,88,o),
(463,220,c),
(433,220,l),
(402,142,o),
(359,87,o),
(330,87,cs),
(318,87,o),
(325,128,o),
(347,187,cs),
(369,248,o),
(481,573,o),
(531,701,c),
(456,701,l),
(255,145,l),
(222,57,o),
(225,-6,o),
(262,-6,cs)
);
},
{
closed = 1;
nodes = (
(336,648,l),
(391,651,o),
(437,635,o),
(447,610,c),
(456,701,l),
(342,702,l)
);
}
);
width = 463;
}
);
metricLeft = o;
metricRight = a;
metricWidth = a;
unicode = 100;
},
{
glyphname = e;
lastChange = "2025-05-17 05:19:12 +0000";
layers = (
{
anchors = (
{
name = bottom;
pos = (121,0);
},
{
name = ogonek;
pos = (269,10);
},
{
name = top;
pos = (215,402);
}
);
layerId = m003;
shapes = (
{
closed = 1;
nodes = (
(176,-8,o),
(242,32,o),
(282,95,c),
(265,109,l),
(230,73,o),
(185,39,o),
(142,39,cs),
(87,39,o),
(68,117,o),
(96,222,cs),
(118,306,o),
(185,379,o),
(222,379,cs),
(247,379,o),
(264,343,o),
(254,308,cs),
(238,251,o),
(158,194,o),
(77,185,c),
(74,157,l),
(194,169,o),
(295,238,o),
(318,322,cs),
(330,375,o),
(308,413,o),
(250,413,cs),
(162,413,o),
(65,325,o),
(32,201,cs),
(1,85,o),
(35,-8,o),
(111,-8,cs)
);
}
);
width = 342;
},
{
anchors = (
{
name = bottom;
pos = (125,0);
},
{
name = ogonek;
pos = (273,10);
},
{
name = top;
pos = (219,402);
}
);
background = {
anchors = (
{
name = bottom;
pos = (165,10);
},
{
name = ogonek;
pos = (313,20);
},
{
name = top;
pos = (259,412);
}
);
shapes = (
{
closed = 1;
nodes = (
(220,2,o),
(286,42,o),
(326,105,c),
(309,119,l),
(274,83,o),
(229,49,o),
(186,49,cs),
(131,49,o),
(112,127,o),
(140,232,cs),
(162,316,o),
(229,389,o),
(266,389,cs),
(291,389,o),
(308,353,o),
(298,318,cs),
(282,261,o),
(202,204,o),
(121,195,c),
(118,167,l),
(238,179,o),
(339,248,o),
(362,332,cs),
(374,385,o),
(352,423,o),
(294,423,cs),
(206,423,o),
(109,335,o),
(76,211,cs),
(45,95,o),
(79,2,o),
(155,2,cs)
);
}
);
};
layerId = m005;
shapes = (
{
closed = 1;
nodes = (
(219,-8,o),
(304,39,o),
(346,105,c),
(329,119,l),
(289,78,o),
(232,49,o),
(191,49,cs),
(132,49,o),
(111,125,o),
(140,232,cs),
(164,321,o),
(208,384,o),
(246,384,cs),
(277,384,o),
(290,353,o),
(278,308,cs),
(260,248,o),
(178,197,o),
(81,185,c),
(78,157,l),
(232,172,o),
(358,245,o),
(382,332,cs),
(393,385,o),
(357,423,o),
(294,423,cs),
(178,423,o),
(71,331,o),
(36,201,cs),
(3,79,o),
(46,-8,o),
(140,-8,cs)
);
}
);
width = 378;
},
{
anchors = (
{
name = bottom;
pos = (124,0);
},
{
name = ogonek;
pos = (272,10);
},
{
name = top;
pos = (218,402);
}
);
layerId = m006;
shapes = (
{
closed = 1;
nodes = (
(191,-8,o),
(265,35,o),
(303,95,c),
(286,109,l),
(246,68,o),
(192,39,o),
(155,39,cs),
(94,39,o),
(70,115,o),
(99,222,cs),
(123,314,o),
(179,379,o),
(235,379,cs),
(270,379,o),
(287,350,o),
(275,308,cs),
(258,247,o),
(177,196,o),
(80,185,c),
(77,157,l),
(208,170,o),
(316,238,o),
(339,322,cs),
(351,375,o),
(320,413,o),
(263,413,cs),
(163,413,o),
(68,325,o),
(35,201,cs),
(2,79,o),
(39,-8,o),
(124,-8,cs)
);
}
);
width = 356;
},
{
anchors = (
{
name = bottom;
pos = (124,0);
},
{
name = ogonek;
pos = (272,10);
},
{
name = top;
pos = (218,402);
}
);
layerId = m004;
shapes = (
{
closed = 1;
nodes = (
(161,-8,o),
(229,35,o),
(267,95,c),
(250,109,l),
(210,68,o),
(162,39,o),
(135,39,cs),
(85,39,o),
(70,115,o),
(99,222,cs),
(123,314,o),
(171,379,o),
(215,379,cs),
(241,379,o),
(251,350,o),
(239,308,cs),
(221,244,o),
(155,193,o),
(80,185,c),
(77,157,l),
(186,168,o),
(280,236,o),
(303,322,cs),
(315,375,o),
(290,413,o),
(243,413,cs),
(154,413,o),
(68,325,o),
(35,201,cs),
(2,79,o),
(31,-8,o),
(104,-8,cs)
);
}
);
width = 320;
}
);
unicode = 101;
},
{
glyphname = f;
lastChange = "2025-04-25 19:51:40 +0000";
layers = (
{
anchors = (
{
name = bottom;
pos = (109,0);
},
{
name = top;
pos = (303,637);
}
);
background = {
shapes = (
{
closed = 0;
nodes = (
(71,81,ls),
(60,33,o),
(31,-90,o),
(-11,-138,cs),
(-21,-150,o),
(-32,-157,o),
(-44,-157,cs),
(-63,-158,o),
(-60,-135,o),
(-79,-134,cs),
(-112,-134,o),
(-142,-163,o),
(-151,-205,cs),
(-155,-220,o),
(-140,-232,o),
(-114,-232,cs),
(-80,-232,o),
(-15,-190,o),
(9,-164,cs),
(72,-96,o),
(134,29,o),
(159,148,cs)
);
}
);
};
layerId = m003;
shapes = (
{
closed = 1;
nodes = (
(-105,-234,o),
(-54,-211,o),
(-19,-179,cs),
(67,-98,o),
(132,118,o),
(160,241,cs),
(177,323,o),
(196,414,o),
(222,498,cs),
(245,574,o),
(299,620,o),
(340,620,cs),
(384,620,o),
(403,581,o),
(391,542,cs),
(386,529,o),
(392,520,o),
(402,520,cs),
(433,520,o),
(462,538,o),
(468,561,cs),
(481,610,o),
(437,643,o),
(362,643,cs),
(261,643,o),
(167,559,o),
(139,434,cs),
(128,383,o),
(111,318,o),
(99,254,cs),
(78,149,o),
(26,-79,o),
(-29,-141,cs),
(-39,-153,o),
(-61,-165,o),
(-70,-165,cs),
(-78,-165,o),
(-81,-161,o),
(-86,-154,cs),
(-90,-148,o),
(-94,-142,o),
(-105,-142,cs),
(-137,-142,o),
(-160,-163,o),
(-169,-205,cs),
(-172,-220,o),
(-157,-234,o),
(-130,-234,cs)
);
},
{
closed = 1;
nodes = (
(266,357,l),
(286,406,l),
(106,402,l),
(19,382,l),
(15,369,l)
);
}
);
width = 234;
},
{
anchors = (
{
name = bottom;
pos = (120,0);
},
{
name = top;
pos = (314,637);
}
);
background = {
shapes = (
{
closed = 0;
nodes = (
(82,81,ls),
(71,33,o),
(42,-90,o),
(0,-138,cs),
(-10,-150,o),
(-21,-157,o),
(-33,-157,cs),
(-52,-158,o),
(-49,-135,o),
(-68,-134,cs),
(-101,-134,o),
(-131,-163,o),
(-140,-205,cs),
(-144,-220,o),
(-129,-232,o),
(-103,-232,cs),
(-69,-232,o),
(-4,-190,o),
(20,-164,cs),
(83,-96,o),
(145,29,o),
(170,148,cs)
);
}
);
};
layerId = m005;
shapes = (
{
closed = 1;
nodes = (
(-94,-234,o),
(-43,-211,o),
(-8,-179,cs),
(78,-98,o),
(143,118,o),
(171,241,cs),
(188,323,o),
(207,414,o),
(233,498,cs),
(256,574,o),
(310,620,o),
(351,620,cs),
(395,620,o),
(414,581,o),
(402,542,cs),
(397,529,o),
(403,520,o),
(413,520,cs),
(444,520,o),
(473,538,o),
(479,561,cs),
(492,610,o),
(448,643,o),
(373,643,cs),
(272,643,o),
(178,559,o),
(150,434,cs),
(139,383,o),
(122,318,o),
(110,254,cs),
(89,149,o),
(37,-79,o),
(-18,-141,cs),
(-28,-153,o),
(-50,-165,o),
(-59,-165,cs),
(-67,-165,o),
(-70,-161,o),
(-75,-154,cs),
(-79,-148,o),
(-83,-142,o),
(-94,-142,cs),
(-126,-142,o),
(-149,-163,o),
(-158,-205,cs),
(-161,-220,o),
(-146,-234,o),
(-119,-234,cs)
);
},
{
closed = 1;
nodes = (
(277,357,l),
(297,406,l),
(117,402,l),
(30,382,l),
(26,369,l)
);
}
);
width = 248;
},
{
anchors = (
{
name = bottom;
pos = (101,0);
},
{
name = top;
pos = (295,637);
}
);
background = {
shapes = (
{
closed = 0;
nodes = (
(63,81,ls),
(52,33,o),
(23,-90,o),
(-19,-138,cs),
(-29,-150,o),
(-40,-157,o),
(-52,-157,cs),
(-71,-158,o),
(-68,-135,o),
(-87,-134,cs),
(-120,-134,o),
(-150,-163,o),
(-159,-205,cs),
(-163,-220,o),
(-148,-232,o),
(-122,-232,cs),
(-88,-232,o),
(-23,-190,o),
(1,-164,cs),
(64,-96,o),
(126,29,o),
(151,148,cs)
);
}
);
};
layerId = m006;
shapes = (
{
closed = 1;
nodes = (
(-113,-234,o),
(-62,-211,o),
(-27,-179,cs),
(59,-98,o),
(124,118,o),
(152,241,cs),
(169,323,o),
(188,414,o),
(214,498,cs),
(237,574,o),
(291,620,o),
(332,620,cs),
(376,620,o),
(395,581,o),
(383,542,cs),
(378,529,o),
(384,520,o),
(394,520,cs),
(425,520,o),
(454,538,o),
(460,561,cs),
(473,610,o),
(429,643,o),
(354,643,cs),
(253,643,o),
(159,559,o),
(131,434,cs),
(120,383,o),
(103,318,o),
(91,254,cs),
(70,149,o),
(18,-79,o),
(-37,-141,cs),
(-47,-153,o),
(-69,-165,o),
(-78,-165,cs),
(-86,-165,o),
(-89,-161,o),
(-94,-154,cs),
(-98,-148,o),
(-102,-142,o),
(-113,-142,cs),
(-145,-142,o),
(-168,-163,o),
(-177,-205,cs),
(-180,-220,o),
(-165,-234,o),
(-138,-234,cs)
);
},
{
closed = 1;
nodes = (
(258,357,l),
(278,406,l),
(98,402,l),
(11,382,l),
(7,369,l)
);
}
);
width = 250;
},
{
anchors = (
{
name = bottom;
pos = (101,0);
},
{
name = top;
pos = (295,637);
}
);
background = {
shapes = (
{
closed = 0;
nodes = (
(63,81,ls),
(52,33,o),
(23,-90,o),
(-19,-138,cs),
(-29,-150,o),
(-40,-157,o),
(-52,-157,cs),
(-71,-158,o),
(-68,-135,o),
(-87,-134,cs),
(-120,-134,o),
(-150,-163,o),
(-159,-205,cs),
(-163,-220,o),
(-148,-232,o),
(-122,-232,cs),
(-88,-232,o),
(-23,-190,o),
(1,-164,cs),
(64,-96,o),
(126,29,o),
(151,148,cs)
);
}
);
};
layerId = m004;
shapes = (
{
closed = 1;
nodes = (
(-113,-234,o),
(-62,-211,o),
(-27,-179,cs),
(59,-98,o),
(124,118,o),
(152,241,cs),
(169,323,o),
(188,414,o),
(214,498,cs),
(237,574,o),
(291,620,o),
(332,620,cs),
(376,620,o),
(395,581,o),
(383,542,cs),
(378,529,o),
(384,520,o),
(394,520,cs),
(425,520,o),
(454,538,o),
(460,561,cs),
(473,610,o),
(429,643,o),
(354,643,cs),
(253,643,o),
(159,559,o),
(131,434,cs),
(120,383,o),
(103,318,o),
(91,254,cs),
(70,149,o),
(18,-79,o),
(-37,-141,cs),
(-47,-153,o),
(-69,-165,o),
(-78,-165,cs),
(-86,-165,o),
(-89,-161,o),
(-94,-154,cs),
(-98,-148,o),
(-102,-142,o),
(-113,-142,cs),
(-145,-142,o),
(-168,-163,o),
(-177,-205,cs),
(-180,-220,o),
(-165,-234,o),
(-138,-234,cs)
);
},
{
closed = 1;
nodes = (
(258,357,l),
(278,406,l),
(98,402,l),
(11,382,l),
(7,369,l)
);
}
);
width = 250;
}
);
unicode = 102;
},
